<?xml version="1.0" encoding="UTF-8" standalone="no"?>
<svg
   xmlns:dc="http://purl.org/dc/elements/1.1/"
   xmlns:cc="http://creativecommons.org/ns#"
   xmlns:rdf="http://www.w3.org/1999/02/22-rdf-syntax-ns#"
   xmlns:svg="http://www.w3.org/2000/svg"
   xmlns="http://www.w3.org/2000/svg"
   xmlns:sodipodi="http://sodipodi.sourceforge.net/DTD/sodipodi-0.dtd"
   xmlns:inkscape="http://www.inkscape.org/namespaces/inkscape"
   sodipodi:docname="persian.svg"
   inkscape:version="1.0 (4035a4fb49, 2020-05-01)"
   id="svg8"
   version="1.1"
   viewBox="0 0 194.7531 137.25861"
   height="137.25861mm"
   width="194.7531mm">
  <defs
     id="defs2">
    <marker
       inkscape:stockid="Arrow1Lstart"
       orient="auto"
       refY="0"
       refX="0"
       id="marker2884"
       style="overflow:visible"
       inkscape:isstock="true">
      <path
         id="path2882"
         d="M 0,0 5,-5 -12.5,0 5,5 Z"
         style="fill:#000000;fill-opacity:1;fill-rule:evenodd;stroke:#000000;stroke-width:1pt;stroke-opacity:1"
         transform="matrix(0.8,0,0,0.8,10,0)" />
    </marker>
    <marker
       inkscape:collect="always"
       inkscape:isstock="true"
       style="overflow:visible"
       id="Arrow1Lstart"
       refX="0"
       refY="0"
       orient="auto"
       inkscape:stockid="Arrow1Lstart">
      <path
         transform="matrix(0.8,0,0,0.8,10,0)"
         style="fill:#993fd3;fill-opacity:1;fill-rule:evenodd;stroke:#993fd3;stroke-width:1pt;stroke-opacity:1"
         d="M 0,0 5,-5 -12.5,0 5,5 Z"
         id="path920" />
    </marker>
    <marker
       inkscape:stockid="Arrow1Lend"
       orient="auto"
       refY="0"
       refX="0"
       id="marker2668"
       style="overflow:visible"
       inkscape:isstock="true">
      <path
         id="path2666"
         d="M 0,0 5,-5 -12.5,0 5,5 Z"
         style="fill:#9999d2;fill-opacity:0.713725;fill-rule:evenodd;stroke:#9999d2;stroke-width:1pt;stroke-opacity:0.713725"
         transform="matrix(-0.8,0,0,-0.8,-10,0)" />
    </marker>
    <marker
       inkscape:stockid="Arrow1Lend"
       orient="auto"
       refY="0"
       refX="0"
       id="marker2658"
       style="overflow:visible"
       inkscape:isstock="true">
      <path
         id="path2656"
         d="M 0,0 5,-5 -12.5,0 5,5 Z"
         style="fill:#9999d2;fill-opacity:0.713725;fill-rule:evenodd;stroke:#9999d2;stroke-width:1pt;stroke-opacity:0.713725"
         transform="matrix(-0.8,0,0,-0.8,-10,0)" />
    </marker>
    <marker
       inkscape:stockid="Arrow1Lend"
       orient="auto"
       refY="0"
       refX="0"
       id="marker2514"
       style="overflow:visible"
       inkscape:isstock="true">
      <path
         id="path2512"
         d="M 0,0 5,-5 -12.5,0 5,5 Z"
         style="fill:#993fd3;fill-opacity:1;fill-rule:evenodd;stroke:#993fd3;stroke-width:1pt;stroke-opacity:1"
         transform="matrix(-0.8,0,0,-0.8,-10,0)" />
    </marker>
    <marker
       inkscape:stockid="Arrow1Lend"
       orient="auto"
       refY="0"
       refX="0"
       id="marker2504"
       style="overflow:visible"
       inkscape:isstock="true">
      <path
         id="path2502"
         d="M 0,0 5,-5 -12.5,0 5,5 Z"
         style="fill:#993fd3;fill-opacity:1;fill-rule:evenodd;stroke:#993fd3;stroke-width:1pt;stroke-opacity:1"
         transform="matrix(-0.8,0,0,-0.8,-10,0)" />
    </marker>
    <marker
       inkscape:isstock="true"
       style="overflow:visible"
       id="marker1407"
       refX="0"
       refY="0"
       orient="auto"
       inkscape:stockid="Arrow1Lend">
      <path
         transform="matrix(-0.8,0,0,-0.8,-10,0)"
         style="fill:#9999d4;fill-opacity:0.713725;fill-rule:evenodd;stroke:#9999d4;stroke-width:1pt;stroke-opacity:0.713725"
         d="M 0,0 5,-5 -12.5,0 5,5 Z"
         id="path1405" />
    </marker>
    <marker
       inkscape:collect="always"
       inkscape:stockid="Arrow1Lend"
       orient="auto"
       refY="0"
       refX="0"
       id="marker1373"
       style="overflow:visible"
       inkscape:isstock="true">
      <path
         id="path1371"
         d="M 0,0 5,-5 -12.5,0 5,5 Z"
         style="fill:#999999;fill-opacity:0.0227598;fill-rule:evenodd;stroke:#9999d4;stroke-width:1pt;stroke-opacity:0.713725"
         transform="matrix(-0.8,0,0,-0.8,-10,0)" />
    </marker>
  </defs>
  <sodipodi:namedview
     fit-margin-bottom="0"
     fit-margin-right="0"
     fit-margin-left="0"
     fit-margin-top="0"
     inkscape:window-maximized="0"
     inkscape:window-y="73"
     inkscape:window-x="1707"
     inkscape:window-height="1746"
     inkscape:window-width="2555"
     showgrid="false"
     inkscape:document-rotation="0"
     inkscape:current-layer="layer1"
     inkscape:document-units="mm"
     inkscape:cy="306.7963"
     inkscape:cx="131.13335"
     inkscape:zoom="5.6"
     inkscape:pageshadow="2"
     inkscape:pageopacity="0.0"
     borderopacity="1.0"
     bordercolor="#666666"
     pagecolor="#ffffff"
     id="base" />
  <metadata
     id="metadata5">
    <rdf:RDF>
      <cc:Work
         rdf:about="">
        <dc:format>image/svg+xml</dc:format>
        <dc:type
           rdf:resource="http://purl.org/dc/dcmitype/StillImage" />
        <dc:title></dc:title>
      </cc:Work>
    </rdf:RDF>
  </metadata>
  <g
     transform="translate(-2.3902481,-20.053918)"
     id="layer1"
     inkscape:groupmode="layer"
     inkscape:label="Layer 1">
    <rect
       y="29.427462"
       x="7.9150496"
       height="65.719589"
       width="65.719589"
       id="rect872"
       style="fill:#999999;fill-opacity:0.0227598;stroke:#000000;stroke-width:0.264999;stroke-linejoin:bevel;stroke-opacity:1" />
    <g
       transform="translate(-18.473771)"
       id="g900">
      <circle
         style="fill:#9999d3;fill-opacity:0.709481;stroke:#000000;stroke-width:0.264999;stroke-linejoin:bevel;stroke-opacity:1"
         id="path874"
         cx="30.072748"
         cy="31.96501"
         r="5.7600141" />
      <circle
         r="5.7600141"
         cy="31.96501"
         cx="90.292221"
         id="circle876"
         style="fill:#9999d3;fill-opacity:0.709481;stroke:#000000;stroke-width:0.264999;stroke-linejoin:bevel;stroke-opacity:1"
         inkscape:transform-center-x="0.23881991"
         inkscape:transform-center-y="-0.12975639" />
      <circle
         inkscape:transform-center-y="-0.12975639"
         inkscape:transform-center-x="0.23881991"
         style="fill:#9999d3;fill-opacity:0.709481;stroke:#000000;stroke-width:0.264999;stroke-linejoin:bevel;stroke-opacity:1"
         id="circle878"
         cx="90.292221"
         cy="92.515442"
         r="5.7600141" />
      <circle
         r="5.7600141"
         cy="92.515442"
         cx="26.756533"
         id="circle880"
         style="fill:#9999d3;fill-opacity:0.709481;stroke:#000000;stroke-width:0.264999;stroke-linejoin:bevel;stroke-opacity:1"
         inkscape:transform-center-x="0.23881991"
         inkscape:transform-center-y="-0.12975639" />
    </g>
    <g
       transform="translate(-18.473771)"
       style="stroke-width:1;stroke-miterlimit:4;stroke-dasharray:none"
       id="g894">
      <path
         style="fill:none;stroke:#9999d2;stroke-width:1;stroke-linecap:butt;stroke-linejoin:miter;stroke-miterlimit:4;stroke-dasharray:1, 1;stroke-dashoffset:0;stroke-opacity:0.713725;marker-end:url(#marker2658)"
         d="m 26.38882,29.427461 c 0,0 83.87234,-34.6275349 122.87308,32.923744"
         id="path882" />
      <path
         style="fill:none;stroke:#9999d2;stroke-width:1;stroke-linecap:butt;stroke-linejoin:miter;stroke-miterlimit:4;stroke-dasharray:1, 1;stroke-dashoffset:0;stroke-opacity:0.713725;marker-end:url(#marker2668)"
         d="m 92.108413,29.427461 c 0,0 16.415897,-7.71937 57.104667,32.969395"
         id="path884" />
      <path
         style="fill:none;stroke:#9999d4;stroke-width:1;stroke-linecap:butt;stroke-linejoin:miter;stroke-miterlimit:4;stroke-dasharray:1, 1;stroke-dashoffset:0;stroke-opacity:0.713725;marker-end:url(#marker1407)"
         d="m 26.38882,95.147047 c 0,0 45.066327,-99.9616828 122.82426,-32.750191"
         id="path886" />
      <path
         style="fill:#999999;fill-opacity:0.0227598;stroke:#9999d4;stroke-width:1;stroke-linecap:butt;stroke-linejoin:miter;stroke-miterlimit:4;stroke-dasharray:1, 1;stroke-dashoffset:0;stroke-opacity:0.713725;marker-end:url(#marker1373)"
         d="m 92.108413,95.147047 c 0,0 -12.332975,-72.574892 56.685217,-32.727222"
         id="path888" />
    </g>
    <g
       transform="translate(-3.0232255,5.6027093)"
       id="g1232">
      <rect
         y="-147.79059"
         x="130.45744"
         height="65.719589"
         width="65.719589"
         id="rect1194"
         style="fill:#999999;fill-opacity:0.0227598;stroke:#000000;stroke-width:0.264999;stroke-linejoin:bevel;stroke-opacity:1"
         transform="scale(1,-1)" />
      <g
         id="g1216">
        <path
           id="path1204"
           d="m 170.24898,82.150709 v 27.865451 h 25.88585"
           style="fill:none;stroke:#000000;stroke-width:0.265265px;stroke-linecap:butt;stroke-linejoin:miter;stroke-opacity:1" />
        <path
           id="path1206"
           d="m 170.18606,147.64646 v -27.17894 h 25.86569"
           style="fill:none;stroke:#000000;stroke-width:0.264583px;stroke-linecap:butt;stroke-linejoin:miter;stroke-opacity:1" />
        <path
           id="path1208"
           d="m 130.51609,120.60251 h 27.88857 v 27.22395"
           style="fill:none;stroke:#000000;stroke-width:0.264583px;stroke-linecap:butt;stroke-linejoin:miter;stroke-opacity:1" />
        <path
           id="path1210"
           d="m 158.02567,82.171475 v 28.156705 l -27.41128,0.12556"
           style="fill:none;stroke:#000000;stroke-width:0.264583px;stroke-linecap:butt;stroke-linejoin:miter;stroke-opacity:1" />
      </g>
    </g>
    <path
       transform="scale(0.26458333)"
       id="path1545"
       d="m 587.77728,527.75144 v -51.39151 h -52.78047 -52.78047 v -18.51991 -18.5199 l 24.05426,-0.16777 c 13.22984,-0.0923 31.49782,-0.16798 40.5955,-0.16822 9.09769,-2.5e-4 21.74038,-0.0757 28.09487,-0.1676 l 11.55362,-0.16715 v -53.37064 -53.37063 h 6.0439 c 5.68549,0 6.0528,0.028 6.19402,0.473 0.13326,0.41986 0.28414,0.44709 1.34284,0.24234 0.656,-0.12687 1.39005,-0.33972 1.63124,-0.47301 0.26587,-0.14692 6.20641,-0.24233 15.08915,-0.24233 h 14.65064 v 52.90674 52.90674 h 48.9924 48.9924 v 19.06663 19.06663 h -49.11867 -49.11867 v 51.64405 51.64405 h -21.71828 -21.71828 z m 24.62229,-96.72211 c 4.6845,-12.63953 8.8425,-23.8617 9.24,-24.93814 0.3975,-1.07645 0.64036,-1.95687 0.53968,-1.95651 -0.10068,2.5e-4 -3.42185,2.77752 -7.38039,6.17146 -4.50912,3.866 -7.22783,6.03519 -7.27899,5.80771 -0.0571,-0.25387 -0.44561,-0.36308 -1.29167,-0.36308 h -1.21003 l -5.90566,-6.92933 c -3.24811,-3.81112 -6.00414,-6.93628 -6.12452,-6.94479 -0.12037,-0.009 -0.16825,0.1834 -0.1064,0.42647 0.0618,0.24306 2.48347,12.06269 5.38139,26.26583 2.89792,14.20314 5.34778,25.73782 5.44413,25.63262 0.0964,-0.1052 4.00796,-10.53271 8.69246,-23.17224 z m -4.92431,-19.44544 v -1.64149 h -1.51523 -1.51523 v 1.49766 c 0,1.65454 0.0258,1.67622 2.08344,1.75094 l 0.94702,0.0344 z m 0.25253,-5.82043 v -1.65354 l -1.57836,0.0752 -1.57836,0.0752 -0.0752,1.57836 -0.0752,1.57836 h 1.65354 1.65355 z m 0,-5.79632 v -1.6415 h -1.51523 -1.51522 v 1.6415 1.6415 h 1.51522 1.51523 z m 0,-5.80838 c 0,-1.63967 -7.5e-4,-1.6415 -0.72604,-1.6415 -0.39933,0 -1.08118,0.071 -1.51523,0.15784 -0.77642,0.15528 -0.78918,0.18183 -0.78918,1.6415 v 1.48366 h 1.51522 1.51523 z m 0,-5.64002 c 0,-0.81022 -0.047,-1.52049 -0.10441,-1.57836 -0.0574,-0.0579 -0.7961,-0.0667 -1.6415,-0.0197 l -1.53708,0.0856 v 1.49279 1.4928 h 1.6415 1.64149 z m -0.25208,-5.9136 5.1e-4,-1.57836 -1.51569,0.0856 -1.51569,0.0856 v 1.4928 1.4928 h 1.51523 1.51523 l 5.1e-4,-1.57837 z m -0.25299,-5.74524 v -1.51523 h -1.51523 -1.51523 v 1.51523 1.51523 h 1.51523 1.51523 z m -0.97859,-4.29315 c 0.71903,0 0.72605,-0.0147 0.72605,-1.51523 v -1.51523 h -1.67582 -1.67583 l 0.1606,1.17167 c 0.0883,0.64442 0.16059,1.3973 0.16059,1.67307 0,0.42687 0.11729,0.47794 0.78918,0.34356 0.43405,-0.0868 1.11591,-0.15784 1.51523,-0.15784 z m 0.39624,-5.89946 c 0.0286,-0.0286 -0.015,-0.70171 -0.0969,-1.49572 l -0.149,-1.44365 h -1.20671 c -1.84294,0 -1.89113,0.0484 -1.79228,1.79993 l 0.0871,1.54288 1.55289,-0.17568 c 0.85409,-0.0966 1.57632,-0.19913 1.60496,-0.22776 z m -0.54673,-5.76673 c 0.0515,-0.0515 0.0252,-0.75773 -0.0586,-1.56931 l -0.1523,-1.47559 -1.51928,0.1588 c -0.8356,0.0873 -1.53412,0.18694 -1.55225,0.22134 -0.0181,0.0344 0.0125,0.73074 0.0679,1.54742 l 0.10092,1.48488 1.50991,-0.13691 c 0.83045,-0.0753 1.55208,-0.17909 1.60362,-0.23063 z m -1.2069,-5.64977 c 0.46734,-0.0977 0.5676,-0.28606 0.56476,-1.061 -0.002,-0.51821 -0.0749,-1.20898 -0.16216,-1.53503 -0.15023,-0.56116 -0.23435,-0.58347 -1.57491,-0.41757 -0.77891,0.0964 -1.45658,0.21413 -1.50594,0.26165 -0.0494,0.0475 -0.0126,0.75143 0.0818,1.56424 l 0.17152,1.47784 0.92836,-0.0857 c 0.5106,-0.0471 1.18405,-0.13912 1.49657,-0.20446 z m -0.28924,-5.78964 c 0.19026,-0.0572 0.21512,-0.47239 0.0782,-1.30546 -0.11043,-0.67186 -0.20756,-1.36753 -0.21584,-1.54593 -0.0113,-0.24326 -0.34659,-0.28278 -1.34088,-0.15803 -0.7292,0.0915 -1.42085,0.25293 -1.53699,0.35876 -0.11614,0.10583 -0.13119,0.83253 -0.0334,1.61488 l 0.17773,1.42247 1.29613,-0.1514 c 0.71287,-0.0833 1.42167,-0.18915 1.5751,-0.23529 z m -1.58032,-5.59727 0.97149,-0.16051 -0.17598,-1.41508 c -0.0968,-0.77829 -0.21658,-1.48158 -0.2662,-1.56287 -0.0496,-0.0813 -0.78233,-0.0363 -1.62825,0.0999 -1.71199,0.27571 -1.58738,0.002 -1.11518,2.44701 0.15868,0.82153 0.41216,0.88926 2.21412,0.59155 z m -1.3338,-5.66945 1.30406,-0.27967 -0.17078,-1.29869 c -0.0939,-0.71428 -0.2637,-1.39294 -0.37728,-1.50814 -0.22065,-0.22381 -2.25981,0.006 -2.75212,0.31057 -0.22435,0.13866 -0.22602,0.5281 -0.007,1.61909 0.15867,0.79008 0.38086,1.43651 0.49374,1.43651 0.11288,0 0.79207,-0.12585 1.5093,-0.27967 z"
       style="fill:#993fd3;fill-opacity:0.750271;stroke:#993fd3;stroke-width:0.730173;stroke-linejoin:bevel;stroke-miterlimit:4;stroke-dasharray:0.730173, 0.730173;stroke-dashoffset:0;stroke-opacity:1" />
    <circle
       r="4.1048799"
       cy="89.256516"
       cx="128.3586"
       id="path1910"
       style="fill:#9797d2;fill-opacity:0.917647;stroke:#000000;stroke-width:0.110142;stroke-linejoin:bevel;stroke-miterlimit:4;stroke-dasharray:none;stroke-dashoffset:0;stroke-opacity:1" />
    <circle
       style="fill:#993fd3;fill-opacity:0.673224;stroke:#000000;stroke-width:0.110142;stroke-linejoin:bevel;stroke-miterlimit:4;stroke-dasharray:none;stroke-dashoffset:0;stroke-opacity:1"
       id="circle1912"
       cx="128.3586"
       cy="115.68117"
       r="4.1048799" />
    <circle
       r="4.1048799"
       cy="115.68117"
       cx="152.59715"
       id="circle1914"
       style="fill:#993fd3;fill-opacity:0.673224;stroke:#000000;stroke-width:0.110142;stroke-linejoin:bevel;stroke-miterlimit:4;stroke-dasharray:none;stroke-dashoffset:0;stroke-opacity:1" />
    <circle
       style="fill:#993fd3;fill-opacity:0.673224;stroke:#000000;stroke-width:0.110142;stroke-linejoin:bevel;stroke-miterlimit:4;stroke-dasharray:none;stroke-dashoffset:0;stroke-opacity:1"
       id="circle1916"
       cx="152.59715"
       cy="88.827316"
       r="4.1048799" />
    <circle
       r="4.1048799"
       cy="151.61343"
       cx="152.59715"
       id="circle1918"
       style="fill:#993fd3;fill-opacity:0.673224;stroke:#000000;stroke-width:0.110142;stroke-linejoin:bevel;stroke-miterlimit:4;stroke-dasharray:none;stroke-dashoffset:0;stroke-opacity:1" />
    <circle
       r="4.1048799"
       cy="128.49078"
       cx="127.64431"
       id="circle1922"
       style="fill:#993fd3;fill-opacity:0.673224;stroke:#000000;stroke-width:0.110142;stroke-linejoin:bevel;stroke-miterlimit:4;stroke-dasharray:none;stroke-dashoffset:0;stroke-opacity:1" />
    <circle
       style="fill:#993fd3;fill-opacity:0.673224;stroke:#000000;stroke-width:0.110142;stroke-linejoin:bevel;stroke-miterlimit:4;stroke-dasharray:none;stroke-dashoffset:0;stroke-opacity:1"
       id="circle1924"
       cx="154.33699"
       cy="128.49078"
       r="4.1048799" />
    <circle
       r="4.1048799"
       cy="128.49078"
       cx="169.74442"
       id="circle1926"
       style="fill:#993fd3;fill-opacity:0.673224;stroke:#000000;stroke-width:0.110142;stroke-linejoin:bevel;stroke-miterlimit:4;stroke-dasharray:none;stroke-dashoffset:0;stroke-opacity:1" />
    <circle
       style="fill:#993fd3;fill-opacity:0.673224;stroke:#000000;stroke-width:0.110142;stroke-linejoin:bevel;stroke-miterlimit:4;stroke-dasharray:none;stroke-dashoffset:0;stroke-opacity:1"
       id="circle1928"
       cx="169.74442"
       cy="153.15257"
       r="4.1048799" />
    <circle
       style="fill:#993fd3;fill-opacity:0.673224;stroke:#000000;stroke-width:0.110142;stroke-linejoin:bevel;stroke-miterlimit:4;stroke-dasharray:none;stroke-dashoffset:0;stroke-opacity:1"
       id="circle1932"
       cx="192.9834"
       cy="128.07158"
       r="4.1048799" />
    <circle
       style="fill:#993fd3;fill-opacity:0.673224;stroke:#000000;stroke-width:0.110142;stroke-linejoin:bevel;stroke-miterlimit:4;stroke-dasharray:none;stroke-dashoffset:0;stroke-opacity:1"
       id="circle1936"
       cx="168.10913"
       cy="88.481445"
       r="4.1048799" />
    <circle
       r="4.1048799"
       cy="113.96912"
       cx="168.10913"
       id="circle1938"
       style="fill:#993fd3;fill-opacity:0.673224;stroke:#000000;stroke-width:0.110142;stroke-linejoin:bevel;stroke-miterlimit:4;stroke-dasharray:none;stroke-dashoffset:0;stroke-opacity:1" />
    <circle
       style="fill:#993fd3;fill-opacity:0.673224;stroke:#000000;stroke-width:0.110142;stroke-linejoin:bevel;stroke-miterlimit:4;stroke-dasharray:none;stroke-dashoffset:0;stroke-opacity:1"
       id="circle1940"
       cx="192.95926"
       cy="113.96912"
       r="4.1048799" />
    <path
       id="path2730"
       d="M 159.19537,89.480608 C 157.5961,72.702266 130.73931,62.396856 130.73931,62.396856 c 0.0488,-0.04565 0.0976,-0.0913 0.0488,-0.04565"
       style="fill:none;stroke:#993fd3;stroke-width:0.665;stroke-linecap:butt;stroke-linejoin:miter;stroke-miterlimit:4;stroke-dasharray:0.665, 0.665;stroke-dashoffset:0;stroke-opacity:1;marker-start:url(#Arrow1Lstart)" />
    <circle
       style="fill:#9797d2;fill-opacity:0.917647;stroke:#000000;stroke-width:0.110142;stroke-linejoin:bevel;stroke-miterlimit:4;stroke-dasharray:none;stroke-dashoffset:0;stroke-opacity:1"
       id="circle2768"
       cx="128.3586"
       cy="151.13858"
       r="4.1048799" />
    <circle
       r="4.1048799"
       cy="151.93626"
       cx="191.48973"
       id="circle2770"
       style="fill:#9797d2;fill-opacity:0.917647;stroke:#000000;stroke-width:0.110142;stroke-linejoin:bevel;stroke-miterlimit:4;stroke-dasharray:none;stroke-dashoffset:0;stroke-opacity:1" />
    <circle
       style="fill:#9797d2;fill-opacity:0.917647;stroke:#000000;stroke-width:0.110142;stroke-linejoin:bevel;stroke-miterlimit:4;stroke-dasharray:none;stroke-dashoffset:0;stroke-opacity:1"
       id="circle2772"
       cx="192.27069"
       cy="88.941895"
       r="4.1048799" />
    <path
       transform="scale(0.26458333)"
       id="path2846"
       d="m 603.4673,453.11125 c -7.1e-4,-0.0614 -0.0254,-0.202 -0.0551,-0.3125 -0.0438,-0.16344 -0.0175,-0.20089 0.14117,-0.20089 0.14387,0 0.18283,-0.041 0.14858,-0.15625 -0.0255,-0.0859 -0.0728,-0.26674 -0.10498,-0.40178 -0.0375,-0.15723 -0.11741,-0.24554 -0.22219,-0.24554 -0.18612,0 -0.21579,-0.0379 -0.29744,-0.37946 -0.05,-0.20939 -0.0307,-0.24554 0.13152,-0.24554 0.17137,0 0.184,-0.0331 0.12752,-0.33414 -0.0815,-0.43457 -0.12344,-0.49348 -0.31539,-0.44328 -0.11993,0.0314 -0.17278,-0.0248 -0.21314,-0.2266 -0.0793,-0.39661 -0.0707,-0.42455 0.13093,-0.42455 0.13396,0 0.17186,-0.0429 0.13817,-0.15625 -0.0255,-0.0859 -0.0722,-0.26444 -0.1037,-0.39668 -0.0369,-0.15488 -0.12577,-0.25018 -0.24978,-0.26785 -0.25067,-0.0357 -0.34264,-0.60779 -0.0977,-0.60779 0.12121,0 0.13981,-0.0547 0.0949,-0.27902 -0.0307,-0.15346 -0.0558,-0.33895 -0.0558,-0.4122 0,-0.0939 -0.0658,-0.12059 -0.22322,-0.0905 -0.16311,0.0312 -0.22354,0.004 -0.22443,-0.1012 -7.1e-4,-0.0791 -0.0254,-0.23427 -0.0551,-0.34476 -0.0435,-0.16243 -0.0173,-0.20089 0.13685,-0.20089 0.16175,0 0.18239,-0.0373 0.13605,-0.24554 -0.11119,-0.49961 -0.14285,-0.55804 -0.30237,-0.55804 -0.0897,0 -0.18739,-0.0635 -0.2172,-0.14123 -0.0962,-0.25063 -0.0578,-0.48377 0.0797,-0.48377 0.14692,0 0.16234,-0.10351 0.0781,-0.52455 -0.0428,-0.2138 -0.103,-0.27902 -0.25772,-0.27902 -0.2789,0 -0.37764,-0.53513 -0.11159,-0.6047 0.1455,-0.038 0.16303,-0.0954 0.11212,-0.36684 -0.0791,-0.42154 -0.12215,-0.48081 -0.31307,-0.43088 -0.11992,0.0314 -0.17278,-0.0248 -0.21313,-0.2266 -0.0793,-0.39661 -0.0707,-0.42455 0.13092,-0.42455 0.13242,0 0.17262,-0.0442 0.14223,-0.15625 -0.0233,-0.0859 -0.067,-0.26674 -0.097,-0.40178 -0.0358,-0.16107 -0.11221,-0.24554 -0.22196,-0.24554 -0.092,0 -0.19171,-0.0635 -0.22152,-0.14123 -0.0962,-0.25063 -0.0577,-0.48377 0.0797,-0.48377 0.14691,0 0.16233,-0.10351 0.0781,-0.52455 -0.0437,-0.21852 -0.10178,-0.27902 -0.26786,-0.27902 -0.14951,0 -0.21205,-0.0505 -0.21205,-0.17127 0,-0.0942 -0.0244,-0.23482 -0.0542,-0.3125 -0.0391,-0.10183 -5.8e-4,-0.14123 0.13797,-0.14123 0.17328,0 0.18623,-0.0329 0.13175,-0.33482 -0.0774,-0.42883 -0.1029,-0.46875 -0.29967,-0.46875 -0.0935,0 -0.18584,-0.0856 -0.21673,-0.2009 -0.09,-0.33594 -0.0643,-0.4241 0.124,-0.4241 0.15038,0 0.17121,-0.0407 0.12563,-0.24554 -0.11118,-0.49961 -0.14284,-0.55803 -0.30237,-0.55803 -0.0897,0 -0.18739,-0.0636 -0.21719,-0.14124 -0.0962,-0.25063 -0.0578,-0.48376 0.0797,-0.48376 0.14692,0 0.16233,-0.10352 0.0781,-0.52456 -0.0437,-0.21851 -0.10178,-0.27902 -0.26785,-0.27902 -0.14952,0 -0.21206,-0.0505 -0.21206,-0.17126 0,-0.0942 -0.0244,-0.23483 -0.0542,-0.3125 -0.0394,-0.10279 5e-5,-0.14124 0.14509,-0.14124 0.17558,0 0.19264,-0.0332 0.14348,-0.27901 -0.0307,-0.15346 -0.0558,-0.33427 -0.0558,-0.40179 0,-0.0714 -0.0934,-0.12277 -0.22322,-0.12277 -0.12277,0 -0.22376,-0.0502 -0.22443,-0.1116 -6.7e-4,-0.0614 -0.0254,-0.20201 -0.0551,-0.3125 -0.0435,-0.16243 -0.0173,-0.2009 0.13685,-0.2009 0.16174,0 0.18239,-0.0373 0.13604,-0.24553 -0.11118,-0.49961 -0.14284,-0.55804 -0.30236,-0.55804 -0.0897,0 -0.18739,-0.0636 -0.2172,-0.14123 -0.0962,-0.25063 -0.0577,-0.48377 0.0797,-0.48377 0.2752,0 0.12127,-0.77978 -0.16204,-0.82087 -0.1319,-0.0191 -0.2062,-0.11446 -0.24748,-0.31752 -0.0509,-0.25027 -0.0344,-0.29018 0.11946,-0.29018 0.15225,0 0.17026,-0.041 0.12265,-0.27902 -0.0307,-0.15346 -0.0558,-0.33426 -0.0558,-0.40178 0,-0.0714 -0.0933,-0.12277 -0.22322,-0.12277 -0.12276,0 -0.22376,-0.0502 -0.22443,-0.11161 -6.7e-4,-0.0614 -0.0254,-0.20201 -0.0551,-0.3125 -0.0437,-0.16299 -0.0174,-0.20089 0.1392,-0.20089 0.17427,0 0.18716,-0.0325 0.13261,-0.33482 -0.0774,-0.42883 -0.1029,-0.46875 -0.29967,-0.46875 -0.0934,0 -0.18584,-0.0856 -0.21673,-0.2009 -0.0904,-0.33724 -0.0641,-0.4241 0.12832,-0.4241 0.13395,0 0.17185,-0.0429 0.13816,-0.15625 -0.0255,-0.0859 -0.0722,-0.26444 -0.1037,-0.39668 -0.0364,-0.15296 -0.1261,-0.25041 -0.24647,-0.26786 -0.26255,-0.0381 -0.39368,-0.60778 -0.13988,-0.60778 0.17977,0 0.19865,-0.0888 0.11149,-0.52456 -0.0437,-0.21851 -0.10178,-0.27902 -0.26785,-0.27902 -0.14952,0 -0.21206,-0.0505 -0.21206,-0.17126 0,-0.0942 -0.0244,-0.23483 -0.0542,-0.3125 -0.0394,-0.10279 5e-5,-0.14124 0.14509,-0.14124 0.17558,0 0.19264,-0.0332 0.14348,-0.27901 -0.0307,-0.15346 -0.0558,-0.33427 -0.0558,-0.40179 0,-0.0714 -0.0933,-0.12277 -0.22321,-0.12277 -0.12277,0 -0.22376,-0.0502 -0.22443,-0.1116 -6.7e-4,-0.0614 -0.0254,-0.20201 -0.0551,-0.3125 -0.0435,-0.16243 -0.0173,-0.2009 0.13685,-0.2009 0.16174,0 0.18239,-0.0373 0.13604,-0.24553 -0.11118,-0.49961 -0.14284,-0.55804 -0.30236,-0.55804 -0.0897,0 -0.18739,-0.0636 -0.2172,-0.14123 -0.0962,-0.25063 -0.0578,-0.48377 0.0797,-0.48377 0.2752,0 0.12127,-0.77978 -0.16204,-0.82087 -0.26196,-0.038 -0.39243,-0.6077 -0.13918,-0.6077 0.17977,0 0.19864,-0.0888 0.11149,-0.52455 -0.0437,-0.21852 -0.10179,-0.27902 -0.26786,-0.27902 -0.14951,0 -0.21205,-0.0505 -0.21205,-0.17127 0,-0.0942 -0.0244,-0.23482 -0.0542,-0.3125 -0.0391,-0.10183 -5.7e-4,-0.14123 0.13798,-0.14123 0.17328,0 0.18623,-0.0329 0.13175,-0.33482 -0.0774,-0.42883 -0.1029,-0.46875 -0.29967,-0.46875 -0.0934,0 -0.18584,-0.0856 -0.21673,-0.2009 -0.0871,-0.32495 -0.0665,-0.40061 0.12267,-0.45007 0.0984,-0.0257 0.16204,-0.10073 0.14138,-0.16666 -0.0206,-0.0659 -0.0618,-0.23036 -0.0914,-0.36541 -0.0354,-0.16137 -0.11116,-0.24553 -0.22112,-0.24553 -0.092,0 -0.19171,-0.0636 -0.22152,-0.14124 -0.0962,-0.25063 -0.0577,-0.48376 0.0797,-0.48376 0.27519,0 0.12126,-0.77979 -0.16205,-0.82088 -0.13189,-0.0191 -0.2062,-0.11446 -0.24748,-0.31752 -0.0509,-0.25027 -0.0344,-0.29018 0.11946,-0.29018 0.15226,0 0.17027,-0.041 0.12266,-0.27901 -0.0307,-0.15346 -0.0558,-0.33427 -0.0558,-0.40179 0,-0.0714 -0.0933,-0.12277 -0.22321,-0.12277 -0.12277,0 -0.22376,-0.0502 -0.22444,-0.1116 -6.6e-4,-0.0614 -0.024,-0.19648 -0.0518,-0.30021 -0.0378,-0.14076 -0.003,-0.20115 0.13872,-0.23811 0.15567,-0.0407 0.17928,-0.0945 0.13282,-0.30247 -0.11534,-0.51637 -0.13379,-0.54754 -0.29857,-0.50445 -0.11482,0.03 -0.17968,-0.019 -0.21889,-0.16542 -0.0885,-0.33067 -0.0694,-0.40754 0.11331,-0.45532 0.15035,-0.0393 0.16161,-0.0874 0.0914,-0.38988 -0.044,-0.18977 -0.081,-0.37141 -0.0822,-0.40364 -10e-4,-0.0322 -0.0803,-0.0382 -0.17578,-0.0132 -0.13732,0.0359 -0.19015,-0.0172 -0.2525,-0.25389 -0.0674,-0.25569 -0.0535,-0.30924 0.0953,-0.36744 0.1399,-0.0547 0.16322,-0.12278 0.11858,-0.34598 -0.0306,-0.15282 -0.0556,-0.33386 -0.0556,-0.40232 0,-0.0882 -0.0651,-0.10814 -0.22322,-0.0684 -0.1831,0.046 -0.22321,0.0235 -0.22321,-0.12492 0,-0.0995 -0.0224,-0.23922 -0.0497,-0.31045 -0.0313,-0.0816 0.0202,-0.14778 0.13928,-0.17891 0.16575,-0.0433 0.18139,-0.0914 0.12726,-0.3912 -0.0807,-0.44678 -0.0959,-0.46727 -0.30622,-0.41227 -0.11388,0.0298 -0.17892,0.003 -0.1797,-0.0753 -6.7e-4,-0.0671 -0.024,-0.20689 -0.0518,-0.31061 -0.0371,-0.13835 -0.003,-0.20105 0.12805,-0.23532 0.15847,-0.0415 0.16962,-0.0857 0.0986,-0.39176 -0.044,-0.18978 -0.081,-0.37391 -0.0822,-0.4092 -10e-4,-0.0353 -0.0665,-0.0395 -0.14507,-0.009 -0.28159,0.10805 -0.41998,-0.44667 -0.15904,-0.63747 0.11282,-0.0825 0.13074,-0.18677 0.0818,-0.47622 -0.0518,-0.30672 -0.0949,-0.36716 -0.25003,-0.35065 -0.14485,0.0154 -0.2011,-0.0443 -0.24768,-0.26314 -0.0496,-0.23294 -0.03,-0.29103 0.11092,-0.32786 0.14577,-0.0381 0.16203,-0.0955 0.10948,-0.38655 -0.0807,-0.44678 -0.0959,-0.46727 -0.30621,-0.41227 -0.11389,0.0298 -0.17893,0.003 -0.17971,-0.0754 -6.7e-4,-0.0671 -0.0244,-0.20855 -0.0528,-0.31431 -0.0383,-0.14282 -0.004,-0.20754 0.13532,-0.25161 0.14876,-0.0472 0.17607,-0.1082 0.1338,-0.29878 -0.11655,-0.52539 -0.13744,-0.56031 -0.30372,-0.50753 -0.12778,0.0406 -0.17683,-0.009 -0.22451,-0.22587 -0.0905,-0.41193 0.0165,-0.42985 0.32586,-0.0546 0.25678,0.31152 0.2865,0.32458 0.43427,0.19085 0.14735,-0.13336 0.1712,-0.12575 0.33563,0.10705 0.13744,0.19459 0.15513,0.28481 0.0792,0.40361 -0.13583,0.2124 0.35229,0.74689 0.5399,0.59119 0.0935,-0.0776 0.17212,-0.0531 0.34187,0.10635 0.19319,0.1815 0.2047,0.22454 0.093,0.34793 -0.11165,0.1234 -0.097,0.1781 0.11871,0.44235 0.21543,0.26393 0.26993,0.28879 0.437,0.19938 0.16419,-0.0879 0.2115,-0.0707 0.33841,0.12302 0.12066,0.18414 0.12687,0.25008 0.0341,0.36188 -0.0947,0.11415 -0.0719,0.18005 0.13815,0.39933 0.17561,0.1833 0.30853,0.24833 0.44008,0.21531 0.24612,-0.0618 0.67828,0.35377 0.45645,0.4389 -0.19393,0.0744 -0.17415,0.18168 0.0917,0.49767 0.18169,0.21594 0.26417,0.25593 0.38946,0.18888 0.12267,-0.0657 0.20763,-0.0321 0.37217,0.14693 0.14646,0.15937 0.17827,0.24449 0.10161,0.27185 -0.16746,0.0598 -0.13497,0.21817 0.10582,0.51603 0.18561,0.22959 0.24125,0.25286 0.38947,0.1629 0.14807,-0.0899 0.19982,-0.0686 0.35995,0.14801 0.15492,0.20954 0.16462,0.26156 0.0565,0.30304 -0.182,0.0698 -0.16103,0.14544 0.13702,0.49401 0.22847,0.2672 0.27837,0.28937 0.40839,0.18147 0.12875,-0.10685 0.17013,-0.0957 0.31645,0.085 0.18605,0.22976 0.21557,0.36668 0.0791,0.36668 -0.15593,0 -0.0913,0.21451 0.14598,0.48446 0.19275,0.21929 0.25606,0.24474 0.39422,0.15846 0.13788,-0.0861 0.19527,-0.0638 0.35364,0.13754 0.17875,0.22725 0.1805,0.24659 0.0321,0.35513 -0.14546,0.10636 -0.1349,0.13759 0.14377,0.4251 0.23407,0.2415 0.3276,0.28805 0.42174,0.20992 0.0929,-0.0771 0.17211,-0.0523 0.34143,0.10672 0.20199,0.18977 0.20873,0.22008 0.0804,0.36185 -0.12851,0.14201 -0.1183,0.17907 0.12402,0.45027 0.21487,0.24048 0.28816,0.27551 0.39351,0.18808 0.10439,-0.0866 0.16939,-0.0649 0.33565,0.11204 0.1707,0.1817 0.18675,0.2429 0.0932,0.35558 -0.20837,0.25107 0.32099,0.83131 0.54973,0.60257 0.0656,-0.0656 0.15572,-0.0221 0.29944,0.1444 0.17462,0.20234 0.18744,0.25841 0.0851,0.37216 -0.10263,0.11408 -0.0825,0.18024 0.13547,0.44643 0.20521,0.25056 0.27828,0.29038 0.36861,0.20089 0.15993,-0.15842 0.21541,-0.14148 0.38516,0.11759 0.12337,0.18828 0.12979,0.25375 0.036,0.3668 -0.16097,0.19396 0.12062,0.38615 0.56576,0.38615 0.28055,0 0.34008,-0.0313 0.34008,-0.17857 0,-0.14881 0.0595,-0.17857 0.35714,-0.17857 0.29762,0 0.35714,0.0298 0.35714,0.17857 0,0.14881 0.0595,0.17857 0.35714,0.17857 0.25794,0 0.35715,-0.0372 0.35715,-0.13393 0,-0.2148 0.21182,-0.15556 0.51954,0.14528 l 0.28558,0.27921 0.36635,-0.24244 c 0.2688,-0.17788 0.33992,-0.26887 0.26708,-0.34171 -0.14547,-0.14547 -0.12468,-0.20493 0.12992,-0.37176 0.17975,-0.11777 0.25675,-0.1273 0.35693,-0.0442 0.19312,0.16027 0.8099,-0.31992 0.6533,-0.50861 -0.0878,-0.10577 -0.0713,-0.16828 0.0859,-0.32546 0.16719,-0.16719 0.22011,-0.17859 0.37627,-0.0811 0.15586,0.0973 0.21855,0.0844 0.44048,-0.0908 0.27465,-0.21678 0.33183,-0.37787 0.16968,-0.47808 -0.0626,-0.0387 -0.005,-0.13626 0.15625,-0.26566 0.21632,-0.17333 0.27563,-0.1862 0.38915,-0.0844 0.11389,0.10212 0.18013,0.0824 0.4428,-0.13204 0.26894,-0.21951 0.29327,-0.27092 0.18817,-0.39756 -0.0664,-0.08 -0.10494,-0.15494 -0.0857,-0.16656 0.0193,-0.0116 0.12469,-0.0965 0.23426,-0.18873 0.16028,-0.13486 0.22494,-0.14628 0.33081,-0.0584 0.10695,0.0888 0.19132,0.0636 0.45062,-0.13412 0.28988,-0.2211 0.30663,-0.25703 0.18339,-0.3932 -0.12289,-0.1358 -0.11173,-0.16753 0.11888,-0.33803 0.21426,-0.15842 0.27414,-0.1691 0.37865,-0.0676 0.10468,0.10166 0.17252,0.0797 0.43268,-0.14003 0.24076,-0.20336 0.28489,-0.28425 0.20089,-0.36824 -0.15432,-0.15433 -0.1361,-0.21131 0.12155,-0.38013 0.17758,-0.11636 0.25744,-0.12673 0.35465,-0.0461 0.20752,0.17223 0.67243,-0.24675 0.61276,-0.55222 -0.061,-0.31213 0.25474,-0.56515 0.50789,-0.40705 0.13703,0.0856 0.20941,0.0597 0.43372,-0.15523 0.21198,-0.20309 0.24742,-0.28425 0.16662,-0.38161 -0.0799,-0.0963 -0.0596,-0.16669 0.0919,-0.3182 0.16329,-0.16329 0.22237,-0.17718 0.36767,-0.0864 0.14635,0.0914 0.21518,0.0727 0.44518,-0.12082 0.201,-0.16913 0.25915,-0.2804 0.22261,-0.42599 -0.0678,-0.27009 0.25588,-0.575 0.44434,-0.41859 0.23133,0.19199 0.83204,-0.27877 0.67662,-0.53025 -0.0559,-0.0905 -0.0224,-0.19253 0.10924,-0.33265 0.1675,-0.17829 0.20677,-0.18687 0.33295,-0.0727 0.12623,0.11424 0.17769,0.10234 0.43772,-0.10116 0.22337,-0.17481 0.28267,-0.27843 0.24508,-0.4282 -0.0638,-0.254 0.33605,-0.68184 0.4237,-0.45342 0.0744,0.19392 0.18168,0.17415 0.49767,-0.0917 0.21594,-0.1817 0.25593,-0.26417 0.18888,-0.38946 -0.0654,-0.1222 -0.0327,-0.20814 0.14128,-0.37161 0.21026,-0.19753 0.23263,-0.20145 0.31451,-0.0551 0.0836,0.14938 0.10155,0.14959 0.3478,0.004 0.32297,-0.19078 0.38299,-0.13741 0.2558,0.22746 -0.0764,0.21921 -0.13777,0.27309 -0.26499,0.23272 -0.12812,-0.0407 -0.19655,0.0217 -0.30274,0.27584 -0.17113,0.40957 -0.17164,0.48514 -0.003,0.48514 0.15637,0 0.17396,0.2048 0.0392,0.45659 -0.0625,0.11681 -0.15039,0.15932 -0.25843,0.12503 -0.13113,-0.0416 -0.1906,0.027 -0.29883,0.3446 -0.12715,0.37318 -0.12539,0.39909 0.0299,0.43969 0.14453,0.0378 0.15326,0.0813 0.0705,0.351 -0.0778,0.25352 -0.1303,0.30101 -0.29739,0.26907 -0.16872,-0.0323 -0.22159,0.0178 -0.31377,0.29713 -0.096,0.29071 -0.0913,0.35023 0.0347,0.44232 0.21717,0.1588 0.0235,0.69725 -0.2227,0.61912 -0.13363,-0.0424 -0.19927,0.0144 -0.30275,0.26207 -0.1666,0.39871 -0.16623,0.50052 0.002,0.50052 0.15637,0 0.17396,0.20481 0.0392,0.45659 -0.0624,0.11664 -0.15044,0.15931 -0.25811,0.12514 -0.12116,-0.0384 -0.18661,0.0124 -0.25329,0.1966 -0.0494,0.13665 -0.11701,0.31514 -0.15013,0.39664 -0.0414,0.10174 -0.005,0.16567 0.11549,0.20396 0.15416,0.0489 0.16462,0.092 0.0852,0.35081 -0.074,0.24106 -0.12767,0.28794 -0.29346,0.25625 -0.16872,-0.0323 -0.22159,0.0178 -0.31377,0.29712 -0.0959,0.29072 -0.0913,0.35023 0.0347,0.44233 0.21717,0.15879 0.0235,0.69725 -0.2227,0.61911 -0.13363,-0.0424 -0.19927,0.0144 -0.30275,0.26207 -0.16659,0.39871 -0.16623,0.50053 0.002,0.50053 0.15638,0 0.17396,0.2048 0.0392,0.45659 -0.0624,0.11663 -0.15044,0.15931 -0.25811,0.12513 -0.12116,-0.0385 -0.18661,0.0124 -0.25328,0.19661 -0.0494,0.13665 -0.11701,0.31514 -0.15014,0.39664 -0.0416,0.10221 -0.005,0.1658 0.11872,0.20498 0.1558,0.0495 0.16706,0.0909 0.087,0.32057 -0.0663,0.19015 -0.14987,0.26376 -0.2995,0.26376 -0.15984,0 -0.2324,0.0753 -0.3156,0.32737 -0.0928,0.28121 -0.0875,0.34237 0.0375,0.43378 0.21716,0.1588 0.0235,0.69725 -0.22271,0.61911 -0.13362,-0.0424 -0.19927,0.0144 -0.30275,0.26207 -0.16659,0.39872 -0.16622,0.50053 0.002,0.50053 0.15717,0 0.16626,0.0819 0.0446,0.40197 -0.0663,0.1744 -0.13262,0.22129 -0.25712,0.18177 -0.13355,-0.0424 -0.19826,0.023 -0.31732,0.32054 -0.12102,0.30246 -0.12733,0.38788 -0.0331,0.44767 0.0641,0.0406 0.14454,0.0745 0.17882,0.0753 0.0343,7.2e-4 0.0203,0.12191 -0.0311,0.26923 -0.0676,0.19402 -0.15059,0.26786 -0.30093,0.26786 -0.15983,0 -0.2324,0.0753 -0.3156,0.32736 -0.0928,0.28121 -0.0875,0.34238 0.0375,0.43378 0.12046,0.0881 0.12871,0.15464 0.0479,0.38647 -0.0796,0.22842 -0.13429,0.27085 -0.29643,0.23016 -0.16962,-0.0426 -0.21422,0.002 -0.30392,0.30099 -0.13357,0.44579 -0.13243,0.46409 0.0288,0.46409 0.15718,0 0.16626,0.0819 0.0446,0.40197 -0.0663,0.17441 -0.13262,0.22129 -0.25712,0.18178 -0.13355,-0.0424 -0.19826,0.023 -0.31732,0.32053 -0.12102,0.30247 -0.12733,0.38788 -0.0331,0.44767 0.0641,0.0406 0.14314,0.0745 0.17571,0.0753 0.0326,7.1e-4 0.0137,0.1219 -0.0419,0.26922 -0.0702,0.18598 -0.16124,0.26786 -0.29782,0.26786 -0.27671,0 -0.48745,0.60014 -0.26727,0.76114 0.12047,0.0881 0.12871,0.15464 0.0479,0.38647 -0.0796,0.22842 -0.13428,0.27086 -0.29643,0.23016 -0.16962,-0.0426 -0.21422,0.002 -0.30392,0.30099 -0.13356,0.4458 -0.13243,0.4641 0.0288,0.4641 0.15718,0 0.16626,0.0819 0.0446,0.40196 -0.0663,0.17441 -0.13263,0.22129 -0.25712,0.18178 -0.13356,-0.0424 -0.19826,0.023 -0.31732,0.32053 -0.12103,0.30247 -0.12733,0.38788 -0.0331,0.44767 0.0641,0.0406 0.14314,0.0745 0.1757,0.0753 0.0326,7.1e-4 0.0137,0.1219 -0.0419,0.26922 -0.0696,0.18447 -0.16153,0.26786 -0.2952,0.26786 -0.14088,0 -0.23091,0.0918 -0.32841,0.33482 -0.12211,0.30439 -0.12095,0.34211 0.0128,0.41496 0.0809,0.0441 0.15732,0.0878 0.16982,0.0971 0.0125,0.009 -0.0215,0.14385 -0.0755,0.29889 -0.0789,0.22629 -0.13619,0.27249 -0.29058,0.23429 -0.17108,-0.0423 -0.21943,0.0296 -0.43785,0.65131 -0.28236,0.8037 -0.29594,0.91504 -0.11161,0.91504 0.15996,0 0.15899,-0.009 0.0361,0.34337 -0.0799,0.22907 -0.13444,0.27155 -0.29665,0.23083 -0.17089,-0.0429 -0.2144,0.002 -0.30993,0.32104 -0.0967,0.32268 -0.0923,0.38474 0.0341,0.47711 0.21159,0.15471 0.028,0.63157 -0.21831,0.56715 -0.13401,-0.035 -0.20267,0.0338 -0.3158,0.31653 -0.11722,0.29296 -0.12253,0.37529 -0.0281,0.4352 0.0641,0.0406 0.14469,0.0745 0.17915,0.0753 0.0345,7.1e-4 0.007,0.13195 -0.06,0.29155 -0.0874,0.20678 -0.17283,0.28268 -0.29715,0.26411 -0.12933,-0.0193 -0.20956,0.0615 -0.31014,0.3125 -0.1458,0.36381 -0.12873,0.47249 0.0742,0.47249 0.15415,0 0.1534,-0.008 0.0308,0.34337 -0.0799,0.22907 -0.13445,0.27155 -0.29666,0.23083 -0.17089,-0.0429 -0.2144,0.002 -0.30993,0.32104 -0.0967,0.32269 -0.0923,0.38474 0.0341,0.47711 0.21682,0.15854 0.0308,0.61408 -0.23492,0.57524 -0.1519,-0.0222 -0.21604,0.0434 -0.31229,0.31956 -0.10724,0.30764 -0.10439,0.35975 0.0248,0.45422 0.21948,0.16049 0.0471,0.62229 -0.2332,0.62491 -0.15928,10e-4 -0.23458,0.0812 -0.32639,0.34554 -0.11187,0.32207 -0.10795,0.3466 0.0626,0.3912 0.12585,0.0329 0.16354,0.0922 0.12217,0.19211 -0.0329,0.0795 -0.0799,0.21444 -0.10453,0.29991 -0.0314,0.10919 -0.10324,0.1407 -0.24158,0.10598 -0.16714,-0.0419 -0.21503,0.006 -0.31714,0.31499 -0.10808,0.3275 -0.10453,0.37591 0.0351,0.47801 0.1338,0.0978 0.13988,0.14758 0.0438,0.35846 -0.0744,0.16334 -0.16887,0.23645 -0.28366,0.21959 -0.12635,-0.0186 -0.20822,0.0648 -0.30806,0.31379 -0.12607,0.31435 -0.12425,0.34767 0.025,0.45678 0.14066,0.10285 0.14687,0.15173 0.0492,0.38744 -0.0817,0.19724 -0.15658,0.258 -0.27865,0.22608 -0.12649,-0.0331 -0.20041,0.0365 -0.30525,0.28744 -0.14667,0.35101 -0.12127,0.49069 0.0892,0.49069 0.1104,0 0.11178,0.0417 0.01,0.29018 -0.0863,0.20978 -0.16883,0.28313 -0.29799,0.26474 -0.13575,-0.0193 -0.21269,0.0612 -0.32039,0.33541 -0.13395,0.34099 -0.13257,0.36574 0.025,0.45009 0.14285,0.0765 0.15306,0.12859 0.0712,0.36344 -0.0776,0.22261 -0.13291,0.26482 -0.29404,0.22438 -0.17003,-0.0427 -0.21406,0.002 -0.30737,0.3137 -0.0938,0.31308 -0.0891,0.378 0.0338,0.46791 0.11701,0.0855 0.1254,0.15423 0.0465,0.38053 -0.0767,0.22011 -0.13722,0.2683 -0.29816,0.23753 -0.16878,-0.0323 -0.21927,0.0175 -0.30772,0.30335 -0.0902,0.29145 -0.0847,0.3576 0.0368,0.4479 0.21517,0.15985 0.0444,0.60834 -0.23164,0.60834 -0.15755,0 -0.2331,0.0783 -0.32173,0.33329 -0.10029,0.28856 -0.0972,0.34372 0.0229,0.41093 0.10384,0.0581 0.12279,0.15017 0.0753,0.36615 -0.0541,0.24618 -0.0936,0.28093 -0.26958,0.23677 -0.17989,-0.0451 -0.22332,-0.002 -0.34017,0.3414 -0.12587,0.36939 -0.12399,0.39576 0.031,0.43629 0.14453,0.0378 0.15327,0.0813 0.0705,0.35101 -0.0778,0.25351 -0.1303,0.30101 -0.29739,0.26907 -0.16872,-0.0323 -0.22159,0.0178 -0.31377,0.29713 -0.0959,0.29071 -0.0913,0.35023 0.0347,0.44232 0.12047,0.0881 0.12871,0.15464 0.0479,0.38647 -0.0803,0.23031 -0.13359,0.27103 -0.30012,0.22923 -0.15378,-0.0386 -0.21414,-0.006 -0.25092,0.13438 -0.0522,0.19978 -0.24294,0.25707 -0.24494,0.0736 z"
       style="fill:#993fd2;fill-opacity:0.756863;stroke:#993fd3;stroke-width:0.224409;stroke-linejoin:bevel;stroke-miterlimit:4;stroke-dasharray:0.224409, 0.224409;stroke-dashoffset:0;stroke-opacity:1" />
    <path
       transform="scale(0.26458333)"
       id="path2848"
       d="m 605.31255,413.06879 c -0.19621,-0.0294 -0.24423,-0.076 -0.21058,-0.20476 0.0524,-0.20028 -0.23347,-0.48714 -0.41573,-0.4172 -0.0926,0.0356 -0.13814,-0.0358 -0.16397,-0.25702 -0.0316,-0.27036 -0.0117,-0.30623 0.16953,-0.30623 0.18378,0 0.20529,-0.0421 0.20529,-0.40179 0,-0.36905 -0.0182,-0.40179 -0.22321,-0.40179 -0.19472,0 -0.22322,-0.0391 -0.22322,-0.30629 0,-0.24965 0.0371,-0.31156 0.20089,-0.33482 0.12911,-0.0183 0.21109,-0.10032 0.22943,-0.22942 0.0393,-0.27654 0.55182,-0.29727 0.55182,-0.0223 0,0.15211 0.0595,0.17857 0.40179,0.17857 0.34226,0 0.40179,-0.0265 0.40179,-0.17857 0,-0.14456 0.0595,-0.17857 0.3125,-0.17857 0.25297,0 0.3125,0.034 0.3125,0.17857 0,0.13889 0.0595,0.17857 0.26785,0.17857 0.22619,0 0.26786,0.0347 0.26786,0.22321 0,0.16369 -0.0476,0.22322 -0.17857,0.22322 -0.16157,0 -0.17857,0.0595 -0.17857,0.625 0,0.56547 0.017,0.625 0.17857,0.625 0.14881,0 0.17857,0.0595 0.17857,0.35714 0,0.29762 -0.0298,0.35714 -0.17857,0.35714 -0.11905,0 -0.17857,0.0595 -0.17857,0.17857 0,0.13889 -0.0595,0.17858 -0.26786,0.17858 -0.20833,0 -0.26786,-0.0397 -0.26786,-0.17858 0,-0.15211 -0.0595,-0.17857 -0.40178,-0.17857 -0.34226,0 -0.40179,0.0265 -0.40179,0.17857 0,0.0982 -0.0301,0.17256 -0.067,0.1652 -0.0368,-0.007 -0.18135,-0.0305 -0.32115,-0.0514 z"
       style="fill:#993fd2;fill-opacity:0.756863;stroke:#993fd3;stroke-width:0.224409;stroke-linejoin:bevel;stroke-miterlimit:4;stroke-dasharray:0.224409, 0.224409;stroke-dashoffset:0;stroke-opacity:1" />
    <path
       transform="scale(0.26458333)"
       id="path2850"
       d="m 604.84209,407.06215 c 0.0507,-0.31725 0.037,-0.35715 -0.12252,-0.35715 -0.14576,0 -0.17962,-0.0589 -0.17962,-0.3125 0,-0.25297 0.034,-0.3125 0.17857,-0.3125 0.15211,0 0.17857,-0.0595 0.17857,-0.40178 0,-0.34226 -0.0265,-0.40179 -0.17857,-0.40179 -0.18661,0 -0.21219,-0.0887 -0.1223,-0.4241 0.0367,-0.13709 0.12143,-0.2009 0.26664,-0.2009 0.15328,0 0.2128,-0.05 0.2128,-0.17857 0,-0.14456 0.0595,-0.17857 0.3125,-0.17857 0.25827,0 0.3125,0.0326 0.3125,0.18812 0,0.13487 0.04,0.17278 0.14123,0.13393 0.0777,-0.0298 0.25848,-0.0542 0.40179,-0.0542 0.20103,0 0.26055,-0.0408 0.26055,-0.17857 0,-0.14456 0.0595,-0.17858 0.3125,-0.17858 0.25298,0 0.3125,0.034 0.3125,0.17858 0,0.13888 0.0595,0.17857 0.26786,0.17857 0.22619,0 0.26786,0.0347 0.26786,0.22321 0,0.16369 -0.0476,0.22322 -0.17857,0.22322 -0.15212,0 -0.17858,0.0595 -0.17858,0.40178 0,0.34226 0.0265,0.40179 0.17858,0.40179 0.13095,0 0.17857,0.0595 0.17857,0.22321 0,0.16369 -0.0476,0.22322 -0.17857,0.22322 -0.14881,0 -0.17858,0.0595 -0.17858,0.35714 v 0.35714 h -0.35714 c -0.32143,0 -0.35714,0.0223 -0.35714,0.22322 0,0.19557 -0.0387,0.22321 -0.3125,0.22321 -0.27381,0 -0.3125,-0.0276 -0.3125,-0.22321 0,-0.20503 -0.0327,-0.22322 -0.40179,-0.22322 -0.36904,0 -0.40178,0.0182 -0.40178,0.22322 0,0.16816 -0.0469,0.22321 -0.18999,0.22321 -0.17164,0 -0.18447,-0.0345 -0.13287,-0.35714 z"
       style="fill:#993fd2;fill-opacity:0.756863;stroke:#993fd3;stroke-width:0.224409;stroke-linejoin:bevel;stroke-miterlimit:4;stroke-dasharray:0.224409, 0.224409;stroke-dashoffset:0;stroke-opacity:1" />
    <path
       transform="scale(0.26458333)"
       id="path2852"
       d="m 605.07566,401.21393 c 0,-0.25297 -0.034,-0.3125 -0.17857,-0.3125 -0.14456,0 -0.17857,-0.0595 -0.17857,-0.3125 0,-0.25297 0.034,-0.3125 0.17857,-0.3125 0.15212,0 0.17857,-0.0595 0.17857,-0.40178 0,-0.34226 -0.0264,-0.40179 -0.17857,-0.40179 -0.14456,0 -0.17857,-0.0595 -0.17857,-0.3125 0,-0.25297 0.034,-0.3125 0.17857,-0.3125 0.13095,0 0.17857,-0.0595 0.17857,-0.22321 0,-0.19558 0.0387,-0.22322 0.3125,-0.22322 0.25298,0 0.3125,0.034 0.3125,0.17857 0,0.15212 0.0595,0.17858 0.40179,0.17858 0.34226,0 0.40178,-0.0265 0.40178,-0.17858 0,-0.14455 0.0595,-0.17857 0.3125,-0.17857 0.25298,0 0.3125,0.034 0.3125,0.17857 0,0.13889 0.0595,0.17858 0.26786,0.17858 0.22619,0 0.26786,0.0347 0.26786,0.22321 0,0.16369 -0.0476,0.22321 -0.17857,0.22321 -0.15171,0 -0.17858,0.0595 -0.17858,0.39558 0,0.33924 0.0286,0.40109 0.2009,0.43427 l 0.20089,0.0387 -0.20089,0.0122 c -0.17993,0.0109 -0.2009,0.0588 -0.2009,0.45859 0,0.3869 0.0238,0.44643 0.17858,0.44643 0.0982,0 0.17857,0.0402 0.17857,0.0893 0,0.0491 -0.16072,0.0893 -0.35715,0.0893 -0.29761,0 -0.35714,0.0298 -0.35714,0.17857 0,0.14881 -0.0595,0.17857 -0.35714,0.17857 -0.29762,0 -0.35714,-0.0298 -0.35714,-0.17857 0,-0.15212 -0.0595,-0.17857 -0.40179,-0.17857 -0.34226,0 -0.40179,0.0265 -0.40179,0.17857 0,0.11905 -0.0595,0.17857 -0.17857,0.17857 -0.14456,0 -0.17857,-0.0595 -0.17857,-0.3125 z"
       style="fill:#993fd2;fill-opacity:0.756863;stroke:#993fd3;stroke-width:0.224409;stroke-linejoin:bevel;stroke-miterlimit:4;stroke-dasharray:0.224409, 0.224409;stroke-dashoffset:0;stroke-opacity:1" />
    <path
       transform="scale(0.26458333)"
       id="path2854"
       d="m 605.52209,395.54429 c 0,-0.15212 -0.0595,-0.17857 -0.40179,-0.17857 -0.29761,0 -0.40178,-0.0347 -0.40178,-0.13393 0,-0.0744 0.0794,-0.13393 0.17857,-0.13393 0.15212,0 0.17857,-0.0595 0.17857,-0.40178 0,-0.34227 -0.0264,-0.40179 -0.17857,-0.40179 -0.14456,0 -0.17857,-0.0595 -0.17857,-0.3125 0,-0.24709 0.0354,-0.3125 0.16902,-0.3125 0.29287,0 0.39027,-0.55297 0.12367,-0.70216 -0.12939,-0.0724 -0.10464,-0.0989 0.15625,-0.16735 0.26656,-0.0699 0.31398,-0.0585 0.33852,0.0816 0.0496,0.28304 0.81968,0.17465 0.81968,-0.11536 0,-0.13266 0.066,-0.16816 0.3125,-0.16816 0.25923,0 0.3125,0.0324 0.3125,0.18998 0,0.17165 0.0345,0.18447 0.35714,0.13288 0.35026,-0.056 0.35715,-0.0519 0.35715,0.2118 0,0.20939 -0.0395,0.26891 -0.17857,0.26891 -0.15873,0 -0.17858,0.0595 -0.17858,0.53572 0,0.47619 0.0198,0.53571 0.17858,0.53571 0.14455,0 0.17857,0.0595 0.17857,0.3125 0,0.25298 -0.034,0.3125 -0.17857,0.3125 -0.14456,0 -0.17858,0.0595 -0.17858,0.3125 0,0.25298 -0.034,0.3125 -0.17857,0.3125 -0.11904,0 -0.17857,-0.0595 -0.17857,-0.17857 0,-0.15212 -0.0595,-0.17857 -0.40178,-0.17857 -0.34227,0 -0.40179,0.0265 -0.40179,0.17857 0,0.14456 -0.0595,0.17857 -0.3125,0.17857 -0.25298,0 -0.3125,-0.034 -0.3125,-0.17857 z"
       style="fill:#993fd2;fill-opacity:0.756863;stroke:#993fd3;stroke-width:0.224409;stroke-linejoin:bevel;stroke-miterlimit:4;stroke-dasharray:0.224409, 0.224409;stroke-dashoffset:0;stroke-opacity:1" />
    <path
       transform="scale(0.26458333)"
       id="path2856"
       d="m 604.88098,389.7184 c -0.0183,-0.12911 -0.10032,-0.21109 -0.22943,-0.22943 -0.16282,-0.0231 -0.20089,-0.0854 -0.20089,-0.32861 0,-0.24322 0.0381,-0.30549 0.20089,-0.32861 0.16701,-0.0237 0.20553,-0.0926 0.22835,-0.408 0.0257,-0.35467 0.0125,-0.37946 -0.20089,-0.37946 -0.20145,0 -0.22835,-0.0368 -0.22835,-0.3125 0,-0.27143 0.0285,-0.3125 0.21701,-0.3125 0.15706,0 0.22488,-0.0555 0.24553,-0.20089 0.0219,-0.15398 0.0963,-0.20743 0.31871,-0.22887 0.24267,-0.0234 0.29018,0.002 0.29018,0.15625 0,0.15882 0.0554,0.18422 0.40179,0.18422 0.34226,0 0.40178,-0.0265 0.40178,-0.17857 0,-0.14456 0.0595,-0.17857 0.3125,-0.17857 0.25298,0 0.3125,0.034 0.3125,0.17857 0,0.14373 0.0595,0.17857 0.30506,0.17857 0.16778,0 0.32533,-0.0502 0.35009,-0.1116 0.0248,-0.0614 0.0482,0.0391 0.0521,0.22321 0.006,0.27765 -0.0235,0.33482 -0.17152,0.33482 -0.16535,0 -0.17858,0.0595 -0.17858,0.80357 0,0.74405 0.0132,0.80358 0.17858,0.80358 0.0982,0 0.17857,0.0402 0.17857,0.0893 0,0.0491 -0.18081,0.0893 -0.40179,0.0893 -0.34226,0 -0.40178,0.0265 -0.40178,0.17857 0,0.14456 -0.0595,0.17857 -0.3125,0.17857 -0.25298,0 -0.3125,-0.034 -0.3125,-0.17857 0,-0.15212 -0.0595,-0.17857 -0.40179,-0.17857 -0.34226,0 -0.40179,0.0265 -0.40179,0.17857 0,0.27494 -0.51255,0.25421 -0.55182,-0.0223 z"
       style="fill:#993fd2;fill-opacity:0.756863;stroke:#993fd3;stroke-width:0.224409;stroke-linejoin:bevel;stroke-miterlimit:4;stroke-dasharray:0.224409, 0.224409;stroke-dashoffset:0;stroke-opacity:1" />
    <path
       transform="scale(0.26458333)"
       id="path2858"
       d="m 604.89709,383.93715 c 0,-0.13096 -0.0595,-0.17857 -0.22321,-0.17857 -0.18732,0 -0.22322,-0.0421 -0.22322,-0.26165 0,-0.20336 0.0448,-0.268 0.20089,-0.29018 0.16701,-0.0237 0.20553,-0.0926 0.22835,-0.408 0.0257,-0.35467 0.0125,-0.37946 -0.20089,-0.37946 -0.20688,0 -0.22835,-0.0336 -0.22835,-0.35714 0,-0.32143 0.0223,-0.35715 0.22322,-0.35715 0.18849,0 0.22321,-0.0417 0.22321,-0.26785 0,-0.22619 0.0347,-0.26786 0.22321,-0.26786 0.16369,0 0.22322,0.0476 0.22322,0.17857 0,0.15508 0.0595,0.17857 0.45244,0.17857 0.40131,0 0.44646,-0.0189 0.39946,-0.16694 -0.0421,-0.13276 0.005,-0.17847 0.22836,-0.22322 0.40985,-0.082 0.4376,-0.0742 0.4376,0.12231 0,0.13888 0.0595,0.17857 0.26785,0.17857 0.20834,0 0.26786,0.0397 0.26786,0.17857 0,0.11905 -0.0595,0.17857 -0.17857,0.17857 -0.1627,0 -0.17857,0.0595 -0.17857,0.66964 0,0.61012 0.0159,0.66965 0.17857,0.66965 0.14456,0 0.17857,0.0595 0.17857,0.3125 0,0.25297 -0.034,0.3125 -0.17857,0.3125 -0.11905,0 -0.17857,0.0595 -0.17857,0.17857 0,0.14455 -0.0595,0.17857 -0.3125,0.17857 -0.25298,0 -0.3125,-0.034 -0.3125,-0.17857 0,-0.15477 -0.0595,-0.17857 -0.44643,-0.17857 -0.38691,0 -0.44643,0.0238 -0.44643,0.17857 0,0.14455 -0.0595,0.17857 -0.3125,0.17857 -0.25298,0 -0.3125,-0.034 -0.3125,-0.17857 z"
       style="fill:#993fd2;fill-opacity:0.756863;stroke:#993fd3;stroke-width:0.224409;stroke-linejoin:bevel;stroke-miterlimit:4;stroke-dasharray:0.224409, 0.224409;stroke-dashoffset:0;stroke-opacity:1" />
    <path
       transform="scale(0.26458333)"
       id="path2860"
       d="m 604.71852,378.13358 c 0,-0.13096 -0.0595,-0.17858 -0.22322,-0.17858 -0.18849,0 -0.22321,-0.0417 -0.22321,-0.26785 0,-0.20834 0.0397,-0.26786 0.17857,-0.26786 0.15212,0 0.17857,-0.0595 0.17857,-0.40179 0,-0.34226 -0.0264,-0.40178 -0.17857,-0.40178 -0.14456,0 -0.17857,-0.0595 -0.17857,-0.3125 0,-0.25298 0.034,-0.3125 0.17857,-0.3125 0.14456,0 0.17857,-0.0595 0.17857,-0.3125 0,-0.27381 0.0276,-0.3125 0.22322,-0.3125 0.16369,0 0.22321,0.0476 0.22321,0.17857 0,0.15212 0.0595,0.17857 0.40179,0.17857 0.34226,0 0.40178,-0.0265 0.40178,-0.17857 0,-0.14456 0.0595,-0.17857 0.3125,-0.17857 0.25298,0 0.3125,0.034 0.3125,0.17857 0,0.14881 0.0595,0.17857 0.35715,0.17857 0.29761,0 0.35714,0.0298 0.35714,0.17857 0,0.13095 -0.0595,0.17857 -0.22322,0.17857 -0.21683,0 -0.22321,0.0179 -0.22321,0.625 0,0.60715 0.006,0.625 0.22321,0.625 0.19558,0 0.22322,0.0387 0.22322,0.3125 0,0.27381 -0.0276,0.3125 -0.22322,0.3125 -0.16369,0 -0.22321,0.0476 -0.22321,0.17858 0,0.14455 -0.0595,0.17857 -0.3125,0.17857 -0.25298,0 -0.3125,-0.034 -0.3125,-0.17857 0,-0.15212 -0.0595,-0.17858 -0.40179,-0.17858 -0.34226,0 -0.40178,0.0265 -0.40178,0.17858 0,0.14455 -0.0595,0.17857 -0.3125,0.17857 -0.25298,0 -0.3125,-0.034 -0.3125,-0.17857 z"
       style="fill:#993fd2;fill-opacity:0.756863;stroke:#993fd3;stroke-width:0.224409;stroke-linejoin:bevel;stroke-miterlimit:4;stroke-dasharray:0.224409, 0.224409;stroke-dashoffset:0;stroke-opacity:1" />
    <path
       transform="scale(0.26458333)"
       id="path2862"
       d="m 604.01128,372.44161 c -0.006,-0.2382 0.0268,-0.29018 0.18194,-0.29018 0.15241,0 0.17856,-0.0389 0.13515,-0.20089 -0.0296,-0.11049 -0.0544,-0.30762 -0.0551,-0.43807 -9.6e-4,-0.18711 -0.0363,-0.228 -0.1675,-0.19369 -0.11835,0.0309 -0.18233,-0.0165 -0.22199,-0.16461 -0.09,-0.3361 -0.0688,-0.41589 0.1269,-0.47801 0.16033,-0.0509 0.17717,-0.10536 0.12608,-0.4078 l -0.059,-0.34907 h 0.32035 c 0.26082,0 0.32035,-0.0332 0.32035,-0.17857 0,-0.14456 0.0595,-0.17857 0.3125,-0.17857 0.25297,0 0.3125,0.034 0.3125,0.17857 0,0.15211 0.0595,0.17857 0.40178,0.17857 0.34227,0 0.40179,-0.0265 0.40179,-0.17857 0,-0.13095 0.0595,-0.17857 0.22321,-0.17857 0.19558,0 0.22322,0.0387 0.22322,0.3125 0,0.25297 0.034,0.3125 0.17857,0.3125 0.14456,0 0.17857,0.0595 0.17857,0.3125 0,0.25297 -0.034,0.3125 -0.17857,0.3125 -0.15266,0 -0.17857,0.0595 -0.17857,0.41014 0,0.34035 0.0316,0.41841 0.18577,0.45873 0.13789,0.036 0.17272,0.0972 0.13515,0.23717 -0.0279,0.10373 -0.0512,0.20869 -0.0518,0.23324 -6.4e-4,0.0246 -0.29249,0.0446 -0.64854,0.0446 -0.59415,0 -0.64961,0.0158 -0.6747,0.1917 -0.0376,0.26358 -0.64504,0.35285 -0.71003,0.10434 -0.0729,-0.27894 -0.64386,-0.19952 -0.76006,0.10574 -0.028,0.0737 -0.0541,0.003 -0.058,-0.15625 z"
       style="fill:#993fd2;fill-opacity:0.756863;stroke:#993fd3;stroke-width:0.224409;stroke-linejoin:bevel;stroke-miterlimit:4;stroke-dasharray:0.224409, 0.224409;stroke-dashoffset:0;stroke-opacity:1" />
    <path
       transform="scale(0.26458333)"
       id="path2864"
       d="m 604.00423,366.79429 c 0,-0.13889 -0.0595,-0.17857 -0.26785,-0.17857 -0.22619,0 -0.26786,-0.0347 -0.26786,-0.22322 0,-0.16369 0.0476,-0.22321 0.17857,-0.22321 0.15212,0 0.17857,-0.0595 0.17857,-0.40179 0,-0.33469 -0.0282,-0.40178 -0.16902,-0.40178 -0.31813,0 -0.39477,-0.5954 -0.0825,-0.64111 0.25118,-0.0368 0.4058,-0.5208 0.20268,-0.63447 -0.18392,-0.10293 -0.0757,-0.24228 0.18807,-0.24228 0.1342,0 0.21794,0.0515 0.21794,0.13393 0,0.0992 0.10417,0.13393 0.40179,0.13393 0.34226,0 0.40179,-0.0265 0.40179,-0.17857 0,-0.14456 0.0595,-0.17857 0.3125,-0.17857 0.25297,0 0.3125,0.034 0.3125,0.17857 0,0.15211 0.0595,0.17857 0.40178,0.17857 0.34226,0 0.40179,0.0265 0.40179,0.17857 0,0.11905 -0.0595,0.17857 -0.17857,0.17857 -0.19091,0 -0.21074,0.0847 -0.12277,0.52455 0.0387,0.19346 0.10714,0.27902 0.22321,0.27902 0.10551,0 0.16741,0.0633 0.16741,0.17127 0,0.0942 0.0244,0.23482 0.0542,0.3125 0.0388,0.10125 9.3e-4,0.14123 -0.13393,0.14123 -0.14114,0 -0.18812,0.0557 -0.18812,0.22322 0,0.12276 -0.0449,0.22321 -0.0997,0.22321 -0.0548,0 -0.0796,0.0769 -0.055,0.17087 0.0315,0.12044 -0.0115,0.18596 -0.14584,0.222 -0.3645,0.0978 -0.50302,0.0603 -0.50302,-0.13617 0,-0.16488 -0.0365,-0.18243 -0.27901,-0.13393 -0.15346,0.0307 -0.33427,0.0558 -0.40179,0.0558 -0.0675,0 -0.12277,0.0757 -0.12277,0.16816 0,0.0989 -0.0827,0.19033 -0.20089,0.222 -0.33542,0.0899 -0.42411,0.0643 -0.42411,-0.1223 z"
       style="fill:#993fd2;fill-opacity:0.756863;stroke:#993fd3;stroke-width:0.224409;stroke-linejoin:bevel;stroke-miterlimit:4;stroke-dasharray:0.224409, 0.224409;stroke-dashoffset:0;stroke-opacity:1" />
    <path
       transform="scale(0.26458333)"
       id="path2866"
       d="m 602.82685,355.16483 c -0.0235,-0.24332 -0.0604,-0.28567 -0.22887,-0.26225 -0.1768,0.0246 -0.20089,-0.0112 -0.20089,-0.29854 0,-0.23605 0.0433,-0.3378 0.15652,-0.3674 0.1266,-0.0331 0.15037,-0.11837 0.12431,-0.44597 -0.0271,-0.34074 -0.0581,-0.39826 -0.1954,-0.36236 -0.1682,0.044 -0.264,-0.094 -0.264,-0.38016 0,-0.10781 0.0909,-0.17829 0.27831,-0.21577 0.22359,-0.0447 0.26912,-0.0908 0.23157,-0.23438 -0.0328,-0.12539 -0.003,-0.17907 0.10116,-0.17993 0.0813,-6.7e-4 0.23829,-0.0254 0.34878,-0.0551 0.1646,-0.0441 0.20089,-0.0177 0.20089,0.14631 0,0.17655 0.0329,0.19357 0.27902,0.14434 0.15346,-0.0307 0.33426,-0.0558 0.40179,-0.0558 0.0675,0 0.12276,-0.0804 0.12276,-0.17857 0,-0.0982 0.0502,-0.17912 0.11161,-0.17979 0.0614,-6.7e-4 0.19929,-0.0247 0.30645,-0.0535 0.16297,-0.0437 0.18696,-0.0221 0.14667,0.13195 -0.0571,0.21846 0.16936,0.47952 0.35441,0.40851 0.0825,-0.0317 0.14865,0.0246 0.18398,0.15651 0.0913,0.34074 0.0663,0.42916 -0.12097,0.42916 -0.12603,0 -0.17822,0.0591 -0.17736,0.20089 0.002,0.383 0.10538,0.60268 0.28271,0.60268 0.14232,0 0.16875,0.0526 0.14584,0.29018 -0.0232,0.2409 -0.0621,0.28656 -0.22887,0.26891 -0.11049,-0.0117 -0.20089,0.0184 -0.20089,0.067 0,0.0485 -0.0603,0.0882 -0.13393,0.0882 -0.0817,0 -0.13393,0.0832 -0.13393,0.21345 0,0.17747 -0.0527,0.2196 -0.3125,0.24993 -0.25487,0.0297 -0.3125,0.007 -0.3125,-0.12416 0,-0.13087 -0.0745,-0.16064 -0.40179,-0.16064 -0.36904,0 -0.40178,0.0182 -0.40178,0.22321 0,0.17702 -0.045,0.22321 -0.21756,0.22321 -0.18019,0 -0.22236,-0.0498 -0.24554,-0.29017 z"
       style="fill:#993fd2;fill-opacity:0.756863;stroke:#993fd3;stroke-width:0.224409;stroke-linejoin:bevel;stroke-miterlimit:4;stroke-dasharray:0.224409, 0.224409;stroke-dashoffset:0;stroke-opacity:1" />
    <path
       transform="scale(0.26458333)"
       id="path2868"
       d="m 602.21852,349.55201 c 0,-0.15888 -0.0423,-0.18249 -0.26786,-0.14939 -0.25182,0.037 -0.26786,0.0215 -0.26786,-0.25772 0,-0.24254 0.0345,-0.29704 0.18813,-0.29704 0.13486,0 0.17278,-0.04 0.13393,-0.14123 -0.0298,-0.0777 -0.0542,-0.25569 -0.0542,-0.39558 0,-0.19578 -0.0462,-0.26091 -0.20089,-0.28287 -0.15397,-0.0219 -0.20743,-0.0963 -0.22887,-0.31871 -0.0233,-0.24188 0.002,-0.29018 0.15455,-0.29018 0.21745,0 0.367,-0.42381 0.18848,-0.53414 -0.12796,-0.0791 -0.0573,-0.13171 0.28762,-0.21415 0.20954,-0.0501 0.24554,-0.0307 0.24554,0.132 0,0.15418 0.0385,0.18038 0.20089,0.13685 0.11049,-0.0296 0.2885,-0.0544 0.39558,-0.0551 0.13344,-8.3e-4 0.20366,-0.0644 0.22321,-0.20211 0.0219,-0.15397 0.0963,-0.20742 0.31871,-0.22887 0.24772,-0.0239 0.29018,6.9e-4 0.29018,0.16793 0,0.17294 0.0356,0.19014 0.30356,0.14665 0.29087,-0.0472 0.30504,-0.0365 0.33921,0.25618 0.0289,0.24776 0.005,0.30543 -0.12498,0.30543 -0.11797,0 -0.16065,0.0692 -0.16065,0.26056 0,0.37672 0.085,0.54302 0.27741,0.54302 0.093,0 0.16957,0.0502 0.17024,0.1116 6.7e-4,0.0614 0.0254,0.20201 0.0551,0.3125 0.0429,0.16001 0.017,0.2009 -0.1273,0.2009 -0.14099,0 -0.19418,0.0772 -0.24,0.34839 -0.0431,0.25492 -0.11105,0.36239 -0.25338,0.40057 -0.33199,0.089 -0.41774,0.0613 -0.41774,-0.13513 0,-0.16488 -0.0366,-0.18242 -0.27902,-0.13392 -0.15346,0.0307 -0.33426,0.0558 -0.40178,0.0558 -0.0675,0 -0.12277,0.0761 -0.12277,0.16902 0,0.17692 -0.16435,0.27741 -0.45373,0.27741 -0.11481,0 -0.17127,-0.0622 -0.17127,-0.18871 z"
       style="fill:#993fd2;fill-opacity:0.756863;stroke:#993fd3;stroke-width:0.224409;stroke-linejoin:bevel;stroke-miterlimit:4;stroke-dasharray:0.224409, 0.224409;stroke-dashoffset:0;stroke-opacity:1" />
    <path
       transform="scale(0.26458333)"
       id="path2870"
       d="m 601.05549,343.80043 c -0.0934,-0.11259 -0.0862,-0.15667 0.0412,-0.24978 0.12124,-0.0887 0.14123,-0.1844 0.0926,-0.44364 -0.051,-0.27168 -0.10001,-0.33058 -0.27529,-0.33058 -0.15072,0 -0.21328,-0.0502 -0.21328,-0.17127 0,-0.0942 -0.0244,-0.23482 -0.0542,-0.3125 -0.0389,-0.10124 -9.4e-4,-0.14123 0.13392,-0.14123 0.20035,0 0.22092,-0.0816 0.13232,-0.52455 -0.0319,-0.15944 -0.1116,-0.27902 -0.18601,-0.27902 -0.17475,0 -0.0953,-0.21558 0.093,-0.25208 0.0859,-0.0166 0.14885,0.0281 0.14885,0.10568 0,0.0786 0.0977,0.14628 0.23505,0.16279 0.20658,0.0248 0.27416,0.12824 0.55803,0.85393 0.17765,0.45411 0.34916,0.82577 0.38115,0.82589 0.032,1.2e-4 0.13282,-0.41022 0.22407,-0.91186 0.16505,-0.90738 0.16744,-0.91252 0.46293,-0.99727 0.35206,-0.10097 0.45672,0.006 0.45883,0.46887 10e-4,0.26921 0.0238,0.29629 0.21653,0.25945 0.19321,-0.0369 0.2185,-0.006 0.2479,0.30209 0.0276,0.28937 0.006,0.34323 -0.13724,0.34323 -0.15016,0 -0.16497,0.052 -0.12708,0.44642 0.0392,0.40754 0.0265,0.44654 -0.14489,0.44765 -0.35571,0.002 -0.58957,0.10842 -0.58957,0.2675 0,0.16746 -0.16915,0.267 -0.45373,0.267 -0.11174,0 -0.17127,-0.0621 -0.17127,-0.17857 0,-0.14881 -0.0595,-0.17858 -0.35714,-0.17858 -0.29762,0 -0.35714,0.0298 -0.35714,0.17858 0,0.21162 -0.1993,0.23483 -0.35946,0.0419 z"
       style="fill:#993fd2;fill-opacity:0.756863;stroke:#993fd3;stroke-width:0.224409;stroke-linejoin:bevel;stroke-miterlimit:4;stroke-dasharray:0.224409, 0.224409;stroke-dashoffset:0;stroke-opacity:1" />
    <path
       transform="scale(0.26458333)"
       id="path2872"
       d="m 603.37923,360.99072 c 0,-0.11569 -0.0595,-0.17857 -0.16902,-0.17857 -0.30835,0 -0.39603,-0.6107 -0.0988,-0.68842 0.14375,-0.0376 0.17857,-0.12179 0.17857,-0.43186 0,-0.33145 -0.028,-0.38914 -0.2009,-0.41369 -0.15397,-0.0219 -0.20742,-0.0963 -0.22887,-0.31871 -0.0234,-0.24267 0.002,-0.29018 0.15625,-0.29018 0.13479,0 0.18423,-0.0573 0.18423,-0.21366 0,-0.21773 0.14698,-0.32205 0.45373,-0.32205 0.11511,0 0.17127,0.0622 0.17127,0.18973 0,0.16488 0.0366,0.18242 0.27902,0.13393 0.15346,-0.0307 0.33426,-0.0558 0.40178,-0.0558 0.0675,0 0.12277,-0.0757 0.12277,-0.16816 0,-0.0989 0.0827,-0.19032 0.2009,-0.22199 0.33541,-0.0899 0.4241,-0.0643 0.4241,0.1223 0,0.14455 0.0595,0.17857 0.3125,0.17857 0.25298,0 0.3125,0.034 0.3125,0.17857 0,0.0992 -0.0595,0.17857 -0.13393,0.17857 -0.0989,0 -0.13392,0.10348 -0.13392,0.39558 0,0.34224 0.0271,0.39942 0.20089,0.4241 0.28394,0.0403 0.34207,0.56622 0.072,0.65192 -0.10575,0.0336 -0.18366,0.13504 -0.18366,0.2392 0,0.10666 -0.0743,0.20035 -0.18107,0.22827 -0.12897,0.0337 -0.16578,0.0956 -0.12792,0.21486 0.0398,0.12542 0.009,0.1675 -0.12412,0.1675 -0.0975,0 -0.24323,0.0253 -0.32384,0.0562 -0.10208,0.0392 -0.16201,-0.003 -0.19748,-0.1385 -0.0435,-0.1665 -0.10426,-0.19083 -0.41878,-0.16784 -0.3036,0.0222 -0.37284,0.062 -0.39639,0.22778 -0.0393,0.27653 -0.55183,0.29726 -0.55183,0.0223 z"
       style="fill:#993fd2;fill-opacity:0.756863;stroke:#993fd3;stroke-width:0.224409;stroke-linejoin:bevel;stroke-miterlimit:4;stroke-dasharray:0.224409, 0.224409;stroke-dashoffset:0;stroke-opacity:1" />
  </g>
</svg>
