<?xml version="1.0" encoding="UTF-8" standalone="no"?>
<svg
   xmlns:dc="http://purl.org/dc/elements/1.1/"
   xmlns:cc="http://creativecommons.org/ns#"
   xmlns:rdf="http://www.w3.org/1999/02/22-rdf-syntax-ns#"
   xmlns:svg="http://www.w3.org/2000/svg"
   xmlns="http://www.w3.org/2000/svg"
   xmlns:sodipodi="http://sodipodi.sourceforge.net/DTD/sodipodi-0.dtd"
   xmlns:inkscape="http://www.inkscape.org/namespaces/inkscape"
   sodipodi:docname="golden-spiral.svg"
   inkscape:version="1.0 (4035a4fb49, 2020-05-01)"
   id="svg8"
   version="1.1"
   viewBox="0 0 263.24524 180.23583"
   height="180.23582mm"
   width="263.24524mm">
  <defs
     id="defs2" />
  <sodipodi:namedview
     inkscape:window-maximized="0"
     inkscape:window-y="215"
     inkscape:window-x="1517"
     inkscape:window-height="1482"
     inkscape:window-width="3094"
     showguides="false"
     showgrid="false"
     inkscape:document-rotation="0"
     inkscape:current-layer="layer1"
     inkscape:document-units="mm"
     inkscape:cy="-128.07454"
     inkscape:cx="-580.99403"
     inkscape:zoom="0.5"
     inkscape:pageshadow="2"
     inkscape:pageopacity="0.0"
     borderopacity="1.0"
     bordercolor="#666666"
     pagecolor="#ffffff"
     id="base" />
  <metadata
     id="metadata5">
    <rdf:RDF>
      <cc:Work
         rdf:about="">
        <dc:format>image/svg+xml</dc:format>
        <dc:type
           rdf:resource="http://purl.org/dc/dcmitype/StillImage" />
        <dc:title />
      </cc:Work>
    </rdf:RDF>
  </metadata>
  <g
     transform="translate(-313.44901,-74.309101)"
     id="layer1"
     inkscape:groupmode="layer"
     inkscape:label="Layer 1">
    <g
       transform="matrix(1.6269489,0,0,1.6269489,286.4632,-121.48264)"
       id="g1164">
      <rect
         style="fill:#993fd2;fill-opacity:0.106088;stroke:#f31d93;stroke-width:0.328325;stroke-linejoin:bevel;stroke-miterlimit:4;stroke-dasharray:none;stroke-dashoffset:0;stroke-opacity:0.760098"
         id="rect877"
         width="161.47469"
         height="99.671677"
         x="16.750923"
         y="131.28854" />
      <rect
         y="-178.22562"
         x="131.28854"
         height="61.52322"
         width="99.671677"
         id="rect1090"
         style="fill:#993fd2;fill-opacity:0.106088;stroke:#f31d93;stroke-width:0.202661;stroke-linejoin:bevel;stroke-miterlimit:4;stroke-dasharray:none;stroke-dashoffset:0;stroke-opacity:0.760098"
         transform="rotate(90)" />
      <rect
         transform="scale(-1)"
         style="fill:#993fd2;fill-opacity:0.106088;stroke:#f31d93;stroke-width:0.124897;stroke-linejoin:bevel;stroke-miterlimit:4;stroke-dasharray:none;stroke-dashoffset:0;stroke-opacity:0.760098"
         id="rect1092"
         width="61.426205"
         height="37.915867"
         x="-178.08972"
         y="-169.16553" />
      <rect
         y="-169.16553"
         x="-178.08972"
         height="37.915867"
         width="61.426205"
         id="rect1094"
         style="fill:#993fd2;fill-opacity:0.106088;stroke:#f31d93;stroke-width:0.124897;stroke-linejoin:bevel;stroke-miterlimit:4;stroke-dasharray:none;stroke-dashoffset:0;stroke-opacity:0.760098"
         transform="scale(-1)" />
      <rect
         transform="rotate(-90)"
         style="fill:#993fd2;fill-opacity:0.106088;stroke:#f31d93;stroke-width:0.0767914;stroke-linejoin:bevel;stroke-miterlimit:4;stroke-dasharray:none;stroke-dashoffset:0;stroke-opacity:0.760098"
         id="rect1116"
         width="37.767128"
         height="23.312094"
         x="-169.06294"
         y="116.70967" />
      <rect
         y="154.7211"
         x="116.78703"
         height="14.341837"
         width="23.23472"
         id="rect1118"
         style="fill:#993fd2;fill-opacity:0.106088;stroke:#f31d93;stroke-width:0.0472429;stroke-linejoin:bevel;stroke-miterlimit:4;stroke-dasharray:none;stroke-dashoffset:0;stroke-opacity:0.760098" />
      <rect
         style="fill:#993fd2;fill-opacity:0.106088;stroke:#f31d93;stroke-width:0.0291611;stroke-linejoin:bevel;stroke-miterlimit:4;stroke-dasharray:none;stroke-dashoffset:0;stroke-opacity:0.760098"
         id="rect1120"
         width="14.341839"
         height="8.8526278"
         x="154.7211"
         y="-140.02176"
         transform="rotate(90)" />
      <rect
         transform="scale(-1)"
         y="-160.17836"
         x="-140.01045"
         height="5.4575968"
         width="8.8416653"
         id="rect1122"
         style="fill:#993fd2;fill-opacity:0.106088;stroke:#f31d93;stroke-width:0.0179776;stroke-linejoin:bevel;stroke-miterlimit:4;stroke-dasharray:none;stroke-dashoffset:0;stroke-opacity:0.760098" />
      <rect
         style="fill:#993fd2;fill-opacity:0.106088;stroke:#f31d93;stroke-width:0.0110885;stroke-linejoin:bevel;stroke-miterlimit:4;stroke-dasharray:none;stroke-dashoffset:0;stroke-opacity:0.760098"
         id="rect1124"
         width="5.4534955"
         height="3.3662188"
         x="-160.17114"
         y="131.16568"
         transform="rotate(-90)" />
      <rect
         y="158.10696"
         x="131.16666"
         height="2.0735211"
         width="3.3592405"
         id="rect1126"
         style="fill:#993fd2;fill-opacity:0.106088;stroke:#f31d93;stroke-width:0.00683029;stroke-linejoin:bevel;stroke-miterlimit:4;stroke-dasharray:none;stroke-dashoffset:0;stroke-opacity:0.760098" />
      <rect
         style="fill:#993fd2;fill-opacity:0.106088;stroke:#f31d93;stroke-width:0.0041794;stroke-linejoin:bevel;stroke-miterlimit:4;stroke-dasharray:none;stroke-dashoffset:0;stroke-opacity:0.760098"
         id="rect1128"
         width="2.0554924"
         height="1.2687711"
         x="158.11697"
         y="-134.53323"
         transform="rotate(90)" />
      <rect
         transform="scale(-1)"
         y="-158.88318"
         x="-134.52592"
         height="0.7762329"
         width="1.2575482"
         id="rect1130"
         style="fill:#993fd2;fill-opacity:0.106088;stroke:#f31d93;stroke-width:0.00255695;stroke-linejoin:bevel;stroke-miterlimit:4;stroke-dasharray:none;stroke-dashoffset:0;stroke-opacity:0.760098" />
      <rect
         style="fill:#993fd2;fill-opacity:0.106088;stroke:#f31d93;stroke-width:0.00157827;stroke-linejoin:bevel;stroke-miterlimit:4;stroke-dasharray:none;stroke-dashoffset:0;stroke-opacity:0.760098"
         id="rect1132"
         width="0.77622259"
         height="0.47913033"
         x="-158.88318"
         y="133.26837"
         transform="rotate(-90)" />
      <rect
         y="158.58739"
         x="133.2684"
         height="0.2957539"
         width="0.4791407"
         id="rect1134"
         style="fill:#993fd2;fill-opacity:0.106088;stroke:#f31d93;stroke-width:0.000974222;stroke-linejoin:bevel;stroke-miterlimit:4;stroke-dasharray:none;stroke-dashoffset:0;stroke-opacity:0.760098" />
      <rect
         style="fill:#993fd2;fill-opacity:0.106088;stroke:#f31d93;stroke-width:0.000601357;stroke-linejoin:bevel;stroke-miterlimit:4;stroke-dasharray:none;stroke-dashoffset:0;stroke-opacity:0.760098"
         id="rect1136"
         width="0.29575869"
         height="0.1825597"
         x="158.58739"
         y="-133.74754"
         transform="rotate(90)" />
      <rect
         transform="scale(-1)"
         y="-158.70082"
         x="-133.74876"
         height="0.11343744"
         width="0.18377611"
         id="rect1138"
         style="fill:#993fd2;fill-opacity:0.106088;stroke:#f31d93;stroke-width:0.000373666;stroke-linejoin:bevel;stroke-miterlimit:4;stroke-dasharray:none;stroke-dashoffset:0;stroke-opacity:0.760098" />
      <rect
         style="fill:#993fd2;fill-opacity:0.106088;stroke:#f31d93;stroke-width:0.000230646;stroke-linejoin:bevel;stroke-miterlimit:4;stroke-dasharray:none;stroke-dashoffset:0;stroke-opacity:0.760098"
         id="rect1140"
         width="0.11343607"
         height="0.070019424"
         x="-158.70082"
         y="133.56499"
         transform="rotate(-90)" />
      <rect
         y="158.65797"
         x="133.5656"
         height="0.042837702"
         width="0.069399893"
         id="rect1142"
         style="fill:#993fd2;fill-opacity:0.106088;stroke:#f31d93;stroke-width:0.000141109;stroke-linejoin:bevel;stroke-miterlimit:4;stroke-dasharray:none;stroke-dashoffset:0;stroke-opacity:0.760098" />
    </g>
    <ellipse
       ry="49.993656"
       rx="64.336151"
       cy="124.30276"
       cx="378.3674"
       id="path1238"
       style="fill:#993fd2;fill-opacity:0;stroke:#ff00ac;stroke-width:0;stroke-linejoin:bevel;stroke-miterlimit:4;stroke-dasharray:none;stroke-dashoffset:0;stroke-opacity:1" />
    <path
       transform="scale(0.26458333)"
       id="path1274"
       d="m 1186.9082,688.37736 c 0.066,-235.22374 0.2079,-270.41077 1.0628,-264.28116 9.9241,71.15634 29.1665,133.69366 60.4366,196.41762 7.7845,15.61454 14.0942,27.12264 22.5732,41.17026 1.6431,2.72236 3.5078,5.85914 4.1437,6.97062 5.7617,10.07144 34.4335,50.89968 40.8471,58.16572 0.7267,0.8232 2.1167,2.53616 3.089,3.80657 0.9722,1.27041 2.245,2.87702 2.8284,3.57024 0.5833,0.69323 1.5379,1.85501 2.1213,2.58174 1.9896,2.47859 8.1244,9.75243 10.2518,12.15526 1.1674,1.31853 2.4408,2.75826 2.8297,3.19939 18.0897,20.51867 40.9094,42.96509 63.9362,62.8904 20.5727,17.80183 49.8576,38.98778 76.4245,55.28887 19.9589,12.24653 33.6947,19.80777 52.9358,29.13995 55.5943,26.96396 115.1882,45.85188 173.3383,54.93852 23.6961,3.70279 30.059,4.76082 30.3467,5.04611 0.162,0.16066 -122.901,0.29211 -273.4735,0.29211 h -273.7682 z"
       style="fill:#993fd2;fill-opacity:0;stroke:#ff00ac;stroke-width:0;stroke-linejoin:bevel;stroke-miterlimit:4;stroke-dasharray:none;stroke-dashoffset:0;stroke-opacity:1" />
    <path
       transform="scale(0.26458333)"
       id="path1276"
       d="m 1186.9082,688.37736 c 0.066,-235.22374 0.2079,-270.41077 1.0628,-264.28116 9.9241,71.15634 29.1665,133.69366 60.4366,196.41762 7.7845,15.61454 14.0942,27.12264 22.5732,41.17026 1.6431,2.72236 3.5078,5.85914 4.1437,6.97062 5.7617,10.07144 34.4335,50.89968 40.8471,58.16572 0.7267,0.8232 2.1167,2.53616 3.089,3.80657 0.9722,1.27041 2.245,2.87702 2.8284,3.57024 0.5833,0.69323 1.5379,1.85501 2.1213,2.58174 1.9896,2.47859 8.1244,9.75243 10.2518,12.15526 1.1674,1.31853 2.4408,2.75826 2.8297,3.19939 18.0897,20.51867 40.9094,42.96509 63.9362,62.8904 20.5727,17.80183 49.8576,38.98778 76.4245,55.28887 19.9589,12.24653 33.6947,19.80777 52.9358,29.13995 55.5943,26.96396 115.1882,45.85188 173.3383,54.93852 23.6961,3.70279 30.059,4.76082 30.3467,5.04611 0.162,0.16066 -122.901,0.29211 -273.4735,0.29211 h -273.7682 z"
       style="fill:#993fd2;fill-opacity:0;stroke:#ff00ac;stroke-width:0;stroke-linejoin:bevel;stroke-miterlimit:4;stroke-dasharray:none;stroke-dashoffset:0;stroke-opacity:1" />
    <path
       transform="scale(0.26458333)"
       id="path1278"
       d="m 1186.9082,688.37736 c 0.066,-235.22374 0.2079,-270.41077 1.0628,-264.28116 9.9241,71.15634 29.1665,133.69366 60.4366,196.41762 7.7845,15.61454 14.0942,27.12264 22.5732,41.17026 1.6431,2.72236 3.5078,5.85914 4.1437,6.97062 5.7617,10.07144 34.4335,50.89968 40.8471,58.16572 0.7267,0.8232 2.1167,2.53616 3.089,3.80657 0.9722,1.27041 2.245,2.87702 2.8284,3.57024 0.5833,0.69323 1.5379,1.85501 2.1213,2.58174 1.9896,2.47859 8.1244,9.75243 10.2518,12.15526 1.1674,1.31853 2.4408,2.75826 2.8297,3.19939 18.0897,20.51867 40.9094,42.96509 63.9362,62.8904 20.5727,17.80183 49.8576,38.98778 76.4245,55.28887 19.9589,12.24653 33.6947,19.80777 52.9358,29.13995 55.5943,26.96396 115.1882,45.85188 173.3383,54.93852 23.6961,3.70279 30.059,4.76082 30.3467,5.04611 0.162,0.16066 -122.901,0.29211 -273.4735,0.29211 h -273.7682 z"
       style="fill:#993fd2;fill-opacity:0;stroke:#ff00ac;stroke-width:0;stroke-linejoin:bevel;stroke-miterlimit:4;stroke-dasharray:none;stroke-dashoffset:0;stroke-opacity:1" />
    <path
       transform="scale(0.26458333)"
       id="path1280"
       d="m 1186.9082,688.37736 c 0.066,-235.22374 0.2079,-270.41077 1.0628,-264.28116 9.9241,71.15634 29.1665,133.69366 60.4366,196.41762 7.7845,15.61454 14.0942,27.12264 22.5732,41.17026 1.6431,2.72236 3.5078,5.85914 4.1437,6.97062 5.7617,10.07144 34.4335,50.89968 40.8471,58.16572 0.7267,0.8232 2.1167,2.53616 3.089,3.80657 0.9722,1.27041 2.245,2.87702 2.8284,3.57024 0.5833,0.69323 1.5379,1.85501 2.1213,2.58174 1.9896,2.47859 8.1244,9.75243 10.2518,12.15526 1.1674,1.31853 2.4408,2.75826 2.8297,3.19939 18.0897,20.51867 40.9094,42.96509 63.9362,62.8904 20.5727,17.80183 49.8576,38.98778 76.4245,55.28887 19.9589,12.24653 33.6947,19.80777 52.9358,29.13995 55.5943,26.96396 115.1882,45.85188 173.3383,54.93852 23.6961,3.70279 30.059,4.76082 30.3467,5.04611 0.162,0.16066 -122.901,0.29211 -273.4735,0.29211 h -273.7682 z"
       style="fill:#993fd2;fill-opacity:0;stroke:#40002b;stroke-width:0;stroke-linejoin:bevel;stroke-miterlimit:4;stroke-dasharray:none;stroke-dashoffset:0;stroke-opacity:0.996074" />
    <path
       transform="scale(0.26458333)"
       id="path1282"
       d="m 1186.9082,688.37736 c 0.066,-235.22374 0.2079,-270.41077 1.0628,-264.28116 9.9241,71.15634 29.1665,133.69366 60.4366,196.41762 7.7845,15.61454 14.0942,27.12264 22.5732,41.17026 1.6431,2.72236 3.5078,5.85914 4.1437,6.97062 5.7617,10.07144 34.4335,50.89968 40.8471,58.16572 0.7267,0.8232 2.1167,2.53616 3.089,3.80657 0.9722,1.27041 2.245,2.87702 2.8284,3.57024 0.5833,0.69323 1.5379,1.85501 2.1213,2.58174 1.9896,2.47859 8.1244,9.75243 10.2518,12.15526 1.1674,1.31853 2.4408,2.75826 2.8297,3.19939 18.0897,20.51867 40.9094,42.96509 63.9362,62.8904 20.5727,17.80183 49.8576,38.98778 76.4245,55.28887 19.9589,12.24653 33.6947,19.80777 52.9358,29.13995 55.5943,26.96396 115.1882,45.85188 173.3383,54.93852 23.6961,3.70279 30.059,4.76082 30.3467,5.04611 0.162,0.16066 -122.901,0.29211 -273.4735,0.29211 h -273.7682 z"
       style="fill:#993fd2;fill-opacity:0;stroke:#40002b;stroke-width:0;stroke-linejoin:bevel;stroke-miterlimit:4;stroke-dasharray:none;stroke-dashoffset:0;stroke-opacity:0.996074" />
    <path
       transform="scale(0.26458333)"
       id="path1284"
       d="m 1186.9082,688.37736 c 0.066,-235.22374 0.2079,-270.41077 1.0628,-264.28116 9.9241,71.15634 29.1665,133.69366 60.4366,196.41762 7.7845,15.61454 14.0942,27.12264 22.5732,41.17026 1.6431,2.72236 3.5078,5.85914 4.1437,6.97062 5.7617,10.07144 34.4335,50.89968 40.8471,58.16572 0.7267,0.8232 2.1167,2.53616 3.089,3.80657 0.9722,1.27041 2.245,2.87702 2.8284,3.57024 0.5833,0.69323 1.5379,1.85501 2.1213,2.58174 1.9896,2.47859 8.1244,9.75243 10.2518,12.15526 1.1674,1.31853 2.4408,2.75826 2.8297,3.19939 18.0897,20.51867 40.9094,42.96509 63.9362,62.8904 20.5727,17.80183 49.8576,38.98778 76.4245,55.28887 19.9589,12.24653 33.6947,19.80777 52.9358,29.13995 55.5943,26.96396 115.1882,45.85188 173.3383,54.93852 23.6961,3.70279 30.059,4.76082 30.3467,5.04611 0.162,0.16066 -122.901,0.29211 -273.4735,0.29211 h -273.7682 z"
       style="fill:#993fd2;fill-opacity:0;stroke:#40002b;stroke-width:0;stroke-linejoin:bevel;stroke-miterlimit:4;stroke-dasharray:none;stroke-dashoffset:0;stroke-opacity:0.996074" />
    <path
       transform="scale(0.26458333)"
       id="path1286"
       d="m 1186.9082,688.37736 c 0.066,-235.22374 0.2079,-270.41077 1.0628,-264.28116 9.9241,71.15634 29.1665,133.69366 60.4366,196.41762 7.7845,15.61454 14.0942,27.12264 22.5732,41.17026 1.6431,2.72236 3.5078,5.85914 4.1437,6.97062 5.7617,10.07144 34.4335,50.89968 40.8471,58.16572 0.7267,0.8232 2.1167,2.53616 3.089,3.80657 0.9722,1.27041 2.245,2.87702 2.8284,3.57024 0.5833,0.69323 1.5379,1.85501 2.1213,2.58174 1.9896,2.47859 8.1244,9.75243 10.2518,12.15526 1.1674,1.31853 2.4408,2.75826 2.8297,3.19939 18.0897,20.51867 40.9094,42.96509 63.9362,62.8904 20.5727,17.80183 49.8576,38.98778 76.4245,55.28887 19.9589,12.24653 33.6947,19.80777 52.9358,29.13995 55.5943,26.96396 115.1882,45.85188 173.3383,54.93852 23.6961,3.70279 30.059,4.76082 30.3467,5.04611 0.162,0.16066 -122.901,0.29211 -273.4735,0.29211 h -273.7682 z"
       style="fill:#993fd2;fill-opacity:0;stroke:#40002b;stroke-width:0;stroke-linejoin:bevel;stroke-miterlimit:4;stroke-dasharray:none;stroke-dashoffset:0;stroke-opacity:0.996074" />
    <path
       transform="scale(0.26458333)"
       id="path1288"
       d="m 1186.9082,688.37736 c 0.066,-235.22374 0.2079,-270.41077 1.0628,-264.28116 9.9241,71.15634 29.1665,133.69366 60.4366,196.41762 7.7845,15.61454 14.0942,27.12264 22.5732,41.17026 1.6431,2.72236 3.5078,5.85914 4.1437,6.97062 5.7617,10.07144 34.4335,50.89968 40.8471,58.16572 0.7267,0.8232 2.1167,2.53616 3.089,3.80657 0.9722,1.27041 2.245,2.87702 2.8284,3.57024 0.5833,0.69323 1.5379,1.85501 2.1213,2.58174 1.9896,2.47859 8.1244,9.75243 10.2518,12.15526 1.1674,1.31853 2.4408,2.75826 2.8297,3.19939 18.0897,20.51867 40.9094,42.96509 63.9362,62.8904 20.5727,17.80183 49.8576,38.98778 76.4245,55.28887 19.9589,12.24653 33.6947,19.80777 52.9358,29.13995 55.5943,26.96396 115.1882,45.85188 173.3383,54.93852 23.6961,3.70279 30.059,4.76082 30.3467,5.04611 0.162,0.16066 -122.901,0.29211 -273.4735,0.29211 h -273.7682 z"
       style="fill:#993fd2;fill-opacity:0;stroke:#40002b;stroke-width:0;stroke-linejoin:bevel;stroke-miterlimit:4;stroke-dasharray:none;stroke-dashoffset:0;stroke-opacity:0.996074" />
    <path
       transform="scale(0.26458333)"
       id="path1290"
       d="m 1186.9082,688.37736 c 0.066,-235.22374 0.2079,-270.41077 1.0628,-264.28116 9.9241,71.15634 29.1665,133.69366 60.4366,196.41762 7.7845,15.61454 14.0942,27.12264 22.5732,41.17026 1.6431,2.72236 3.5078,5.85914 4.1437,6.97062 5.7617,10.07144 34.4335,50.89968 40.8471,58.16572 0.7267,0.8232 2.1167,2.53616 3.089,3.80657 0.9722,1.27041 2.245,2.87702 2.8284,3.57024 0.5833,0.69323 1.5379,1.85501 2.1213,2.58174 1.9896,2.47859 8.1244,9.75243 10.2518,12.15526 1.1674,1.31853 2.4408,2.75826 2.8297,3.19939 18.0897,20.51867 40.9094,42.96509 63.9362,62.8904 20.5727,17.80183 49.8576,38.98778 76.4245,55.28887 19.9589,12.24653 33.6947,19.80777 52.9358,29.13995 55.5943,26.96396 115.1882,45.85188 173.3383,54.93852 23.6961,3.70279 30.059,4.76082 30.3467,5.04611 0.162,0.16066 -122.901,0.29211 -273.4735,0.29211 h -273.7682 z"
       style="fill:#993fd2;fill-opacity:0;stroke:#40002b;stroke-width:0;stroke-linejoin:bevel;stroke-miterlimit:4;stroke-dasharray:none;stroke-dashoffset:0;stroke-opacity:0.996074" />
    <path
       transform="scale(0.26458333)"
       id="path1292"
       d="m 1186.9082,688.37736 c 0.066,-235.22374 0.2079,-270.41077 1.0628,-264.28116 9.9241,71.15634 29.1665,133.69366 60.4366,196.41762 7.7845,15.61454 14.0942,27.12264 22.5732,41.17026 1.6431,2.72236 3.5078,5.85914 4.1437,6.97062 5.7617,10.07144 34.4335,50.89968 40.8471,58.16572 0.7267,0.8232 2.1167,2.53616 3.089,3.80657 0.9722,1.27041 2.245,2.87702 2.8284,3.57024 0.5833,0.69323 1.5379,1.85501 2.1213,2.58174 1.9896,2.47859 8.1244,9.75243 10.2518,12.15526 1.1674,1.31853 2.4408,2.75826 2.8297,3.19939 18.0897,20.51867 40.9094,42.96509 63.9362,62.8904 20.5727,17.80183 49.8576,38.98778 76.4245,55.28887 19.9589,12.24653 33.6947,19.80777 52.9358,29.13995 55.5943,26.96396 115.1882,45.85188 173.3383,54.93852 23.6961,3.70279 30.059,4.76082 30.3467,5.04611 0.162,0.16066 -122.901,0.29211 -273.4735,0.29211 h -273.7682 z"
       style="fill:#993fd2;fill-opacity:0;stroke:#40002b;stroke-width:0;stroke-linejoin:bevel;stroke-miterlimit:4;stroke-dasharray:none;stroke-dashoffset:0;stroke-opacity:0.996074" />
    <path
       transform="scale(0.26458333)"
       id="path1294"
       d="m 1186.9082,688.37736 c 0.066,-235.22374 0.2079,-270.41077 1.0628,-264.28116 9.9241,71.15634 29.1665,133.69366 60.4366,196.41762 7.7845,15.61454 14.0942,27.12264 22.5732,41.17026 1.6431,2.72236 3.5078,5.85914 4.1437,6.97062 5.7617,10.07144 34.4335,50.89968 40.8471,58.16572 0.7267,0.8232 2.1167,2.53616 3.089,3.80657 0.9722,1.27041 2.245,2.87702 2.8284,3.57024 0.5833,0.69323 1.5379,1.85501 2.1213,2.58174 1.9896,2.47859 8.1244,9.75243 10.2518,12.15526 1.1674,1.31853 2.4408,2.75826 2.8297,3.19939 18.0897,20.51867 40.9094,42.96509 63.9362,62.8904 20.5727,17.80183 49.8576,38.98778 76.4245,55.28887 19.9589,12.24653 33.6947,19.80777 52.9358,29.13995 55.5943,26.96396 115.1882,45.85188 173.3383,54.93852 23.6961,3.70279 30.059,4.76082 30.3467,5.04611 0.162,0.16066 -122.901,0.29211 -273.4735,0.29211 h -273.7682 z"
       style="fill:#993fd2;fill-opacity:0;stroke:#40002b;stroke-width:0;stroke-linejoin:bevel;stroke-miterlimit:4;stroke-dasharray:none;stroke-dashoffset:0;stroke-opacity:0.996074" />
    <path
       transform="scale(0.26458333)"
       id="path1298"
       d="m 1186.9082,688.37736 c 0.066,-235.22374 0.2079,-270.41077 1.0628,-264.28116 9.9241,71.15634 29.1665,133.69366 60.4366,196.41762 7.7845,15.61454 14.0942,27.12264 22.5732,41.17026 1.6431,2.72236 3.5078,5.85914 4.1437,6.97062 5.7617,10.07144 34.4335,50.89968 40.8471,58.16572 0.7267,0.8232 2.1167,2.53616 3.089,3.80657 0.9722,1.27041 2.245,2.87702 2.8284,3.57024 0.5833,0.69323 1.5379,1.85501 2.1213,2.58174 1.9896,2.47859 8.1244,9.75243 10.2518,12.15526 1.1674,1.31853 2.4408,2.75826 2.8297,3.19939 18.0897,20.51867 40.9094,42.96509 63.9362,62.8904 20.5727,17.80183 49.8576,38.98778 76.4245,55.28887 19.9589,12.24653 33.6947,19.80777 52.9358,29.13995 55.5943,26.96396 115.1882,45.85188 173.3383,54.93852 23.6961,3.70279 30.059,4.76082 30.3467,5.04611 0.162,0.16066 -122.901,0.29211 -273.4735,0.29211 h -273.7682 z"
       style="fill:#000000;fill-opacity:0;stroke:#40002b;stroke-width:0;stroke-linejoin:bevel;stroke-miterlimit:4;stroke-dasharray:none;stroke-dashoffset:0;stroke-opacity:0.996074" />
    <path
       transform="scale(0.26458333)"
       id="path1304"
       d="m 1186.9082,688.37736 c 0.066,-235.22374 0.2079,-270.41077 1.0628,-264.28116 9.9241,71.15634 29.1665,133.69366 60.4366,196.41762 7.7845,15.61454 14.0942,27.12264 22.5732,41.17026 1.6431,2.72236 3.5078,5.85914 4.1437,6.97062 5.7617,10.07144 34.4335,50.89968 40.8471,58.16572 0.7267,0.8232 2.1167,2.53616 3.089,3.80657 0.9722,1.27041 2.245,2.87702 2.8284,3.57024 0.5833,0.69323 1.5379,1.85501 2.1213,2.58174 1.9896,2.47859 8.1244,9.75243 10.2518,12.15526 1.1674,1.31853 2.4408,2.75826 2.8297,3.19939 18.0897,20.51867 40.9094,42.96509 63.9362,62.8904 20.5727,17.80183 49.8576,38.98778 76.4245,55.28887 19.9589,12.24653 33.6947,19.80777 52.9358,29.13995 55.5943,26.96396 115.1882,45.85188 173.3383,54.93852 23.6961,3.70279 30.059,4.76082 30.3467,5.04611 0.162,0.16066 -122.901,0.29211 -273.4735,0.29211 h -273.7682 z"
       style="fill:#2213f5;fill-opacity:0.960784;stroke:#40002b;stroke-width:0;stroke-linejoin:bevel;stroke-miterlimit:4;stroke-dasharray:none;stroke-dashoffset:0;stroke-opacity:0.996074" />
    <path
       transform="scale(0.26458333)"
       id="path1306"
       d="m 1876.9678,956.39087 c 6.1974,-1.11379 30.453,-7.79008 39.9711,-11.00196 26.7027,-9.01076 56.0148,-22.59015 76.7015,-35.53338 10.437,-6.53019 13.6876,-8.64388 18.0312,-11.72456 2.7224,-1.93082 5.7453,-4.05201 6.7176,-4.71376 4.9208,-3.3492 18.7709,-14.15404 22.3697,-17.45118 0.4417,-0.40464 3.0335,-2.64489 5.7596,-4.97835 5.2924,-4.53008 27.1171,-26.25836 33.2728,-33.12587 31.3275,-34.94951 58.2953,-81.38571 73.7748,-127.03381 12.3213,-36.3346 17.8487,-66.35977 20.0317,-108.81395 0.5522,-10.73926 1.017,-19.60548 1.033,-19.70271 0.016,-0.0972 0.6654,-0.17678 1.4432,-0.17678 1.409,0 1.4141,0.46562 1.3968,126.74889 l -0.017,126.74889 -7.8784,5.65686 c -19.1819,13.77305 -27.4175,19.24597 -47.7834,31.75405 -18.2659,11.21836 -44.6372,24.87756 -68.0472,35.24558 -41.7669,18.49806 -84.8141,32.11091 -130.1077,41.14404 -15.788,3.1487 -43.8011,7.55677 -46.8486,7.37199 -1.459,-0.0885 -1.4443,-0.12214 0.1796,-0.41399 z"
       style="fill:#2213f5;fill-opacity:0.960784;stroke:#40002b;stroke-width:0;stroke-linejoin:bevel;stroke-miterlimit:4;stroke-dasharray:none;stroke-dashoffset:0;stroke-opacity:0.996074" />
    <path
       transform="scale(0.26458333)"
       id="path1308"
       d="m 1879.7962,957.62941 c 86.8144,-11.15598 170.9927,-40.22761 242.5377,-83.7623 3.6946,-2.24816 7.6214,-4.61123 8.7262,-5.25126 4.801,-2.78133 28.4847,-18.79323 37.0589,-25.05451 l 9.3692,-6.84178 v 61.50501 61.50501 l -156.4474,-0.0733 -156.4474,-0.0733 z"
       style="fill:#2213f5;fill-opacity:0.960784;stroke:#40002b;stroke-width:0;stroke-linejoin:bevel;stroke-miterlimit:4;stroke-dasharray:none;stroke-dashoffset:0;stroke-opacity:0.996074" />
    <path
       transform="scale(0.26458333)"
       id="path1310"
       d="m 2174.6525,571.35119 c -0.02,-23.58183 -3.6754,-43.77063 -15.3319,-84.67604 -11.8133,-41.45552 -30.4789,-80.12782 -55.6307,-115.25841 -5.3697,-7.50013 -11.6645,-15.69694 -15.8835,-20.68287 -0.9955,-1.17652 1.1688,-1.23744 43.9638,-1.23744 h 45.0109 v 115.25841 c 0,101.98051 -0.1222,115.2584 -1.0607,115.2584 -0.8847,0 -1.0619,-1.43709 -1.0679,-8.66205 z"
       style="fill:#2013f5;fill-opacity:0.941176;stroke:#40002b;stroke-width:0;stroke-linejoin:bevel;stroke-miterlimit:4;stroke-dasharray:none;stroke-dashoffset:0;stroke-opacity:0.996074" />
    <path
       transform="scale(0.26458333)"
       id="path1312"
       d="m 2156.9961,486.13615 c -7.2207,-17.71976 -21.6339,-40.89474 -35.3483,-56.83657 -8.2884,-9.63452 -24.5386,-25.1381 -32.1212,-30.64538 -1.5959,-1.15911 -3.3156,-2.50495 -3.8216,-2.99075 -2.4624,-2.3643 -20.0254,-13.39583 -28.1303,-17.669 -32.673,-17.2263 -61.8141,-24.83242 -100.1735,-26.14629 -10.3934,-0.35599 -13.2583,-0.65913 -13.2583,-1.40292 0,-0.78734 12.0256,-0.94881 70.6653,-0.94881 h 70.6653 l 4.1459,5.12653 c 26.0432,32.20257 47.9207,71.19268 61.2002,109.07122 6.7334,19.20619 10.6356,33.3847 6.1765,22.44197 z"
       style="fill:#2013f5;fill-opacity:0.941176;stroke:#40002b;stroke-width:0;stroke-linejoin:bevel;stroke-miterlimit:4;stroke-dasharray:none;stroke-dashoffset:0;stroke-opacity:0.996074" />
    <path
       transform="scale(0.26458333)"
       id="path1342"
       d="m 1801.064,380.9744 v -31.66828 l 60.1924,0.0205 60.1925,0.0205 -4.8177,1.00884 c -14.7265,3.08379 -28.2234,8.02612 -40.8875,14.97233 -2.2802,1.25068 -5.7408,2.91455 -7.6902,3.69749 -1.9494,0.78295 -4.137,1.77321 -4.8614,2.20058 -0.7243,0.42737 -1.3169,0.68054 -1.3169,0.56261 0,-0.11793 -1.9087,0.74238 -4.2416,1.9118 -2.3328,1.16942 -4.3436,2.11165 -4.4683,2.09385 -0.1247,-0.0178 -0.324,0.10054 -0.443,0.26298 -0.119,0.16245 -1.4096,0.89795 -2.868,1.63443 -3.8923,1.9656 -11.4117,6.20454 -11.6436,6.56394 -0.1102,0.17078 -0.8784,0.65424 -1.707,1.07436 -1.2735,0.64565 -7.6261,4.84495 -11.0221,7.28609 -0.541,0.38891 -1.4436,1.01849 -2.0057,1.39906 -0.5621,0.38057 -1.4299,1.01697 -1.9285,1.41421 -0.4986,0.39725 -1.3522,1.04046 -1.8969,1.42937 -1.53,1.09231 -8.4879,6.64267 -8.6897,6.93177 -0.099,0.14136 -0.8078,0.75645 -1.5759,1.36686 -1.2397,0.98519 -6.6139,5.78932 -7.8506,7.01781 -0.3914,0.38877 -0.4703,-4.84926 -0.4703,-31.20109 z"
       style="fill:#2013f5;fill-opacity:0.941176;stroke:#40002b;stroke-width:0;stroke-linejoin:bevel;stroke-miterlimit:4;stroke-dasharray:none;stroke-dashoffset:0;stroke-opacity:0.996074" />
    <path
       transform="scale(0.26458333)"
       id="path1344"
       d="m 1801.086,442.46351 -0.022,-28.99531 2.3865,-2.16814 c 1.3125,-1.19247 3.0908,-2.7817 3.9517,-3.5316 0.8609,-0.74991 1.8378,-1.62437 2.1708,-1.94325 2.1356,-2.04486 13.523,-10.82046 17.972,-13.84993 1.089,-0.74153 2.2982,-1.5756 2.6871,-1.85348 0.6389,-0.45646 3.1113,-2.04319 8.6621,-5.55905 2.1413,-1.35633 12.7922,-7.18069 16.9705,-9.28023 3.4061,-1.71148 10.2929,-4.76319 10.7491,-4.76319 0.1931,0 -1.152,1.02716 -2.9892,2.28258 -29.4072,20.09464 -50.7499,51.35695 -58.6636,85.92899 -0.6231,2.72236 -1.745,6.69983 -2.493,8.83883 l -1.36,3.88909 z"
       style="fill:#2013f5;fill-opacity:0.941176;stroke:#40002b;stroke-width:0;stroke-linejoin:bevel;stroke-miterlimit:4;stroke-dasharray:none;stroke-dashoffset:0;stroke-opacity:0.996074" />
    <path
       transform="scale(0.26458333)"
       id="path1348"
       d="m 1800.9416,482.97097 v -9.12584 l 0.047,0.005 c 0.041,0.005 0.054,-0.0183 0.099,-0.17151 0.029,-0.0972 0.052,-0.18217 0.053,-0.18877 3e-4,-0.007 -0.044,-0.024 -0.099,-0.0386 l -0.099,-0.0266 v -0.18685 -0.18685 l 0.105,0.0323 c 0.218,0.0672 0.1948,0.0783 0.2587,-0.12391 0.032,-0.10002 0.052,-0.18719 0.045,-0.19372 -0.013,-0.0129 -0.321,-0.11379 -0.3491,-0.11427 -0.01,-2.2e-4 -0.026,0.0221 -0.037,0.0494 -0.012,0.0297 -0.021,-4.96613 -0.021,-12.42961 v -12.47933 h 0.063 0.063 l 0.015,6.06933 c 0.01,3.33813 0.015,8.66496 0.015,11.83741 0,3.29648 0.01,5.75909 0.019,5.74709 0.029,-0.0313 1.4954,-4.24275 1.7002,-4.88235 0.8165,-2.54946 1.5794,-5.35153 2.3134,-8.49633 0.7437,-3.18627 1.6381,-6.4642 2.6424,-9.68405 l 0.1844,-0.5911 h 0.1918 0.1918 l -0.061,0.19335 c -0.606,1.91796 -0.94,3.01745 -1.3374,4.40285 -1.0502,3.6608 -1.9835,7.4831 -2.7085,11.09274 -0.088,0.43891 -0.1538,0.70847 -0.2008,0.82516 -0.055,0.13699 -0.064,0.17707 -0.041,0.19128 0.024,0.0148 0.024,0.0473 6e-4,0.18477 l -0.029,0.1668 -0.075,-0.005 c -0.073,-0.004 -0.077,-3.9e-4 -0.1407,0.14952 -0.036,0.0847 -0.065,0.16234 -0.065,0.17249 0,0.0102 0.045,0.0383 0.1,0.0625 0.082,0.0364 0.098,0.0524 0.089,0.0927 -0.01,0.0267 -0.021,0.1054 -0.035,0.17481 l -0.024,0.12619 -0.1146,-0.0457 c -0.063,-0.0251 -0.1257,-0.0501 -0.1393,-0.0556 -0.032,-0.0127 -0.1764,0.34235 -0.1497,0.36652 0.011,0.01 0.091,0.045 0.177,0.0783 l 0.1573,0.0606 -0.018,0.0805 c -0.01,0.0443 -0.083,0.45084 -0.1629,0.90348 -0.9025,5.12497 -1.5152,10.14502 -1.8671,15.29684 -0.1164,1.70382 -0.1981,3.37983 -0.2785,5.7121 -0.01,0.17015 -0.02,0.34913 -0.032,0.39775 -0.028,0.11719 -0.028,0.3646 -2e-4,0.3646 0.025,0 0.029,0.16495 0.01,0.29279 -0.01,0.0487 -0.026,0.0829 -0.044,0.0829 -0.02,0 -0.03,0.0261 -0.03,0.0741 0,0.0408 -0.01,0.13522 -0.014,0.20992 -0.013,0.12852 -0.012,0.13583 0.033,0.13583 0.045,0 0.047,0.0106 0.047,0.18782 0,0.18285 0,0.18783 -0.052,0.18783 -0.043,0 -0.055,0.0143 -0.066,0.0829 -0.01,0.0456 -0.014,0.14004 -0.014,0.20992 -2e-4,0.12086 0,0.12706 0.055,0.12706 0.055,0 0.055,0.002 0.055,0.18642 v 0.18643 l -0.072,0.007 -0.072,0.007 -0.01,0.2044 -0.01,0.2044 h 0.078 0.078 v 0.18782 0.18783 h -0.1 -0.099 v 0.20992 0.20992 h 0.099 c 0.096,0 0.1,0.002 0.1,0.0663 v 0.0663 h -0.2099 -0.21 z m 0.5892,-10.72718 c 0.028,-0.0844 0.052,-0.16448 0.052,-0.17795 0,-0.0135 -0.072,-0.0477 -0.1602,-0.076 -0.088,-0.0283 -0.1721,-0.056 -0.1866,-0.0615 -0.017,-0.006 -0.048,0.0597 -0.085,0.18151 -0.032,0.10532 -0.055,0.19362 -0.051,0.19621 0.035,0.0222 0.3039,0.0981 0.3369,0.095 0.031,-0.003 0.056,-0.0431 0.094,-0.15736 z m 0.2301,-0.71354 c 0.03,-0.094 0.054,-0.17947 0.054,-0.1899 0,-0.0176 -0.3028,-0.12433 -0.3544,-0.125 -0.019,-2.4e-4 -0.1517,0.35415 -0.1367,0.36555 0.013,0.009 0.3391,0.117 0.3601,0.11855 0.013,9.5e-4 0.048,-0.0752 0.077,-0.1692 z m 0.2481,-0.74059 c 0.052,-0.15728 0.053,-0.17285 0.019,-0.19039 -0.057,-0.0294 -0.3375,-0.11896 -0.3448,-0.11017 -0.021,0.025 -0.1207,0.36026 -0.1104,0.37077 0.025,0.0254 0.3522,0.12833 0.3655,0.1149 0.01,-0.008 0.039,-0.0909 0.07,-0.18511 z m 0.2386,-0.71092 c 0.035,-0.0963 0.061,-0.17718 0.058,-0.17971 -0.015,-0.0131 -0.3324,-0.12028 -0.3559,-0.12028 -0.015,0 -0.051,0.0721 -0.079,0.1602 -0.028,0.0881 -0.056,0.17158 -0.061,0.18549 -0.01,0.0258 0.2871,0.14105 0.3437,0.13343 0.016,-0.002 0.059,-0.0828 0.094,-0.17913 z m 0.2467,-0.70227 c 0.068,-0.20767 0.077,-0.19112 -0.1529,-0.26901 l -0.158,-0.0534 -0.057,0.15796 c -0.031,0.0869 -0.059,0.17126 -0.063,0.1875 0,0.0187 0.055,0.0527 0.1594,0.0926 0.091,0.0347 0.176,0.0637 0.1886,0.0644 0.013,7.1e-4 0.05,-0.0803 0.082,-0.18001 z m 0.255,-0.7081 c 0.036,-0.10027 0.063,-0.18541 0.06,-0.1892 -0.023,-0.0242 -0.3549,-0.13283 -0.3662,-0.11974 -0.028,0.032 -0.132,0.34292 -0.1195,0.35551 0.013,0.0125 0.3163,0.13024 0.3455,0.13391 0.01,10e-4 0.044,-0.0802 0.081,-0.18048 z m 0.2089,-0.56348 c 0.01,-0.0213 0.036,-0.10518 0.067,-0.18646 l 0.057,-0.1478 -0.1773,-0.0677 c -0.098,-0.0372 -0.1849,-0.063 -0.1942,-0.0573 -0.024,0.0145 -0.1415,0.34284 -0.1281,0.35626 0.012,0.0118 0.3278,0.13823 0.3508,0.14036 0.01,7.1e-4 0.019,-0.0161 0.025,-0.0374 z m 0.3172,-0.83902 c 0.035,-0.0938 0.067,-0.1773 0.07,-0.18549 0.01,-0.0226 -0.3543,-0.1561 -0.372,-0.13629 -0.026,0.0291 -0.1373,0.33951 -0.1259,0.35092 0.012,0.0115 0.3276,0.138 0.3502,0.14015 0.01,7.1e-4 0.042,-0.0755 0.077,-0.16929 z m 0.2754,-0.70321 c 0.034,-0.0845 0.063,-0.16543 0.063,-0.17974 10e-4,-0.0227 -0.3495,-0.1752 -0.3621,-0.1575 -0.014,0.02 -0.1441,0.35749 -0.1394,0.36209 0.017,0.017 0.3402,0.13855 0.3564,0.13415 0.011,-0.003 0.047,-0.0745 0.082,-0.159 z"
       style="fill:#000000;fill-opacity:1;stroke:#40002b;stroke-width:0;stroke-linejoin:bevel;stroke-miterlimit:4;stroke-dasharray:none;stroke-dashoffset:0;stroke-opacity:0.996074" />
    <path
       transform="scale(0.26458333)"
       id="path1366"
       d="m 1801.0394,553.32754 c 0,-23.76664 0.031,-26.87006 0.2652,-26.87006 0.1459,0 0.2652,-0.15651 0.2652,-0.348 0,-0.24629 -0.083,-0.3163 -0.2827,-0.23954 -0.2487,0.0954 -0.254,0.0601 -0.044,-0.29381 0.1802,-0.30393 0.1869,-0.42104 0.027,-0.47905 -0.1595,-0.0579 -0.2148,-2.13234 -0.2256,-8.46218 -0.014,-8.30862 -0.011,-8.38542 0.3437,-8.38542 0.2006,0 0.3582,-0.1167 0.3582,-0.26516 0,-0.14731 -0.1571,-0.26517 -0.3535,-0.26517 -0.1945,0 -0.3536,-0.0796 -0.3536,-0.17677 0,-0.0972 0.1194,-0.17678 0.2652,-0.17678 0.3699,0 0.3331,-0.48665 -0.044,-0.58525 -0.2946,-0.077 -0.2946,-0.0818 0,-0.10135 0.3761,-0.0249 0.4183,-0.55084 0.044,-0.55084 -0.1458,0 -0.2652,-0.0795 -0.2652,-0.17677 0,-0.0972 0.1194,-0.17678 0.2652,-0.17678 0.3699,0 0.3331,-0.48665 -0.044,-0.58525 -0.2946,-0.077 -0.2946,-0.0818 0,-0.10135 0.3761,-0.0249 0.4183,-0.55084 0.044,-0.55084 -0.1458,0 -0.2652,-0.0795 -0.2652,-0.17677 0,-0.0972 0.1194,-0.17678 0.2652,-0.17678 0.1458,0 0.2652,-0.11932 0.2652,-0.26516 0,-0.14585 -0.1194,-0.26517 -0.2652,-0.26517 -0.2189,0 -0.2112,-0.0541 0.044,-0.30989 0.2947,-0.29518 0.3271,-0.19661 0.6827,2.07713 2.5037,16.00651 9.1326,30.61255 19.6563,43.31082 3.444,4.15552 10.0589,10.43227 14.4824,13.74186 1.3739,1.02792 1.9923,1.56375 1.9923,1.7261 v 0.25962 c 0,0.0942 0.1136,0.12766 0.2523,0.0744 0.1842,-0.0707 0.2264,0.002 0.1562,0.27071 -0.1092,0.41765 0.2067,0.50036 0.4246,0.11114 0.1144,-0.20446 0.5324,-0.005 2.0643,0.98323 12.5066,8.07106 26.3896,12.83339 41.12,14.10552 1.0389,0.0897 -3.886,0.1543 -12.9135,0.16934 -11.1417,0.0186 -14.6431,-0.0259 -14.805,-0.18782 -0.165,-0.16499 -0.2593,-0.16499 -0.4243,0 -0.2878,0.28783 -4.5846,0.29444 -4.8716,0.007 -0.155,-0.155 -0.2788,-0.14428 -0.5103,0.0442 -0.2699,0.21963 -0.2924,0.21319 -0.192,-0.0549 0.1406,-0.3754 -0.1816,-0.60526 -0.4593,-0.32761 -0.1542,0.15427 -0.1397,0.24479 0.06,0.3708 0.1667,0.1054 -4.108,0.16771 -11.6245,0.16942 -10.6969,0.002 -11.8883,-0.0252 -11.8883,-0.27542 0,-0.17281 -0.1171,-0.25251 -0.3093,-0.21048 -0.1702,0.0372 -0.2895,0.16237 -0.2652,0.27813 0.034,0.16107 -2.6527,0.21047 -11.4463,0.21047 h -11.4905 z m 52.8078,26.47231 c -0.043,-0.12153 -0.2141,-0.20901 -0.3805,-0.19439 -0.1836,0.0161 -0.2673,-0.0649 -0.2131,-0.20634 0.1109,-0.28895 -0.3626,-0.49586 -0.5267,-0.2302 -0.1308,0.21153 0.5845,0.84167 0.9625,0.84797 0.1297,0.002 0.2007,-0.0955 0.1578,-0.21704 z m -6.1107,-0.52885 c -0.1748,-0.17481 -0.2521,-0.16676 -0.3796,0.0395 -0.1033,0.16723 -0.086,0.30505 0.05,0.38891 0.3161,0.19538 0.5931,-0.1648 0.3295,-0.42844 z m -23.6182,0.20409 c 0.1822,-0.29476 -0.2275,-0.63277 -0.4714,-0.38891 -0.204,0.20399 -0.076,0.58109 0.1967,0.58109 0.086,0 0.2094,-0.0865 0.2747,-0.19218 z m 22.981,-0.17678 c 0.065,-0.1057 0.027,-0.28402 -0.085,-0.39627 -0.1543,-0.15427 -0.2426,-0.14178 -0.3619,0.0512 -0.1685,0.27262 -0.083,0.53729 0.1725,0.53729 0.086,0 0.2094,-0.0865 0.2747,-0.19218 z m 5.1134,-0.7721 c -0.7222,-0.58071 -1.0586,-0.2484 -0.358,0.3536 0.3586,0.30812 0.5694,0.38519 0.699,0.25555 0.1297,-0.12964 0.027,-0.31335 -0.341,-0.60915 z m -5.7753,0.30137 c -0.072,-0.37262 -0.3855,-0.34912 -0.4654,0.0349 -0.033,0.16015 0.064,0.2745 0.2339,0.2745 0.1821,0 0.2688,-0.11586 0.2315,-0.30936 z m -22.7043,-0.008 c 0.048,-0.0776 0.016,-0.25588 -0.07,-0.39627 -0.1193,-0.19294 -0.2076,-0.20543 -0.3619,-0.0512 -0.1122,0.11225 -0.1506,0.29057 -0.085,0.39627 0.1396,0.22587 0.3942,0.25103 0.5177,0.0512 z m 22.0308,-0.29049 c 0,-0.1401 -0.074,-0.3005 -0.1645,-0.35643 -0.2102,-0.12989 -0.4216,0.20113 -0.2774,0.43439 0.1626,0.26302 0.4419,0.21374 0.4419,-0.078 z m -0.6065,-0.29536 c 0.1524,-0.24656 -0.3077,-0.5509 -0.5168,-0.34183 -0.17,0.17005 -0.01,0.53837 0.2395,0.53837 0.086,0 0.2105,-0.0884 0.2773,-0.19654 z m 5.8456,-0.62306 c -0.3707,-0.37071 -0.5246,-0.43002 -0.689,-0.26558 -0.1645,0.16444 -0.094,0.3063 0.3149,0.63526 0.7035,0.56571 1.0083,0.26453 0.3741,-0.36968 z m -27.7686,0.45065 c 0.065,-0.1057 0.049,-0.26149 -0.035,-0.3462 -0.2091,-0.20907 -0.6692,0.0953 -0.5168,0.34184 0.1544,0.24985 0.3991,0.25179 0.552,0.004 z m 21.2159,-0.18114 c 0.067,-0.1081 0.014,-0.263 -0.1174,-0.34422 -0.2519,-0.15565 -0.5584,0.14838 -0.403,0.39974 0.1244,0.20127 0.3785,0.17417 0.5204,-0.0555 z m -0.7098,-0.34919 c 0.065,-0.1057 0.027,-0.28402 -0.085,-0.39627 -0.1543,-0.15427 -0.2426,-0.14179 -0.3618,0.0512 -0.1685,0.27262 -0.084,0.5373 0.1724,0.5373 0.086,0 0.2094,-0.0865 0.2747,-0.19218 z m -20.8912,-0.12562 c 0.1553,-0.25136 -0.1512,-0.55539 -0.403,-0.39974 -0.1314,0.0812 -0.1843,0.23612 -0.1175,0.34422 0.142,0.22969 0.3961,0.25679 0.5205,0.0555 z m 20.263,-0.29049 c 0,-0.1401 -0.074,-0.3005 -0.1646,-0.35644 -0.2101,-0.12989 -0.4215,0.20113 -0.2773,0.4344 0.1625,0.26302 0.4419,0.21373 0.4419,-0.078 z m 7.0711,-0.0104 c 0,-0.14584 -0.1194,-0.26516 -0.2652,-0.26516 -0.1458,0 -0.2652,0.11932 -0.2652,0.26516 0,0.14584 0.1194,0.26517 0.2652,0.26517 0.1458,0 0.2652,-0.11933 0.2652,-0.26517 z m -7.7199,-0.33892 c 0.1095,-0.28527 -0.3454,-0.53033 -0.505,-0.27208 -0.1203,0.19463 0.044,0.52261 0.2614,0.52261 0.081,0 0.1907,-0.11274 0.2436,-0.25053 z m 6.4824,-0.81013 c -0.5245,-0.46538 -0.8458,-0.63915 -0.9636,-0.5213 -0.1179,0.11785 0.086,0.40947 0.6101,0.87485 0.5245,0.46538 0.8457,0.63915 0.9636,0.5213 0.1179,-0.11785 -0.086,-0.40947 -0.6101,-0.87485 z m -26.4207,0.69521 c 0.064,-0.10378 -0.041,-0.22996 -0.2342,-0.28042 -0.242,-0.0633 -0.3234,-0.19668 -0.2624,-0.43004 0.059,-0.22629 0,-0.3383 -0.1868,-0.3383 -0.4014,0 -0.5097,0.27984 -0.2059,0.53194 0.1447,0.12015 0.2632,0.32804 0.2632,0.46197 0,0.28705 0.4578,0.32715 0.6261,0.0548 z m 19.2009,-0.56115 c -0.1748,-0.17481 -0.2521,-0.16676 -0.3796,0.0395 -0.1034,0.16723 -0.086,0.30505 0.05,0.38891 0.3161,0.19538 0.5931,-0.16481 0.3295,-0.42844 z m -0.5597,-0.18869 c 0,-0.24832 -0.864,-0.68481 -1.0841,-0.54874 -0.2909,0.17976 -0.1497,0.46723 0.1863,0.37936 0.2334,-0.061 0.3668,0.0204 0.4301,0.26233 0.094,0.35988 0.4701,0.28514 0.4677,-0.0929 z m -19.4441,-0.66096 c 0,-0.21765 -0.328,-0.38174 -0.5226,-0.26145 -0.2583,0.15961 -0.013,0.61449 0.2721,0.50502 0.1378,-0.0529 0.2505,-0.16248 0.2505,-0.24357 z m 18.1318,-0.0113 c 0.067,-0.1081 0.014,-0.26299 -0.1174,-0.34422 -0.2519,-0.15564 -0.5584,0.14838 -0.403,0.39974 0.1244,0.20128 0.3785,0.17417 0.5204,-0.0555 z m 7.9975,-0.11282 c -0.072,-0.37261 -0.3855,-0.34912 -0.4654,0.0349 -0.033,0.16015 0.064,0.2745 0.2339,0.2745 0.1821,0 0.2688,-0.11586 0.2315,-0.30936 z m -8.6284,-0.29893 c 0,-0.1401 -0.074,-0.3005 -0.1646,-0.35643 -0.2101,-0.1299 -0.4215,0.20113 -0.2773,0.43439 0.1625,0.26302 0.4419,0.21374 0.4419,-0.078 z m -17.8544,-0.28408 c 0,-0.0811 -0.086,-0.20087 -0.1922,-0.2662 -0.2455,-0.1517 -0.5915,0.18455 -0.4408,0.42834 0.1254,0.20302 0.633,0.073 0.633,-0.16214 z m 25.9861,0.0969 c 0,-0.14584 -0.1146,-0.26516 -0.2547,-0.26516 -0.2953,0 -0.4947,0.25231 -0.3297,0.41728 0.2113,0.21128 0.5844,0.11415 0.5844,-0.15212 z m -8.8462,-0.52001 c -0.108,-0.10804 -0.2489,-0.0899 -0.3889,0.0501 -0.1748,0.1748 -0.1667,0.25208 0.04,0.37957 0.3103,0.1918 0.6065,-0.17248 0.3493,-0.42965 z m 8.3159,0.0885 c 0,-0.23871 -0.3222,-0.40419 -0.5332,-0.27381 -0.099,0.0611 -0.1339,0.18509 -0.078,0.2756 0.1327,0.21471 0.6112,0.21332 0.6112,-0.002 z m -25.9279,-0.467 c -0.053,-0.13779 -0.1624,-0.25054 -0.2435,-0.25054 -0.2177,0 -0.3818,0.32799 -0.2615,0.52261 0.1596,0.25826 0.6145,0.0132 0.505,-0.27207 z m 17.0891,0.17079 c 0,-0.20237 -0.1073,-0.25773 -0.3675,-0.18968 -0.2597,0.0679 -0.3408,0.0264 -0.2764,-0.14152 0.1122,-0.29226 -0.3592,-0.50317 -0.5249,-0.23492 -0.128,0.2071 0.581,0.84145 0.9478,0.84797 0.1215,0.002 0.221,-0.12467 0.221,-0.28185 z m 8.3085,-0.23412 c 0,-0.23871 -0.3223,-0.40419 -0.5332,-0.27381 -0.099,0.0611 -0.1339,0.18509 -0.078,0.2756 0.1327,0.21471 0.6112,0.21332 0.6112,-0.002 z m -25.8367,-0.61996 c 0.039,-0.20153 -0.025,-0.28653 -0.1768,-0.23587 -0.1308,0.0436 -0.2653,0.22099 -0.2989,0.39427 -0.039,0.20153 0.025,0.28653 0.1767,0.23587 0.1309,-0.0436 0.2654,-0.22098 0.299,-0.39427 z m 15.8452,-0.35112 c -0.2896,-0.23095 -0.5863,-0.38301 -0.6592,-0.33791 -0.2027,0.12523 -0.1579,0.59145 0.057,0.59145 0.1042,0 0.3138,0.12444 0.4659,0.27653 0.2002,0.20016 0.33,0.22313 0.4699,0.0832 0.14,-0.13995 0.048,-0.30932 -0.3333,-0.61325 z m 9.4611,0.44075 c 0,-0.23871 -0.3222,-0.40419 -0.5332,-0.27381 -0.099,0.0611 -0.1339,0.18509 -0.078,0.2756 0.1327,0.21471 0.6111,0.21332 0.6111,-0.002 z m -25.721,-0.54076 c 0.1612,-0.26075 -0.062,-0.52946 -0.348,-0.41959 -0.1366,0.0524 -0.2051,0.20804 -0.1522,0.34583 0.112,0.29203 0.3442,0.32626 0.5002,0.0738 z m 25.0948,0.0122 c 0.1307,-0.21153 -0.2018,-0.42113 -0.4373,-0.2756 -0.1977,0.12218 -0.068,0.44016 0.1797,0.44016 0.086,0 0.2016,-0.0741 0.2576,-0.16456 z m -9.9804,-0.72494 c -0.5327,-0.40992 -0.8838,-0.44281 -0.8838,-0.0828 0,0.14584 0.085,0.26516 0.1894,0.26516 0.1041,0 0.3138,0.12444 0.4659,0.27653 0.2038,0.20377 0.3284,0.22451 0.4735,0.0788 0.1449,-0.14544 0.08,-0.28756 -0.245,-0.53776 z m 9.4649,0.17063 c 0.1627,-0.26325 -0.026,-0.40637 -0.3644,-0.27649 -0.1562,0.0599 -0.2345,0.18909 -0.174,0.287 0.1433,0.23185 0.3916,0.227 0.5384,-0.0105 z m -24.9233,-0.18042 c 0.065,-0.1057 0.049,-0.26148 -0.035,-0.34619 -0.2091,-0.20907 -0.6692,0.0953 -0.5169,0.34183 0.1545,0.24986 0.3992,0.25179 0.5521,0.004 z m 14.221,-0.87409 c -0.5327,-0.40992 -0.8839,-0.44281 -0.8839,-0.0828 0,0.14584 0.085,0.26517 0.1894,0.26517 0.1042,0 0.3139,0.12444 0.466,0.27653 0.2037,0.20376 0.3283,0.22451 0.4735,0.0788 0.1449,-0.14544 0.08,-0.28756 -0.245,-0.53776 z m 10.1647,0.53594 c 0.1903,-0.30801 -0.092,-0.57079 -0.3674,-0.34211 -0.1361,0.11297 -0.2039,0.27593 -0.1506,0.36214 0.129,0.20865 0.3827,0.19884 0.518,-0.02 z m -24.7393,-0.36895 c 0.1822,-0.29477 -0.2275,-0.63278 -0.4714,-0.38891 -0.204,0.20398 -0.076,0.58108 0.1968,0.58108 0.086,0 0.2093,-0.0865 0.2746,-0.19217 z m 24.2089,-0.30869 c 0,-0.31973 -0.346,-0.26136 -0.4146,0.0699 -0.038,0.18433 0.028,0.26514 0.1768,0.21558 0.1308,-0.0436 0.2378,-0.17209 0.2378,-0.28552 z m -10.9521,-0.833 c -0.3571,-0.3069 -0.5697,-0.38492 -0.6982,-0.25636 -0.1286,0.12857 -0.029,0.31909 0.3286,0.62599 0.3572,0.3069 0.5697,0.38492 0.6982,0.25636 0.1286,-0.12857 0.029,-0.31909 -0.3286,-0.62599 z m -13.6419,0.48573 c 0.048,-0.0776 0.016,-0.25588 -0.071,-0.39627 -0.1193,-0.19293 -0.2076,-0.20542 -0.3619,-0.0512 -0.1122,0.11225 -0.1506,0.29057 -0.085,0.39627 0.1396,0.22586 0.3943,0.25102 0.5178,0.0512 z m 24.1521,-0.31135 c 0,-0.29169 -0.2794,-0.34097 -0.4419,-0.078 -0.1442,0.23326 0.067,0.56428 0.2773,0.43439 0.091,-0.0559 0.1646,-0.21633 0.1646,-0.35644 z m -0.5228,-0.6715 c -0.2361,-0.23603 -0.6319,0.12164 -0.4537,0.40995 0.092,0.14839 0.1911,0.14514 0.381,-0.0125 0.1783,-0.14793 0.2005,-0.26965 0.073,-0.39749 z m -23.9829,0.27575 c 0.048,-0.0776 0.016,-0.25589 -0.071,-0.39627 -0.1192,-0.19294 -0.2075,-0.20543 -0.3618,-0.0512 -0.1123,0.11225 -0.1507,0.29057 -0.085,0.39627 0.1396,0.22587 0.3942,0.25103 0.5177,0.0512 z m 13.192,-0.31135 c 0,-0.14011 -0.1193,-0.25474 -0.2652,-0.25474 -0.2662,0 -0.3634,0.37318 -0.1521,0.58445 0.165,0.16498 0.4173,-0.0344 0.4173,-0.32971 z m -0.6066,-0.27432 c 0.1569,-0.25389 -0.8418,-1.06741 -1.0554,-0.85967 -0.094,0.0911 0.016,0.33953 0.2652,0.60247 0.4732,0.4988 0.6128,0.54422 0.7902,0.2572 z m 10.9064,0.0907 c 0.058,-0.0581 0.062,-0.21925 0.01,-0.35807 -0.074,-0.19263 -0.1543,-0.20472 -0.3394,-0.0511 -0.1334,0.11072 -0.199,0.27185 -0.1457,0.35806 0.1118,0.18095 0.3237,0.20367 0.4763,0.0511 z m -23.8453,-0.21213 c 0.048,-0.0776 0.016,-0.25588 -0.071,-0.39627 -0.1193,-0.19294 -0.2076,-0.20542 -0.3619,-0.0512 -0.1122,0.11224 -0.1506,0.29056 -0.085,0.39626 0.1396,0.22587 0.3942,0.25103 0.5178,0.0512 z m 23.3566,-0.53662 c 0,-0.31973 -0.346,-0.26136 -0.4146,0.0699 -0.038,0.18432 0.028,0.26514 0.1767,0.21557 0.1309,-0.0436 0.2379,-0.17209 0.2379,-0.28552 z m -23.7102,-0.17049 c 0.1398,-0.22615 -0.1844,-0.62317 -0.4001,-0.48991 -0.2838,0.1754 -0.2417,0.63094 0.058,0.63094 0.1401,0 0.294,-0.0635 0.3419,-0.14103 z m 12.1313,-0.31135 c 0,-0.1401 -0.1193,-0.25473 -0.2651,-0.25473 -0.2663,0 -0.3634,0.37317 -0.1522,0.58445 0.165,0.16498 0.4173,-0.0344 0.4173,-0.32972 z m 11.1444,-0.31795 c -0.236,-0.23603 -0.6318,0.12165 -0.4536,0.40996 0.092,0.14839 0.1911,0.14513 0.381,-0.0125 0.1782,-0.14793 0.2005,-0.26965 0.073,-0.39749 z m -12.2858,-0.73664 c -0.3798,-0.33789 -0.7954,-0.61435 -0.9236,-0.61435 -0.1282,0 -0.2331,-0.11933 -0.2331,-0.26517 0,-0.14584 -0.1193,-0.26516 -0.2651,-0.26516 -0.1459,0 -0.2652,0.11932 -0.2652,0.26516 0,0.14584 0.1193,0.26517 0.2652,0.26517 0.1458,0 0.2651,0.11932 0.2651,0.26516 0,0.14584 0.077,0.26517 0.1707,0.26517 0.094,0 0.4215,0.24515 0.728,0.54479 0.4073,0.39816 0.61,0.49215 0.7529,0.34919 0.143,-0.14296 0.01,-0.36097 -0.4949,-0.80996 z m -11.4097,0.43158 c 0,-0.43082 -0.4131,-0.36992 -0.4991,0.0736 -0.034,0.17444 0.056,0.29471 0.2209,0.29471 0.164,0 0.2782,-0.15114 0.2782,-0.36828 z m 23.2461,-0.17678 c 0,-0.13774 -0.1322,-0.22866 -0.2939,-0.20204 -0.2164,0.0356 -0.2692,-0.0459 -0.2004,-0.30936 0.051,-0.19676 0.01,-0.35775 -0.093,-0.35775 -0.3543,0 -0.3985,0.34473 -0.1021,0.79703 0.3078,0.46975 0.6898,0.5097 0.6898,0.0721 z m -23.5997,-0.53033 c 0,-0.43081 -0.4131,-0.36992 -0.4991,0.0736 -0.034,0.17444 0.056,0.29471 0.221,0.29471 0.164,0 0.2781,-0.15114 0.2781,-0.36828 z m -0.2872,-0.47985 c 0.1397,-0.22615 -0.1845,-0.62317 -0.4001,-0.48991 -0.2838,0.1754 -0.2418,0.63094 0.058,0.63094 0.1401,0 0.2939,-0.0635 0.3419,-0.14103 z m 23.003,-0.13887 c 0,-0.0891 -0.1384,-0.35768 -0.3077,-0.59679 -0.2242,-0.31674 -0.3606,-0.38184 -0.5026,-0.23986 -0.142,0.14198 -0.1117,0.32172 0.1114,0.66224 0.2861,0.43668 0.6989,0.5397 0.6989,0.17441 z m -14.1446,-1.92729 c -1.0208,-0.96705 -1.6402,-1.43575 -1.751,-1.32491 -0.1109,0.11085 0.3817,0.70641 1.3924,1.68352 1.1,1.06352 1.6194,1.4565 1.751,1.32491 0.1316,-0.13159 -0.2814,-0.63094 -1.3924,-1.68352 z m -9.3318,1.36012 c 0.1273,-0.0809 0.1528,-0.22977 0.064,-0.37349 -0.1743,-0.28205 -0.5407,-0.10673 -0.5407,0.25872 0,0.28166 0.1554,0.31908 0.4768,0.11477 z m -0.2417,-1.02372 c -0.053,-0.13779 -0.1625,-0.25053 -0.2436,-0.25053 -0.2177,0 -0.3817,0.32798 -0.2615,0.52261 0.1597,0.25825 0.6145,0.0132 0.5051,-0.27208 z m -0.3536,-0.70711 c -0.053,-0.13779 -0.1625,-0.25053 -0.2436,-0.25053 -0.2176,0 -0.3817,0.32798 -0.2614,0.52261 0.1596,0.25826 0.6145,0.0132 0.505,-0.27208 z m -0.2351,-0.61256 c 0,-0.0811 -0.087,-0.20088 -0.1921,-0.26621 -0.2455,-0.1517 -0.5916,0.18455 -0.4409,0.42834 0.1255,0.20302 0.633,0.073 0.633,-0.16213 z m -0.3535,-0.70711 c 0,-0.21766 -0.328,-0.38174 -0.5226,-0.26146 -0.2583,0.15962 -0.013,0.6145 0.272,0.50503 0.1378,-0.0529 0.2506,-0.16248 0.2506,-0.24357 z m 8.662,0.1073 c 0,-0.1401 -0.074,-0.3005 -0.1645,-0.35644 -0.2102,-0.12989 -0.4216,0.20114 -0.2774,0.4344 0.1625,0.26302 0.4419,0.21374 0.4419,-0.078 z m -0.6187,-0.80593 c -0.085,-0.13839 -0.1872,-0.14865 -0.3051,-0.0308 -0.097,0.0972 -0.119,0.27018 -0.048,0.38436 0.085,0.13838 0.1872,0.14865 0.305,0.0308 0.097,-0.0972 0.1191,-0.27019 0.048,-0.38436 z m -8.3969,-0.008 c 0,-0.21766 -0.328,-0.38174 -0.5226,-0.26146 -0.2582,0.15961 -0.013,0.6145 0.2721,0.50503 0.1378,-0.0529 0.2505,-0.16248 0.2505,-0.24357 z m 7.8666,-0.52185 c -0.086,-0.13839 -0.1872,-0.14865 -0.3051,-0.0308 -0.097,0.0972 -0.119,0.27018 -0.049,0.38436 0.086,0.13838 0.1873,0.14865 0.3051,0.0308 0.097,-0.0972 0.119,-0.27019 0.049,-0.38436 z m -8.2201,-0.26516 c 0,-0.14732 -0.1572,-0.26517 -0.3536,-0.26517 -0.3522,0 -0.4598,0.18837 -0.2357,0.41248 0.2153,0.2153 0.5893,0.12181 0.5893,-0.14731 z m 7.6898,-0.26517 c -0.086,-0.13839 -0.1873,-0.14865 -0.3051,-0.0308 -0.097,0.0972 -0.1191,0.27018 -0.049,0.38436 0.085,0.13838 0.1872,0.14865 0.3051,0.0308 0.097,-0.0972 0.119,-0.27019 0.048,-0.38436 z m -0.442,-0.45237 c 0,-0.2917 -0.2794,-0.34098 -0.4419,-0.078 -0.1442,0.23326 0.067,0.56429 0.2774,0.43439 0.091,-0.0559 0.1645,-0.21633 0.1645,-0.35643 z m -7.6014,0.0104 c 0,-0.14584 -0.1193,-0.26516 -0.2651,-0.26516 -0.1459,0 -0.2652,0.11932 -0.2652,0.26516 0,0.14584 0.1193,0.26517 0.2652,0.26517 0.1458,0 0.2651,-0.11933 0.2651,-0.26517 z m 7.0786,-0.68194 c -0.2361,-0.23603 -0.6319,0.12165 -0.4537,0.40996 0.092,0.14839 0.1911,0.14514 0.381,-0.0125 0.1783,-0.14792 0.2005,-0.26965 0.073,-0.39749 z m -7.3854,0.13433 c 0.058,-0.0581 0.065,-0.2122 0.015,-0.34239 -0.1133,-0.29546 -0.5919,-0.13231 -0.5919,0.20181 0,0.24676 0.3787,0.339 0.5771,0.14058 z m 6.855,-0.66466 c -0.236,-0.23603 -0.6318,0.12165 -0.4536,0.40996 0.092,0.14839 0.1911,0.14514 0.381,-0.0125 0.1782,-0.14792 0.2005,-0.26965 0.073,-0.39749 z m -7.189,-0.0778 c 0.048,-0.0776 0.016,-0.25588 -0.071,-0.39627 -0.1192,-0.19294 -0.2076,-0.20543 -0.3618,-0.0512 -0.1123,0.11225 -0.1507,0.29057 -0.085,0.39627 0.1396,0.22587 0.3943,0.25103 0.5178,0.0512 z m 6.7321,-0.20032 c 0.1307,-0.21153 -0.2018,-0.42112 -0.4373,-0.27559 -0.1977,0.12218 -0.068,0.44016 0.1796,0.44016 0.086,0 0.2017,-0.0741 0.2577,-0.16457 z m -7.054,-0.55794 c 0.1517,-0.24545 -0.1846,-0.59151 -0.4284,-0.44083 -0.203,0.12547 -0.073,0.63301 0.1622,0.63301 0.081,0 0.2008,-0.0865 0.2662,-0.19218 z m 6.5407,0 c 0.065,-0.1057 0.049,-0.26149 -0.035,-0.3462 -0.2091,-0.20907 -0.6692,0.0953 -0.5169,0.34184 0.1545,0.24985 0.3992,0.25179 0.5521,0.004 z m -0.5398,-0.70644 c 0,-0.13774 -0.1323,-0.22866 -0.294,-0.20204 -0.2164,0.0356 -0.2692,-0.0459 -0.2003,-0.30936 0.051,-0.19676 0.01,-0.35775 -0.093,-0.35775 -0.3544,0 -0.3985,0.34473 -0.1022,0.79703 0.3078,0.46976 0.6899,0.5097 0.6899,0.0721 z m -6.3069,-0.22089 c 0.034,-0.17443 -0.056,-0.29471 -0.2209,-0.29471 -0.164,0 -0.2782,0.15115 -0.2782,0.36829 0,0.43081 0.4131,0.36991 0.4991,-0.0736 z m -0.264,-0.75128 c -0.1218,-0.31741 -0.5886,-0.32918 -0.5886,-0.0148 0,0.3286 0.1693,0.46318 0.4481,0.3562 0.1302,-0.05 0.1934,-0.20358 0.1405,-0.34137 z m 5.6521,-0.15972 c 0.019,-0.0959 -0.1043,-0.20117 -0.2745,-0.23394 -0.1935,-0.0373 -0.3093,0.0494 -0.3093,0.23151 0,0.30756 0.5224,0.30972 0.5838,0.002 z m -5.8872,-0.44992 c 0,-0.21163 -0.4986,-0.43864 -0.644,-0.29321 -0.1548,0.1548 0.1078,0.47554 0.3893,0.47554 0.1401,0 0.2547,-0.082 0.2547,-0.18233 z m 5.4013,-0.01 c 0.065,-0.1057 0.049,-0.26149 -0.035,-0.34619 -0.2091,-0.20907 -0.6692,0.0953 -0.5168,0.34183 0.1544,0.24986 0.3991,0.25179 0.5521,0.004 z m -0.5304,-0.53033 c 0.1517,-0.24545 -0.1845,-0.5915 -0.4283,-0.44083 -0.203,0.12546 -0.073,0.633 0.1621,0.633 0.081,0 0.2009,-0.0865 0.2662,-0.19218 z m -5.2244,-0.22031 c 0,-0.3286 -0.1693,-0.46318 -0.4481,-0.35621 -0.2954,0.11338 -0.1323,0.59191 0.2018,0.59191 0.1355,0 0.2463,-0.10606 0.2463,-0.2357 z m 4.8265,-0.55737 c 0.019,-0.0959 -0.1044,-0.20117 -0.2745,-0.23394 -0.1935,-0.0373 -0.3094,0.0494 -0.3094,0.23152 0,0.30755 0.5225,0.30972 0.5839,0.002 z m -5.1138,-0.0551 c 0.1398,-0.22615 -0.1844,-0.62317 -0.4,-0.48991 -0.2838,0.1754 -0.2418,0.63093 0.058,0.63093 0.1401,0 0.294,-0.0635 0.3419,-0.14102 z m 4.5767,-0.3182 c 0.1847,-0.18472 -0.066,-0.5828 -0.3089,-0.48973 -0.1415,0.0543 -0.2225,-0.0294 -0.2064,-0.21311 0.015,-0.16637 -0.073,-0.33756 -0.1944,-0.38044 -0.3055,-0.10779 -0.2764,0.23295 0.064,0.75323 0.2882,0.43978 0.4518,0.52346 0.6452,0.33005 z m -4.8986,-0.44006 c 0.1822,-0.29476 -0.2276,-0.63277 -0.4714,-0.38891 -0.204,0.20399 -0.076,0.58109 0.1967,0.58109 0.086,0 0.2094,-0.0865 0.2747,-0.19218 z m -0.2747,-0.97578 c 0,-0.13544 -0.1193,-0.24626 -0.2652,-0.24626 -0.1459,0 -0.2651,0.15652 -0.2651,0.34801 0,0.23671 0.085,0.31546 0.2651,0.24625 0.1459,-0.056 0.2652,-0.21256 0.2652,-0.348 z m 4.3318,0.10605 c 0.061,-0.0979 -0.018,-0.22707 -0.174,-0.287 -0.3384,-0.12989 -0.5271,0.0132 -0.3644,0.27649 0.1468,0.23751 0.3951,0.24236 0.5384,0.0105 z m -0.5311,-0.52908 c 0.1612,-0.26076 -0.062,-0.52946 -0.348,-0.41959 -0.1366,0.0524 -0.2051,0.20804 -0.1522,0.34583 0.112,0.29203 0.3442,0.32626 0.5002,0.0738 z m -3.9775,-0.18233 c 0,-0.21163 -0.4986,-0.43864 -0.644,-0.29321 -0.1548,0.1548 0.1078,0.47554 0.3893,0.47554 0.1401,0 0.2547,-0.082 0.2547,-0.18233 z m 3.5891,-0.61075 c 0.019,-0.0959 -0.1044,-0.20116 -0.2745,-0.23393 -0.1935,-0.0373 -0.3094,0.0494 -0.3094,0.23151 0,0.30756 0.5225,0.30972 0.5839,0.002 z m -3.9763,-0.22339 c -0.072,-0.37262 -0.3855,-0.34912 -0.4654,0.0349 -0.033,0.16015 0.064,0.2745 0.2339,0.2745 0.1821,0 0.2688,-0.11586 0.2315,-0.30936 z m 3.4808,-0.41248 c 0,-0.15079 -0.1369,-0.2266 -0.344,-0.19052 -0.2806,0.0488 -0.3053,0.0132 -0.1341,-0.19304 0.2279,-0.2746 0.1156,-0.48559 -0.2584,-0.48559 -0.3154,0 -0.2972,0.27225 0.054,0.80824 0.3017,0.46039 0.6825,0.49438 0.6825,0.0609 z m -3.7344,-0.12629 c 0.048,-0.0776 0.016,-0.25588 -0.071,-0.39627 -0.1192,-0.19294 -0.2075,-0.20542 -0.3618,-0.0512 -0.1123,0.11225 -0.1507,0.29057 -0.085,0.39627 0.1396,0.22586 0.3942,0.25102 0.5177,0.0512 z m -0.243,-1.02694 c 0,-0.13543 -0.1061,-0.24625 -0.2357,-0.24625 -0.3286,0 -0.4632,0.16929 -0.3563,0.44806 0.1134,0.29546 0.592,0.13231 0.592,-0.20181 z m 3.0935,0.1073 c 0.1612,-0.26075 -0.062,-0.52946 -0.348,-0.41959 -0.1366,0.0524 -0.2051,0.20804 -0.1522,0.34584 0.1121,0.29203 0.3442,0.32625 0.5002,0.0738 z m -3.3144,-0.7513 c -0.1114,-0.33449 -0.663,-0.38205 -0.663,-0.0571 0,0.16398 0.1511,0.27812 0.3683,0.27812 0.216,0 0.3378,-0.0914 0.2947,-0.22097 z m 2.9533,0.0564 c 0.1308,-0.21153 -0.2018,-0.42112 -0.4372,-0.2756 -0.1977,0.12219 -0.068,0.44016 0.1796,0.44016 0.086,0 0.2017,-0.074 0.2576,-0.16456 z m -0.4938,-0.64198 c 0.028,-0.0911 -0.1018,-0.3646 -0.2887,-0.60767 -0.2767,-0.35977 -0.3822,-0.39978 -0.5673,-0.21518 -0.1854,0.18475 -0.1582,0.24489 0.1467,0.32461 0.2735,0.0715 0.3487,0.19515 0.2795,0.45981 -0.066,0.25078 -0.022,0.33774 0.142,0.28307 0.1302,-0.0434 0.2597,-0.15349 0.2878,-0.24464 z m -2.8026,-0.20992 c -0.072,-0.37262 -0.3855,-0.34912 -0.4655,0.0349 -0.033,0.16016 0.064,0.27451 0.234,0.27451 0.182,0 0.2687,-0.11586 0.2315,-0.30936 z m -0.2536,-0.53877 c 0.048,-0.0776 0.016,-0.25589 -0.071,-0.39627 -0.1193,-0.19294 -0.2076,-0.20543 -0.3619,-0.0512 -0.1122,0.11225 -0.1506,0.29057 -0.085,0.39627 0.1396,0.22587 0.3942,0.25103 0.5178,0.0512 z m 2.4085,-0.57457 c 0,-0.0811 -0.086,-0.20087 -0.1921,-0.2662 -0.2455,-0.1517 -0.5915,0.18455 -0.4409,0.42834 0.1255,0.20302 0.633,0.073 0.633,-0.16214 z m -2.6516,-0.45237 c 0,-0.13544 -0.1193,-0.24625 -0.2652,-0.24625 -0.1459,0 -0.2651,0.15652 -0.2651,0.348 0,0.23671 0.085,0.31547 0.2651,0.24625 0.1459,-0.056 0.2652,-0.21256 0.2652,-0.348 z m 2.1174,-0.11367 c 0,-0.12153 -0.157,-0.41985 -0.344,-0.66291 -0.2769,-0.35977 -0.3824,-0.39978 -0.5676,-0.21518 -0.1853,0.18474 -0.1581,0.24488 0.1467,0.3246 0.2635,0.0689 0.348,0.19789 0.2857,0.43615 -0.06,0.2302 0,0.33831 0.1973,0.33831 0.1572,0 0.284,-0.0994 0.2819,-0.22097 z m -2.2942,-0.57452 c 0,-0.14732 -0.1571,-0.26517 -0.3535,-0.26517 -0.3522,0 -0.4599,0.18836 -0.2357,0.41248 0.2153,0.2153 0.5892,0.12181 0.5892,-0.14731 z m -0.3068,-0.54762 c 0.058,-0.0581 0.065,-0.21219 0.015,-0.34239 -0.1133,-0.29546 -0.5919,-0.1323 -0.5919,0.20181 0,0.24676 0.3787,0.339 0.5771,0.14058 z m 1.8189,-0.0865 c 0.1822,-0.29476 -0.2275,-0.63277 -0.4714,-0.3889 -0.204,0.20398 -0.076,0.58108 0.1968,0.58108 0.086,0 0.2093,-0.0865 0.2746,-0.19218 z m -2.0736,-0.92732 c 0.034,-0.17444 -0.056,-0.29471 -0.221,-0.29471 -0.164,0 -0.2781,0.15114 -0.2781,0.36828 0,0.43082 0.413,0.36992 0.4991,-0.0736 z m 1.6885,0.27137 c 0.1553,-0.25135 -0.1512,-0.55538 -0.403,-0.39974 -0.1314,0.0812 -0.1843,0.23613 -0.1175,0.34423 0.142,0.22969 0.3961,0.25679 0.5205,0.0555 z m -0.4199,-0.83125 c 0,-0.14584 -0.1119,-0.26516 -0.2486,-0.26516 -0.1616,0 -0.2162,-0.12377 -0.1562,-0.35355 0.051,-0.19446 0.01,-0.35356 -0.094,-0.35356 -0.3233,0 -0.3825,0.28716 -0.1587,0.76929 0.2336,0.5031 0.658,0.63403 0.658,0.20298 z m -1.4142,-0.0939 c 0,-0.21163 -0.4986,-0.43864 -0.644,-0.29322 -0.1548,0.15481 0.1077,0.47554 0.3893,0.47554 0.1401,0 0.2547,-0.082 0.2547,-0.18232 z m -0.3068,-0.63046 c 0.058,-0.0581 0.065,-0.21219 0.015,-0.34239 -0.1133,-0.29546 -0.5919,-0.1323 -0.5919,0.20181 0,0.24676 0.3787,0.33901 0.5771,0.14058 z m 0.9102,-0.39982 c 0.1391,-0.22514 -0.3031,-1.08252 -0.5592,-1.08411 -0.1215,-7.6e-4 -0.221,0.11794 -0.221,0.26378 0,0.14584 0.1119,0.26517 0.2486,0.26517 0.1616,0 0.2163,0.12376 0.1562,0.35355 -0.091,0.34751 0.1915,0.49916 0.3754,0.20161 z m -1.161,-0.63436 c 0.039,-0.20153 -0.025,-0.28653 -0.1768,-0.23587 -0.1308,0.0436 -0.2653,0.22098 -0.2989,0.39427 -0.039,0.20153 0.025,0.28653 0.1767,0.23587 0.1309,-0.0436 0.2654,-0.22099 0.299,-0.39427 z m -0.1468,-0.6721 c 0,-0.16866 0.035,-0.17087 0.1373,-0.009 0.081,0.12729 0.2297,0.15278 0.3735,0.064 0.4138,-0.25579 0.038,-0.5359 -0.5645,-0.42119 -0.6841,0.13014 -0.724,0.15782 -0.575,0.399 0.1614,0.2611 0.6254,0.23716 0.6287,-0.0324 z m 0.2625,-0.83969 c 0,-0.19042 -0.1495,-0.24786 -0.5304,-0.20378 -0.6303,0.073 -0.6928,0.11754 -0.5313,0.37892 0.1786,0.28896 1.0617,0.14328 1.0617,-0.17514 z m -0.3728,-0.62249 c -0.046,-0.41362 -0.2999,-0.9685 -0.4433,-0.9685 -0.086,0 -0.1562,-0.15441 -0.1562,-0.34312 0,-0.18872 -0.08,-0.39229 -0.1768,-0.45238 -0.097,-0.0601 -0.1768,-0.30343 -0.1768,-0.54076 0,-0.23733 -0.072,-0.43151 -0.1602,-0.43151 -0.088,0 -0.1186,-0.1591 -0.068,-0.35355 0.068,-0.25979 0,-0.35428 -0.2375,-0.35626 -0.2382,-0.002 -0.2668,-0.0428 -0.103,-0.14672 0.1248,-0.0792 0.1762,-0.2764 0.1141,-0.43822 -0.062,-0.16182 -0.1841,-0.2502 -0.2712,-0.19641 -0.087,0.0538 -0.1582,0.0202 -0.1582,-0.0747 0,-0.0949 0.099,-0.20893 0.2209,-0.2535 0.3205,-0.11749 -0.036,-0.43511 -0.5701,-0.50768 -0.3165,-0.043 -0.456,0.0333 -0.5041,0.27568 -0.049,0.24719 0.01,0.30664 0.2166,0.22651 0.1557,-0.0597 0.2831,-0.0382 0.2831,0.0479 0,0.0861 -0.09,0.18656 -0.2004,0.22331 -0.1362,0.0454 -0.1174,0.14989 0.058,0.32567 0.1423,0.14237 0.2259,0.35754 0.1857,0.47815 -0.04,0.12062 0.052,0.26746 0.2058,0.32631 0.1533,0.0589 0.2399,0.16994 0.1924,0.24686 -0.048,0.0769 0.032,0.36689 0.1768,0.64439 0.1448,0.27749 0.3123,0.76307 0.3723,1.07905 0.06,0.31599 0.1812,0.57453 0.2695,0.57453 0.088,0 0.1116,0.19469 0.052,0.43264 -0.097,0.3885 -0.057,0.4287 0.3943,0.39399 0.2767,-0.0213 0.4944,-0.11652 0.4838,-0.21168 z m -2.544,-5.55915 c 0,-0.23671 -0.085,-0.31546 -0.2652,-0.24625 -0.1459,0.056 -0.2652,0.21256 -0.2652,0.348 0,0.13544 0.1193,0.24626 0.2652,0.24626 0.1459,0 0.2652,-0.15652 0.2652,-0.34801 z m 0.8397,0.12703 c -0.1113,-0.33449 -0.663,-0.38205 -0.663,-0.0572 0,0.16398 0.1512,0.27813 0.3683,0.27813 0.216,0 0.3379,-0.0914 0.2947,-0.22098 z m -1.1041,-0.66416 c 0.061,-0.0979 -0.018,-0.22706 -0.174,-0.287 -0.3385,-0.12988 -0.5271,0.0132 -0.3644,0.27649 0.1468,0.23751 0.3951,0.24236 0.5384,0.0105 z m 0.861,0.037 c 0.048,-0.0776 0.016,-0.25588 -0.071,-0.39627 -0.1193,-0.19293 -0.2076,-0.20542 -0.3619,-0.0512 -0.1122,0.11225 -0.1506,0.29057 -0.085,0.39627 0.1396,0.22586 0.3942,0.25102 0.5178,0.0512 z m -1.127,-0.83124 c 0,-0.14584 -0.1193,-0.26517 -0.2651,-0.26517 -0.1459,0 -0.2652,0.11933 -0.2652,0.26517 0,0.14584 0.1193,0.26516 0.2652,0.26516 0.1458,0 0.2651,-0.11932 0.2651,-0.26516 z m 0.9478,-0.17678 c -0.056,-0.14584 -0.2125,-0.26517 -0.348,-0.26517 -0.1354,0 -0.2462,0.11933 -0.2462,0.26517 0,0.1459 0.1565,0.26516 0.348,0.26516 0.2367,0 0.3154,-0.0848 0.2462,-0.26516 z m -1.3013,-0.53033 c 0,-0.14584 -0.1194,-0.26517 -0.2652,-0.26517 -0.1458,0 -0.2652,0.11933 -0.2652,0.26517 0,0.14584 0.1194,0.26516 0.2652,0.26516 0.1458,0 0.2652,-0.11932 0.2652,-0.26516 z m 1.1933,-0.13258 c -0.1114,-0.3345 -0.663,-0.38205 -0.663,-0.0572 0,0.16399 0.1511,0.27813 0.3683,0.27813 0.216,0 0.3378,-0.0914 0.2947,-0.22097 z m -1.3701,-0.49169 c 0,-0.21163 -0.4986,-0.43864 -0.6441,-0.29321 -0.1548,0.1548 0.1078,0.47554 0.3894,0.47554 0.1401,0 0.2547,-0.082 0.2547,-0.18233 z m 1.119,-0.45102 c -0.053,-0.13779 -0.1625,-0.25054 -0.2436,-0.25054 -0.2177,0 -0.3817,0.32799 -0.2615,0.52261 0.1596,0.25826 0.6145,0.0132 0.5051,-0.27207 z m -1.4726,-0.33892 c 0,-0.14584 -0.1193,-0.26517 -0.2651,-0.26517 -0.1459,0 -0.2652,0.11933 -0.2652,0.26517 0,0.14584 0.1193,0.26516 0.2652,0.26516 0.1458,0 0.2651,-0.11932 0.2651,-0.26516 z m 1.4143,-0.27072 c 0,-0.21163 -0.4987,-0.43864 -0.6441,-0.29321 -0.1548,0.1548 0.1078,0.47554 0.3893,0.47554 0.1401,0 0.2548,-0.082 0.2548,-0.18233 z m -1.591,-0.35355 c 0,-0.21163 -0.4987,-0.43864 -0.6441,-0.29322 -0.1548,0.15481 0.1078,0.47554 0.3893,0.47554 0.1401,0 0.2548,-0.082 0.2548,-0.18232 z m 1.3353,-0.36341 c 0.065,-0.1057 0.049,-0.26148 -0.035,-0.34619 -0.2091,-0.20907 -0.6692,0.0953 -0.5169,0.34183 0.1545,0.24986 0.3992,0.25179 0.5521,0.004 z m -1.6889,-0.42654 c 0,-0.14584 -0.1193,-0.26516 -0.2652,-0.26516 -0.1458,0 -0.2651,0.11932 -0.2651,0.26516 0,0.14584 0.1193,0.26517 0.2651,0.26517 0.1459,0 0.2652,-0.11933 0.2652,-0.26517 z m 1.591,-0.53033 c 0,-0.14731 -0.1571,-0.26516 -0.3536,-0.26516 -0.3521,0 -0.4598,0.18836 -0.2357,0.41248 0.2153,0.2153 0.5893,0.12181 0.5893,-0.14732 z m -1.7678,-0.17677 c 0,-0.14732 -0.1571,-0.26517 -0.3535,-0.26517 -0.3522,0 -0.4598,0.18836 -0.2357,0.41248 0.2153,0.2153 0.5892,0.12181 0.5892,-0.14731 z m 1.591,-0.53033 c 0,-0.14585 -0.1193,-0.26517 -0.2651,-0.26517 -0.1459,0 -0.2652,0.11932 -0.2652,0.26517 0,0.14584 0.1193,0.26516 0.2652,0.26516 0.1458,0 0.2651,-0.11932 0.2651,-0.26516 z m -1.9445,-0.17678 c 0,-0.14584 -0.1193,-0.26517 -0.2652,-0.26517 -0.1458,0 -0.2652,0.11933 -0.2652,0.26517 0,0.14584 0.1194,0.26516 0.2652,0.26516 0.1459,0 0.2652,-0.11932 0.2652,-0.26516 z m 1.7677,-0.72602 c 0,-0.13544 -0.1193,-0.24625 -0.2651,-0.24625 -0.1459,0 -0.2652,0.15652 -0.2652,0.348 0,0.23671 0.085,0.31547 0.2652,0.24626 0.1458,-0.056 0.2651,-0.21257 0.2651,-0.34801 z m -1.9445,0.0189 c 0,-0.14584 -0.1193,-0.26516 -0.2652,-0.26516 -0.1458,0 -0.2651,0.11932 -0.2651,0.26516 0,0.14584 0.1193,0.26517 0.2651,0.26517 0.1459,0 0.2652,-0.11933 0.2652,-0.26517 z m -0.2644,-0.61996 c 0.06,-0.0979 -0.018,-0.22707 -0.174,-0.28701 -0.3384,-0.12988 -0.5271,0.0132 -0.3644,0.27649 0.1468,0.23752 0.3951,0.24237 0.5384,0.0105 z m 2.0322,-0.0871 c 0,-0.14585 -0.1194,-0.26517 -0.2652,-0.26517 -0.1458,0 -0.2652,0.11932 -0.2652,0.26517 0,0.14584 0.1194,0.26516 0.2652,0.26516 0.1458,0 0.2652,-0.11932 0.2652,-0.26516 z m -0.2303,-0.5819 c 0.1273,-0.0809 0.1527,-0.22978 0.064,-0.3735 -0.1743,-0.28204 -0.5407,-0.10672 -0.5407,0.25872 0,0.28167 0.1554,0.31908 0.4768,0.11478 z m 0.053,-0.92625 c 0,-0.21164 -0.4986,-0.43865 -0.6441,-0.29322 -0.1548,0.1548 0.1078,0.47554 0.3894,0.47554 0.1401,0 0.2547,-0.0821 0.2547,-0.18232 z m -0.1768,-0.89307 c 0,-0.43081 -0.4131,-0.36992 -0.4991,0.0736 -0.034,0.17444 0.056,0.29471 0.221,0.29471 0.164,0 0.2781,-0.15114 0.2781,-0.36828 z m -0.1768,-0.78077 c 0,-0.14584 -0.1193,-0.26516 -0.2651,-0.26516 -0.1459,0 -0.2652,0.11932 -0.2652,0.26516 0,0.14585 0.1193,0.26517 0.2652,0.26517 0.1458,0 0.2651,-0.11932 0.2651,-0.26517 z m 0,-0.51587 c 0,-0.31187 -0.2501,-0.59391 -0.4565,-0.51471 -0.3781,0.14508 -0.3005,0.58864 0.103,0.58864 0.1944,0 0.3535,-0.0333 0.3535,-0.0739 z m -0.1767,-1.07512 c 0,-0.14731 -0.1572,-0.26516 -0.3536,-0.26516 -0.3522,0 -0.4598,0.18836 -0.2357,0.41248 0.2153,0.2153 0.5893,0.12181 0.5893,-0.14732 z m -0.1768,-0.7071 c 0,-0.14584 -0.1193,-0.26517 -0.2652,-0.26517 -0.1458,0 -0.2651,0.11933 -0.2651,0.26517 0,0.14584 0.1193,0.26516 0.2651,0.26516 0.1459,0 0.2652,-0.11932 0.2652,-0.26516 z m -0.1185,-0.89852 c -0.1218,-0.31741 -0.5886,-0.32917 -0.5886,-0.0148 0,0.3286 0.1693,0.46318 0.448,0.35621 0.1302,-0.05 0.1935,-0.20358 0.1406,-0.34138 z m -0.058,-0.69247 c 0,-0.14584 -0.1193,-0.26517 -0.2652,-0.26517 -0.1458,0 -0.2651,0.11933 -0.2651,0.26517 0,0.14584 0.1193,0.26516 0.2651,0.26516 0.1459,0 0.2652,-0.11932 0.2652,-0.26516 z m -0.208,-0.85434 c 0.034,-0.17444 -0.056,-0.29471 -0.221,-0.29471 -0.164,0 -0.2781,0.15114 -0.2781,0.36828 0,0.43082 0.4131,0.36992 0.4991,-0.0736 z m 0.031,-0.73665 c 0,-0.14732 -0.1571,-0.26517 -0.3535,-0.26517 -0.3522,0 -0.4598,0.18837 -0.2357,0.41248 0.2153,0.2153 0.5892,0.12181 0.5892,-0.14731 z m -0.208,-0.85434 c 0.034,-0.17444 -0.056,-0.29471 -0.2209,-0.29471 -0.164,0 -0.2782,0.15114 -0.2782,0.36828 0,0.43082 0.4131,0.36992 0.4991,-0.0736 z m 0.031,-0.73665 c 0,-0.14732 -0.1572,-0.26517 -0.3536,-0.26517 -0.3522,0 -0.4598,0.18837 -0.2357,0.41248 0.2153,0.2153 0.5893,0.12181 0.5893,-0.14731 z m -0.1768,-0.81023 c 0,-0.43081 -0.4131,-0.36992 -0.4991,0.0736 -0.034,0.17444 0.056,0.29472 0.221,0.29472 0.1639,0 0.2781,-0.15115 0.2781,-0.36829 z m 0,-0.78076 c 0,-0.14732 -0.1572,-0.26517 -0.3536,-0.26517 -0.3522,0 -0.4598,0.18836 -0.2357,0.41248 0.2153,0.2153 0.5893,0.12181 0.5893,-0.14731 z m -0.1768,-0.81023 c 0,-0.43081 -0.4131,-0.36992 -0.4991,0.0736 -0.034,0.17444 0.056,0.29472 0.221,0.29472 0.164,0 0.2781,-0.15115 0.2781,-0.36829 z m 0,-0.78076 c 0,-0.14584 -0.1193,-0.26517 -0.2652,-0.26517 -0.1458,0 -0.2651,0.11933 -0.2651,0.26517 0,0.14584 0.1193,0.26516 0.2651,0.26516 0.1459,0 0.2652,-0.11932 0.2652,-0.26516 z m -0.13,-0.54762 c 0.058,-0.0581 0.065,-0.21219 0.015,-0.34239 -0.1134,-0.29546 -0.5919,-0.1323 -0.5919,0.20181 0,0.24676 0.3786,0.33901 0.5771,0.14058 z m -0.047,-1.04337 c 0,-0.14584 -0.1193,-0.26517 -0.2651,-0.26517 -0.1459,0 -0.2652,0.11933 -0.2652,0.26517 0,0.14584 0.1193,0.26516 0.2652,0.26516 0.1458,0 0.2651,-0.11932 0.2651,-0.26516 z m 0,-0.67765 c 0,-0.3286 -0.1693,-0.46318 -0.448,-0.3562 -0.2955,0.11337 -0.1323,0.5919 0.2018,0.5919 0.1354,0 0.2462,-0.10606 0.2462,-0.2357 z m -0.1768,-0.91334 c 0,-0.14584 -0.1193,-0.26517 -0.2651,-0.26517 -0.1459,0 -0.2652,0.11933 -0.2652,0.26517 0,0.14584 0.1193,0.26516 0.2652,0.26516 0.1458,0 0.2651,-0.11932 0.2651,-0.26516 z m 0,-0.78995 c 0,-0.23671 -0.085,-0.31546 -0.2651,-0.24625 -0.1459,0.056 -0.2652,0.21256 -0.2652,0.348 0,0.13544 0.1193,0.24625 0.2652,0.24625 0.1459,0 0.2651,-0.15651 0.2651,-0.348 z m 0,-0.80104 c 0,-0.14584 -0.1193,-0.26517 -0.2651,-0.26517 -0.1459,0 -0.2652,0.11933 -0.2652,0.26517 0,0.14584 0.1193,0.26516 0.2652,0.26516 0.1458,0 0.2651,-0.11932 0.2651,-0.26516 z"
       style="fill:#1812f8;fill-opacity:0.882353;stroke:#40002b;stroke-width:0;stroke-linejoin:bevel;stroke-miterlimit:4;stroke-dasharray:none;stroke-dashoffset:0;stroke-opacity:0.996074" />
    <path
       transform="scale(0.26458333)"
       id="path1368"
       d="m 1895.3074,579.87238 c 6.4686,-0.7748 12.3419,-2.53633 18.1416,-5.44102 4.7488,-2.37835 8.6343,-5.08468 12.8104,-8.92262 1.6624,-1.52776 1.9116,-1.71442 2.0733,-1.55276 0.1616,0.16165 0.2044,0.15881 0.3558,-0.0236 0.1477,-0.17807 0.1418,-0.22936 -0.042,-0.3638 -0.3037,-0.22202 -0.2651,-0.33401 0.085,-0.2462 0.3545,0.089 0.5359,-0.12999 0.3216,-0.38822 -0.083,-0.10011 -0.102,-0.18851 -0.042,-0.19644 0.06,-0.008 0.1925,-0.022 0.2945,-0.0312 0.102,-0.009 0.2062,-0.12382 0.2316,-0.25459 0.025,-0.13076 0.097,-0.29951 0.1588,-0.375 2.3706,-2.88625 3.2652,-4.05753 4.4781,-5.86282 4.1241,-6.13834 7.0502,-13.26643 8.3741,-20.39942 0.2587,-1.39338 0.7184,-4.85592 0.7966,-6 0.024,-0.34375 0.053,7.97505 0.065,18.48622 0.021,18.01632 0.01,19.12031 -0.1946,19.26996 -0.2061,0.15072 -0.2061,0.17086 0,0.39862 0.1998,0.2207 0.2171,0.71641 0.2171,6.19879 v 5.95891 h -9.4448 c -5.1947,0 -9.4172,-0.0449 -9.3833,-0.0997 0.034,-0.0548 0.015,-0.17554 -0.043,-0.26822 -0.1396,-0.22592 -0.5524,-0.0626 -0.4588,0.18149 0.042,0.10997 5e-4,0.18645 -0.1016,0.18645 -0.095,0 -0.1946,-0.0643 -0.2208,-0.14293 -0.036,-0.10723 -0.1143,-0.10723 -0.3147,0 -0.1879,0.10056 -1.7845,0.14293 -5.3864,0.14293 -4.7988,0 -5.1182,-0.0137 -5.1019,-0.21875 0.011,-0.14121 -0.071,-0.21875 -0.2327,-0.21875 -0.1666,0 -0.2381,0.0714 -0.2143,0.21428 0.034,0.20087 -0.5648,0.21385 -9.5625,0.20739 l -9.5982,-0.007 z m 29.848,-0.10087 c 0.1534,-0.0973 0.088,-0.52143 -0.08,-0.51743 -0.2193,0.005 -0.3925,0.22857 -0.3212,0.41433 0.089,0.23268 0.166,0.2524 0.4013,0.1031 z m -11.5166,-0.20684 c 0.022,-0.0688 -0.011,-0.20576 -0.074,-0.30447 -0.092,-0.14554 -0.1492,-0.14972 -0.303,-0.0221 -0.1043,0.0865 -0.1577,0.24038 -0.1188,0.34185 0.077,0.19955 0.4311,0.18863 0.4957,-0.0153 z m 12.2517,-0.25841 c 0.099,-0.25673 -0.099,-0.44859 -0.3211,-0.3115 -0.1889,0.11675 -0.1019,0.50741 0.113,0.50741 0.073,0 0.1667,-0.0882 0.2081,-0.19591 z m -11.6381,-0.4171 c -0.1022,-0.16524 -0.1998,-0.16962 -0.4369,-0.0196 -0.1513,0.0957 -0.153,0.14554 -0.011,0.31686 0.1477,0.17787 0.1915,0.18056 0.3505,0.0215 0.1,-0.1 0.1437,-0.24343 0.097,-0.31878 z m 12.278,0.25735 c 0.1943,-0.12324 0.067,-0.51934 -0.1665,-0.51934 -0.2243,0 -0.324,0.18387 -0.231,0.42622 0.085,0.22281 0.1641,0.24123 0.3975,0.0931 z m -11.6416,-0.45684 c 0.022,-0.0688 -0.011,-0.20576 -0.074,-0.30447 -0.092,-0.14554 -0.1492,-0.14972 -0.303,-0.0221 -0.1043,0.0865 -0.1577,0.24038 -0.1188,0.34185 0.077,0.19955 0.4311,0.18863 0.4957,-0.0153 z m 12.4186,-0.131 c 0,-0.22364 -0.1836,-0.32411 -0.4239,-0.23191 -0.1491,0.0572 -0.1664,0.13153 -0.072,0.30825 0.136,0.254 0.4958,0.1986 0.4958,-0.0763 z m -11.805,-0.54451 c -0.1074,-0.17366 -0.4052,-0.17746 -0.5108,-0.007 -0.044,0.0718 -0.01,0.21521 0.076,0.31877 0.1367,0.16474 0.179,0.16556 0.338,0.007 0.1,-0.1 0.1437,-0.24343 0.097,-0.31878 z m 12.3988,0.38497 c 0.125,-0.0794 0.125,-0.14102 0,-0.30825 -0.1923,-0.25729 -0.542,-0.0849 -0.4284,0.21117 0.085,0.22137 0.1938,0.24604 0.4284,0.0971 z m 0.7118,-0.38568 c 0.039,-0.0625 0.036,-0.20214 -0.01,-0.31021 -0.057,-0.14913 -0.1315,-0.16646 -0.3082,-0.0719 -0.1347,0.0721 -0.2028,0.20285 -0.1616,0.31021 0.079,0.20565 0.3655,0.24902 0.475,0.0719 z m -12.5693,-0.1822 c 0.108,-0.13021 0.096,-0.20933 -0.053,-0.3322 -0.2389,-0.19828 -0.5055,0.0108 -0.3918,0.30721 0.093,0.24128 0.2571,0.25054 0.4443,0.025 z m 13.208,-0.21497 c 0.1176,-0.19032 -0.1378,-0.41251 -0.3713,-0.32294 -0.1123,0.0431 -0.1627,0.1552 -0.12,0.2666 0.085,0.22231 0.3686,0.2548 0.4913,0.0563 z m -12.583,-0.28503 c 0.108,-0.13021 0.096,-0.20933 -0.053,-0.3322 -0.2389,-0.19828 -0.5055,0.0108 -0.3918,0.30721 0.093,0.24128 0.2571,0.25054 0.4443,0.025 z m 13.3082,-0.26849 c -0.079,-0.20565 -0.3655,-0.24901 -0.475,-0.0719 -0.039,0.0625 -0.036,0.20214 0.01,0.31021 0.057,0.14912 0.1316,0.16645 0.3083,0.0719 0.1347,-0.0721 0.2028,-0.20285 0.1616,-0.31021 z m 0.576,-0.11762 c 0.1718,-0.20697 0.074,-0.44297 -0.183,-0.44297 -0.2298,0 -0.3308,0.18164 -0.237,0.42622 0.095,0.2472 0.2244,0.25237 0.42,0.0168 z m -13.3046,-0.0735 c 0.044,-0.0718 0.012,-0.21308 -0.072,-0.31404 -0.1866,-0.22484 -0.5171,-0.0107 -0.4109,0.26616 0.08,0.2081 0.3661,0.23649 0.4826,0.0479 z m 13.9684,-0.63523 c -0.078,-0.0784 -0.233,-0.10773 -0.3437,-0.0652 -0.164,0.0629 -0.1749,0.12664 -0.059,0.34369 0.131,0.24489 0.1588,0.25016 0.3437,0.0652 0.1506,-0.15059 0.1654,-0.23702 0.059,-0.34368 z m -13.3393,-0.0973 c -0.1074,-0.17366 -0.4052,-0.17746 -0.5108,-0.007 -0.044,0.0718 -0.01,0.21521 0.076,0.31877 0.1367,0.16474 0.179,0.16556 0.338,0.007 0.1,-0.1 0.1437,-0.24343 0.097,-0.31878 z m 14.055,-0.0805 c 0,-0.23486 -0.2466,-0.35987 -0.4024,-0.20401 -0.1867,0.18666 -0.023,0.53383 0.2102,0.44453 0.1057,-0.0406 0.1922,-0.14881 0.1922,-0.24052 z m -13.547,-0.4071 c -0.2411,-0.24115 -0.5328,-0.0378 -0.4089,0.28509 0.063,0.16398 0.1266,0.17486 0.3437,0.0587 0.2449,-0.13106 0.2501,-0.15886 0.065,-0.34378 z m 14.2051,0.15088 c 0.1193,-0.11929 -0.044,-0.42528 -0.2266,-0.42528 -0.2094,0 -0.346,0.20995 -0.244,0.375 0.085,0.13814 0.354,0.16684 0.4706,0.0503 z m -13.5881,-0.66329 c -0.1074,-0.17366 -0.4052,-0.17746 -0.5108,-0.007 -0.044,0.0718 -0.01,0.21521 0.076,0.31877 0.1367,0.16474 0.179,0.16556 0.338,0.007 0.1,-0.1 0.1437,-0.24343 0.097,-0.31878 z m 14.2459,0.23253 c 0.044,-0.0718 0.01,-0.21521 -0.076,-0.31877 -0.1367,-0.16474 -0.179,-0.16556 -0.3381,-0.007 -0.1,0.1 -0.1436,0.24343 -0.097,0.31878 0.1074,0.17366 0.4052,0.17746 0.5108,0.007 z m -13.7046,-0.41544 c 0.108,-0.13021 0.096,-0.20933 -0.053,-0.3322 -0.2402,-0.19937 -0.4775,-0.006 -0.362,0.29471 0.097,0.25309 0.2259,0.26474 0.4145,0.0375 z m 14.2367,0.0653 c 0.1534,-0.0973 0.088,-0.52143 -0.08,-0.51743 -0.2193,0.005 -0.3925,0.22857 -0.3212,0.41433 0.089,0.23268 0.166,0.2524 0.4013,0.1031 z m 0.625,-0.375 c 0.1534,-0.0973 0.088,-0.52143 -0.08,-0.51743 -0.2193,0.005 -0.3925,0.22857 -0.3212,0.41433 0.089,0.23268 0.166,0.2524 0.4013,0.1031 z m -14.2821,-0.27482 c 0.044,-0.0718 0.01,-0.21521 -0.076,-0.31877 -0.1367,-0.16474 -0.179,-0.16556 -0.3381,-0.007 -0.1,0.1 -0.1436,0.24343 -0.097,0.31878 0.1074,0.17366 0.4052,0.17746 0.5108,0.007 z m 15.0041,-0.48253 c -0.1074,-0.17366 -0.4052,-0.17746 -0.5108,-0.007 -0.044,0.0718 -0.01,0.21521 0.076,0.31877 0.1367,0.16474 0.179,0.16556 0.338,0.007 0.1,-0.1 0.1437,-0.24343 0.097,-0.31878 z m -14.4861,-0.0823 c 0.02,-0.0645 -0.014,-0.19794 -0.076,-0.29665 -0.094,-0.14936 -0.1467,-0.15182 -0.312,-0.0147 -0.1539,0.12777 -0.1659,0.20414 -0.053,0.33987 0.1528,0.18422 0.379,0.16959 0.4416,-0.0286 z m 15.0967,-0.0434 c 0.039,-0.0625 0.036,-0.20214 -0.01,-0.31021 -0.057,-0.14913 -0.1315,-0.16646 -0.3082,-0.0719 -0.1347,0.0721 -0.2028,0.20285 -0.1616,0.31021 0.079,0.20565 0.3655,0.24902 0.475,0.0719 z m -14.5693,-0.4322 c 0.108,-0.13021 0.096,-0.20933 -0.053,-0.3322 -0.2389,-0.19828 -0.5055,0.0108 -0.3918,0.30721 0.093,0.24128 0.2571,0.25054 0.4443,0.025 z m 15.2218,-0.025 c 0.1137,-0.29643 -0.1529,-0.50549 -0.3918,-0.30721 -0.1481,0.12287 -0.1606,0.20199 -0.053,0.3322 0.1872,0.22555 0.3517,0.21629 0.4443,-0.025 z m 0.5762,-0.6948 c -0.078,-0.0784 -0.233,-0.10773 -0.3437,-0.0652 -0.164,0.0629 -0.1749,0.12664 -0.059,0.34369 0.131,0.24489 0.1588,0.25016 0.3437,0.0652 0.1506,-0.15059 0.1654,-0.23702 0.059,-0.34368 z m -15.2143,-0.0973 c -0.1074,-0.17366 -0.4052,-0.17746 -0.5108,-0.007 -0.044,0.0718 -0.01,0.21521 0.076,0.31877 0.1367,0.16474 0.179,0.16556 0.338,0.007 0.1,-0.1 0.1437,-0.24343 0.097,-0.31878 z m 15.8864,-0.0745 c 0.022,-0.0688 -0.011,-0.20576 -0.074,-0.30447 -0.092,-0.14554 -0.1492,-0.14972 -0.303,-0.0221 -0.1043,0.0865 -0.1577,0.24038 -0.1188,0.34185 0.077,0.19955 0.4311,0.18863 0.4957,-0.0153 z m -15.3905,-0.19298 c 0.044,-0.0718 0.01,-0.21521 -0.076,-0.31877 -0.1367,-0.16474 -0.179,-0.16556 -0.3381,-0.007 -0.1,0.1 -0.1436,0.24343 -0.097,0.31878 0.1074,0.17366 0.4052,0.17746 0.5108,0.007 z m 16.0041,-0.48253 c -0.1074,-0.17366 -0.4052,-0.17746 -0.5108,-0.007 -0.044,0.0718 -0.01,0.21521 0.076,0.31877 0.1367,0.16474 0.179,0.16556 0.338,0.007 0.1,-0.1 0.1437,-0.24343 0.097,-0.31878 z m -15.4869,-0.0829 c 0.1137,-0.29643 -0.1529,-0.50549 -0.3918,-0.30721 -0.1481,0.12287 -0.1606,0.20199 -0.053,0.3322 0.1872,0.22555 0.3517,0.21629 0.4443,-0.025 z m 16.1233,-0.11659 c 0.022,-0.0688 -0.011,-0.20576 -0.074,-0.30447 -0.092,-0.14554 -0.1492,-0.14972 -0.303,-0.0221 -0.1043,0.0865 -0.1577,0.24038 -0.1188,0.34185 0.077,0.19955 0.4311,0.18863 0.4957,-0.0153 z m 0.6136,-0.67551 c -0.1074,-0.17366 -0.4052,-0.17746 -0.5108,-0.007 -0.044,0.0718 -0.01,0.21521 0.076,0.31877 0.1367,0.16474 0.179,0.16556 0.338,0.007 0.1,-0.1 0.1437,-0.24343 0.097,-0.31878 z m -16.2541,0.23253 c 0.044,-0.0718 0.01,-0.21521 -0.076,-0.31877 -0.1367,-0.16474 -0.179,-0.16556 -0.3381,-0.007 -0.1,0.1 -0.1436,0.24343 -0.097,0.31878 0.1074,0.17366 0.4052,0.17746 0.5108,0.007 z m 16.7954,-0.41544 c 0.1068,-0.12873 0.1018,-0.20409 -0.02,-0.30535 -0.216,-0.17932 -0.5239,0.0203 -0.4257,0.27615 0.094,0.24522 0.2577,0.25594 0.4459,0.0292 z m -16.2782,-0.14999 c 0.1137,-0.29643 -0.1529,-0.50549 -0.3918,-0.30721 -0.1481,0.12287 -0.1606,0.20199 -0.053,0.3322 0.1872,0.22555 0.3517,0.21629 0.4443,-0.025 z m 16.9169,-0.30149 c 0.1667,-0.10539 0.1667,-0.1394 0,-0.30606 -0.2305,-0.2305 -0.5708,-0.0614 -0.4596,0.22834 0.088,0.22849 0.193,0.2463 0.4596,0.0777 z m -16.4341,-0.25808 c 0.044,-0.0718 0.01,-0.21521 -0.076,-0.31877 -0.1367,-0.16474 -0.179,-0.16556 -0.3381,-0.007 -0.1,0.1 -0.1436,0.24343 -0.097,0.31878 0.1074,0.17366 0.4052,0.17746 0.5108,0.007 z m 17.0591,-0.31302 c 0,-0.22364 -0.1836,-0.32411 -0.4239,-0.23191 -0.1491,0.0572 -0.1664,0.13153 -0.072,0.30825 0.136,0.254 0.4958,0.1986 0.4958,-0.0763 z m -16.5,-0.45073 c 0,-0.19835 -0.3958,-0.27426 -0.5054,-0.0969 -0.1558,0.25202 0.1136,0.53575 0.3345,0.35239 0.094,-0.078 0.1709,-0.19297 0.1709,-0.25546 z m 17.125,-0.0493 c 0,-0.25273 -0.2382,-0.34688 -0.4445,-0.17568 -0.135,0.11202 -0.1476,0.19562 -0.048,0.31583 0.1604,0.19319 0.4924,0.0987 0.4924,-0.14015 z m -16.7637,-0.63559 c -0.1887,-0.22733 -0.3174,-0.21558 -0.4146,0.0378 -0.1001,0.26072 0.1766,0.44833 0.3944,0.26751 0.122,-0.10125 0.127,-0.17661 0.02,-0.30535 z m 17.2557,0.3367 c 0.1512,-0.0957 0.1529,-0.14553 0.011,-0.31686 -0.1476,-0.17787 -0.1914,-0.18056 -0.3505,-0.0215 -0.1,0.1 -0.1436,0.24342 -0.097,0.31877 0.1021,0.16524 0.1998,0.16963 0.4369,0.0196 z m 0.625,-0.5 c 0.1512,-0.0957 0.1529,-0.14553 0.011,-0.31686 -0.1476,-0.17787 -0.1914,-0.18056 -0.3505,-0.0215 -0.1,0.1 -0.1436,0.24342 -0.097,0.31877 0.1021,0.16524 0.1998,0.16963 0.4369,0.0196 z m -17.3807,-0.17853 c 0.108,-0.13021 0.096,-0.20933 -0.053,-0.3322 -0.2389,-0.19828 -0.5055,0.0108 -0.3918,0.30721 0.093,0.24128 0.2571,0.25054 0.4443,0.025 z m 0.4546,-0.58456 c 0.044,-0.0718 0.01,-0.21746 -0.08,-0.32379 -0.1439,-0.17341 -0.1768,-0.17095 -0.3192,0.0239 -0.087,0.11947 -0.1292,0.26517 -0.093,0.32379 0.092,0.14816 0.3948,0.13343 0.492,-0.0239 z m 0.5041,-0.85753 c -0.1074,-0.17366 -0.4052,-0.17746 -0.5108,-0.007 -0.044,0.0718 -0.01,0.21521 0.076,0.31877 0.1367,0.16474 0.179,0.16556 0.338,0.007 0.1,-0.1 0.1437,-0.24343 0.097,-0.31878 z m 0.43,-0.44949 c 0,-0.26259 -0.2376,-0.35339 -0.4542,-0.17359 -0.1734,0.14392 -0.171,0.17678 0.024,0.31926 0.2433,0.17794 0.4303,0.11463 0.4303,-0.14567 z m 0.445,-0.80051 c -0.1074,-0.17366 -0.4052,-0.17746 -0.5108,-0.007 -0.044,0.0718 -0.01,0.21521 0.076,0.31877 0.1367,0.16474 0.179,0.16556 0.338,0.007 0.1,-0.1 0.1437,-0.24343 0.097,-0.31878 z m 0.3546,-0.33577 c 0.093,-0.24235 -0.01,-0.42622 -0.2311,-0.42622 -0.228,0 -0.3305,0.31295 -0.1587,0.48476 0.1921,0.19213 0.2998,0.17596 0.3898,-0.0585 z m 0.3882,-0.95858 c -0.2251,-0.12597 -0.4378,-0.0207 -0.4378,0.21682 0,0.25756 0.2923,0.31232 0.47,0.0881 0.1287,-0.16237 0.1228,-0.21813 -0.032,-0.30489 z"
       style="fill:#000bff;fill-opacity:0.743524;stroke:#40002b;stroke-width:0;stroke-linejoin:bevel;stroke-miterlimit:4;stroke-dasharray:none;stroke-dashoffset:0;stroke-opacity:0.996074" />
    <path
       transform="scale(0.26458333)"
       id="path1374"
       d="m 1943.2252,520.13068 c -0.6181,-3.68117 -2.207,-7.89084 -4.2787,-11.33581 -4.7758,-7.94149 -12.7266,-13.61978 -21.7194,-15.51136 -0.6319,-0.13294 -1.1846,-0.27483 -1.2282,-0.31533 -0.043,-0.0405 -0.1981,-0.0499 -0.3434,-0.0208 -0.2377,0.0476 -0.2549,0.0364 -0.1721,-0.11158 0.071,-0.12602 0.058,-0.19044 -0.054,-0.27579 -0.1179,-0.0897 2.5906,-0.11191 13.9294,-0.11417 l 14.0759,-0.003 v 14.31891 c 0,7.8754 -0.011,14.31891 -0.025,14.31891 -0.014,0 -0.096,-0.42758 -0.1843,-0.95017 z"
       style="fill:#1812f8;fill-opacity:0.882353;stroke:#40002b;stroke-width:0;stroke-linejoin:bevel;stroke-miterlimit:4;stroke-dasharray:none;stroke-dashoffset:0;stroke-opacity:0.996074" />
    <path
       transform="scale(0.26458333)"
       id="path1376"
       d="m 1914.9569,492.91212 c -0.4921,-0.073 -1.1168,-0.14775 -1.6563,-0.1981 -0.5629,-0.0525 -1.0781,-0.0881 -1.6484,-0.11363 -0.4109,-0.0184 -0.6378,-0.0242 -1.1426,-0.0288 l -0.5293,-0.005 v -0.0847 -0.0847 l 2.252,1.5e-4 2.2519,1.5e-4 0.1015,0.0741 c 0.056,0.0407 0.105,0.074 0.1094,0.0739 0,-8e-5 0.032,-0.0335 0.062,-0.0742 l 0.054,-0.0741 h 11.0186 11.0185 v 0.0226 0.0226 l -8.3066,0.004 c -4.6406,0.002 -8.817,0.008 -9.4629,0.0124 -2.1947,0.0156 -3.1995,0.0339 -3.5117,0.0638 -0.1524,0.0146 -0.1614,0.02 -0.1102,0.0662 0.032,0.0287 0.068,0.0796 0.062,0.0861 0,0.002 -0.067,-0.0443 -0.1452,-0.10271 -0.078,-0.0584 -0.1452,-0.10496 -0.1496,-0.10349 -0.01,0.003 -0.2271,0.29568 -0.2267,0.30317 10e-5,0.002 0.034,0.0288 0.075,0.0589 0.1192,0.0871 0.1618,0.12117 0.1503,0.12003 -0.01,-5.8e-4 -0.125,-0.018 -0.2646,-0.0387 z"
       style="fill:#000000;fill-opacity:1;stroke:#40002b;stroke-width:0;stroke-linejoin:bevel;stroke-miterlimit:4;stroke-dasharray:none;stroke-dashoffset:0;stroke-opacity:0.996074" />
    <path
       transform="scale(0.26458333)"
       id="path1378"
       d="m 1889.3761,507.81308 v -0.86335 l 0.1768,-0.0797 c 0.1945,-0.0877 0.2105,-0.13798 0.1073,-0.33764 -0.057,-0.11009 -0.089,-0.12951 -0.1768,-0.10745 l -0.1073,0.0269 v -7.02772 -7.02771 l 9.2034,0.005 c 8.117,0.004 9.1487,0.0119 8.7394,0.0668 -3.9757,0.53313 -7.5853,2.11823 -10.7171,4.70629 -0.5696,0.47073 -2.0658,1.9669 -2.5365,2.53653 -1.0902,1.31924 -1.9474,2.62653 -2.6728,4.07612 -0.3031,0.60567 -0.7322,1.58895 -0.9117,2.08897 -0.1254,0.34966 -0.1203,0.34292 -0.1902,0.2473 -0.054,-0.0741 -0.064,-0.0741 -0.2205,3.6e-4 -0.1818,0.0867 -0.1958,0.13645 -0.094,0.33304 0.056,0.10747 0.09,0.12925 0.1714,0.10879 l 0.1019,-0.0256 -0.1431,0.45248 c -0.079,0.24887 -0.1991,0.67622 -0.2676,0.94968 -0.069,0.27345 -0.1447,0.49718 -0.1695,0.49718 -0.025,0 -0.1008,0.0534 -0.169,0.11875 l -0.1239,0.11876 z"
       style="fill:#1812f8;fill-opacity:0.882353;stroke:#40002b;stroke-width:0;stroke-linejoin:bevel;stroke-miterlimit:4;stroke-dasharray:none;stroke-dashoffset:0;stroke-opacity:0.996074" />
    <path
       transform="scale(0.26458333)"
       id="path1380"
       d="m 1889.3617,509.89728 c -10e-4,-0.55521 6e-4,-0.61421 0.017,-0.63253 0.017,-0.0188 0.017,-0.0216 0,-0.0404 -0.017,-0.0185 -0.018,-0.11701 -0.018,-1.196 4e-4,-1.15482 8e-4,-1.17511 0.021,-1.13713 0.017,0.0325 0.018,0.0401 0,0.0475 -0.013,0.007 -0.016,0.14143 -0.016,0.87781 0,0.67587 0,0.86602 0.013,0.85571 0.022,-0.0215 0.036,-0.0152 0.016,0.007 -0.01,0.0111 -0.018,0.0256 -0.018,0.0321 0,0.007 0.054,0.0619 0.1194,0.12296 l 0.1194,0.11103 -0.058,0.30887 c -0.063,0.33659 -0.1211,0.68971 -0.1696,1.03446 l -0.031,0.22098 z"
       style="fill:#000000;fill-opacity:1;stroke:#40002b;stroke-width:0;stroke-linejoin:bevel;stroke-miterlimit:4;stroke-dasharray:none;stroke-dashoffset:0;stroke-opacity:0.996074" />
    <path
       transform="scale(0.26458333)"
       id="path1382"
       d="m 1889.3621,511.78331 v -1.26747 l 0.039,-0.26828 c 0.041,-0.28378 0.1261,-0.7921 0.1856,-1.11202 0.031,-0.1679 0.038,-0.18956 0.051,-0.17336 0.014,0.0168 0.025,0.009 0.114,-0.0788 0.054,-0.0535 0.096,-0.0874 0.092,-0.0752 -0.039,0.13665 -0.19,0.97989 -0.2545,1.42526 -0.1185,0.81704 -0.2018,1.83392 -0.2064,2.51907 -7e-4,0.0972 0,0.20412 -0.01,0.23754 0,0.0334 -0.01,-0.50959 -0.01,-1.20669 z"
       style="fill:#000000;fill-opacity:1;stroke:#40002b;stroke-width:0;stroke-linejoin:bevel;stroke-miterlimit:4;stroke-dasharray:none;stroke-dashoffset:0;stroke-opacity:0.996074" />
    <path
       transform="scale(0.26458333)"
       id="path1384"
       d="m 1889.7729,508.55113 c -0.086,-0.0932 -0.099,-0.11214 -0.086,-0.12527 0.025,-0.026 0.092,-0.23285 0.1716,-0.53476 0.1273,-0.48037 0.1861,-0.68159 0.3634,-1.24257 0.018,-0.0575 0.031,-0.10663 0.029,-0.10914 0,-0.003 -0.028,10e-4 -0.056,0.008 -0.028,0.007 -0.053,0.0111 -0.056,0.009 0,-0.002 0.058,-0.0331 0.1339,-0.0684 0.076,-0.0353 0.1381,-0.0702 0.1381,-0.0776 0,-0.007 -0.027,-0.0694 -0.061,-0.13792 -0.034,-0.0685 -0.059,-0.12688 -0.056,-0.12964 0,-0.003 0.011,0.005 0.017,0.018 0.01,0.0127 0.022,0.023 0.035,0.023 0.027,0 0.034,-0.015 0.1519,-0.33146 0.2188,-0.58721 0.5685,-1.38655 0.8917,-2.03845 0.6576,-1.32631 1.4647,-2.58278 2.4423,-3.80234 0.3997,-0.4986 0.6258,-0.74566 1.3522,-1.47725 0.6613,-0.6661 1.0977,-1.08105 1.4286,-1.35836 l 0.1286,-0.10783 0.1454,0.003 0.1454,0.003 -0.1809,0.15022 c -0.4861,0.40366 -0.8482,0.73655 -1.3804,1.26874 -0.6393,0.63922 -1.0278,1.07234 -1.5666,1.74606 -1.2941,1.61836 -2.3931,3.53621 -3.1353,5.47126 l -0.054,0.13996 -0.058,0.0241 c -0.032,0.0132 -0.06,0.028 -0.063,0.0329 0,0.005 0.01,0.0366 0.023,0.0706 l 0.028,0.0618 -0.066,0.1852 c -0.1895,0.53248 -0.3649,1.0989 -0.5104,1.64914 -0.054,0.20292 -0.06,0.21805 -0.1004,0.26027 l -0.043,0.0448 0.026,0.0244 0.026,0.0244 -0.047,0.20148 c -0.026,0.11082 -0.049,0.20815 -0.051,0.21628 0,0.008 -0.049,-0.0346 -0.1047,-0.095 z"
       style="fill:#000000;fill-opacity:1;stroke:#40002b;stroke-width:0;stroke-linejoin:bevel;stroke-miterlimit:4;stroke-dasharray:none;stroke-dashoffset:0;stroke-opacity:0.996074" />
    <path
       transform="scale(0.26458333)"
       id="path1386"
       d="m 1896.8504,496.99728 c 0.043,-0.0348 0.3172,-0.24373 0.6094,-0.46432 2.7373,-2.06651 5.8826,-3.41106 9.25,-3.95413 0.7727,-0.12462 0.7328,-0.11568 0.6406,-0.14342 -0.043,-0.0129 0.3227,-0.0224 0.8125,-0.021 0.4899,0.001 0.8203,0.007 0.7344,0.0128 -4.227,0.27877 -8.2252,1.78916 -11.498,4.34355 -0.3324,0.2594 -0.3869,0.29105 -0.5,0.29043 l -0.127,-6.9e-4 z"
       style="fill:#1812f8;fill-opacity:0.882353;stroke:#40002b;stroke-width:0;stroke-linejoin:bevel;stroke-miterlimit:4;stroke-dasharray:none;stroke-dashoffset:0;stroke-opacity:0.996074" />
    <path
       transform="scale(0.26458333)"
       id="path1388"
       d="m 1889.3577,524.8746 v -0.84994 l 0.051,-0.0856 c 0.028,-0.0471 0.051,-0.0882 0.051,-0.0913 0,-0.003 -0.023,-0.0202 -0.051,-0.0378 l -0.051,-0.0321 v -0.21805 c 0,-0.11992 0,-0.21805 0,-0.21805 0,0 0.069,0.0439 0.1477,0.0977 0.079,0.0537 0.1468,0.0977 0.151,0.0977 0,0 0.01,-0.004 0.011,-0.01 0,-0.01 0.145,-0.20886 0.1876,-0.26469 l 0.022,-0.0283 -0.1537,-0.11479 c -0.1482,-0.11067 -0.1543,-0.11427 -0.1676,-0.10055 -0.012,0.0117 -0.1381,0.18672 -0.1885,0.26046 -0.012,0.0183 -0.013,-0.28121 -0.014,-5.08411 l -4e-4,-5.10352 h 0.042 0.042 l 0.01,0.22461 c 0,0.12354 0.01,0.26002 0.01,0.30329 l 0.01,0.0787 -0.024,0.0102 c -0.013,0.006 -0.025,0.0134 -0.025,0.0173 0,0.004 0.014,0.0326 0.03,0.0638 0.028,0.053 0.03,0.0626 0.036,0.14621 0.029,0.47226 0.1347,1.18131 0.2594,1.74577 0.4142,1.87513 1.2692,3.6662 2.4558,5.14448 0.078,0.0971 0.1682,0.23398 0.1824,0.27656 0,0.004 0.01,0.003 0.018,-0.002 0.014,-0.008 0.027,0.004 0.1256,0.11852 1.0297,1.19136 2.3129,2.20626 3.7011,2.92722 l 0.1363,0.0708 0.074,0.0881 0.074,0.0881 -0.054,0.0892 c -0.03,0.049 -0.054,0.0927 -0.054,0.097 10e-5,0.004 0.045,0.0324 0.099,0.0625 0.055,0.0301 0.1297,0.0715 0.167,0.0919 l 0.068,0.0373 0.026,-0.0469 0.026,-0.0469 0.078,0.0901 c 0.043,0.0496 0.084,0.0971 0.091,0.10569 0.013,0.0153 0.014,0.0146 0.084,-0.0381 0.039,-0.0295 0.1022,-0.0723 0.1406,-0.0951 l 0.07,-0.0414 -0.02,-0.0388 c -0.011,-0.0213 -0.018,-0.0405 -0.016,-0.0426 0,-0.002 0.066,0.0216 0.1431,0.0525 0.4038,0.16307 0.9019,0.33162 1.3386,0.45301 0.1618,0.045 0.5753,0.14805 0.5944,0.14817 0.019,1.1e-4 0.1218,0.20123 0.1509,0.2943 0.01,0.0165 0.01,0.0157 0.1788,-0.041 0.095,-0.0318 0.1779,-0.0596 0.1833,-0.0616 0.01,-0.003 0.01,-0.0134 -0.01,-0.0445 -0.01,-0.0224 -0.015,-0.0416 -0.014,-0.0426 0,-10e-4 0.072,0.0102 0.1581,0.025 0.467,0.0802 0.9906,0.13881 1.4256,0.1596 0.101,0.005 0.1977,0.0112 0.2149,0.0142 l 0.031,0.005 0.01,0.0586 c 0.01,0.0322 0.01,0.0647 0.01,0.0722 4e-4,0.013 -0.078,0.0137 -1.5386,0.0137 -0.8465,0 -1.5391,-0.002 -1.5391,-0.004 0,-0.002 0.011,-0.025 0.023,-0.0506 0.013,-0.0255 0.023,-0.0495 0.023,-0.0533 0,-0.01 -0.093,-0.0515 -0.1758,-0.0783 -0.062,-0.0203 -0.1356,-0.0372 -0.2235,-0.0516 l -0.028,-0.005 -0.014,0.12124 -0.014,0.12125 h -0.1779 -0.178 l -0.01,-0.0293 c 0,-0.0161 -0.015,-0.0636 -0.024,-0.10547 -0.011,-0.0491 -0.021,-0.0762 -0.027,-0.0762 -0.043,0 -0.2193,0.0709 -0.3263,0.13152 -0.075,0.0426 -0.076,0.0433 -0.064,0.0613 l 0.012,0.0181 h -0.468 -0.4679 l -0.1514,-0.0351 c -0.083,-0.0193 -0.1589,-0.0369 -0.1682,-0.039 -0.015,-0.004 -0.017,2.1e-4 -0.022,0.0351 l -0.01,0.039 h -0.4213 -0.4212 l -0.075,-0.0351 c -0.041,-0.0193 -0.077,-0.0335 -0.081,-0.0316 0,0.002 -0.012,0.0177 -0.02,0.035 l -0.014,0.0316 h -2.8386 -2.8387 z m 6.2544,0.59408 c 0.012,-0.0204 0.057,-0.0891 0.1,-0.15257 0.043,-0.0635 0.077,-0.11661 0.075,-0.11802 -0.027,-0.0227 -0.2952,-0.21121 -0.3037,-0.21336 -0.01,-0.002 -0.028,0.021 -0.059,0.0654 -0.088,0.12828 -0.1671,0.25644 -0.1617,0.26171 0.013,0.0127 0.3111,0.19359 0.3192,0.19376 0.01,1.1e-4 0.019,-0.0165 0.031,-0.0369 z m 0.8751,-0.06 v -0.019 l 0.036,0.0152 c 0.02,0.008 0.036,0.0143 0.037,0.0131 7e-4,-10e-4 0.015,-0.0285 0.031,-0.0607 0.016,-0.0322 0.053,-0.0937 0.082,-0.13672 0.028,-0.043 0.053,-0.0818 0.054,-0.0863 0,-0.008 -0.2696,-0.2267 -0.2915,-0.23512 -0.01,-0.002 -0.024,0.0166 -0.043,0.0436 -0.018,0.0261 -0.037,0.0474 -0.042,0.0474 0,0 -0.032,-0.009 -0.062,-0.0203 -0.029,-0.0112 -0.058,-0.0186 -0.063,-0.0165 -0.019,0.007 -0.1297,0.36947 -0.1168,0.38108 0.01,0.004 0.3462,0.0917 0.3632,0.0928 0,2.1e-4 0.01,-0.008 0.011,-0.0186 z m -0.4456,-0.52206 c 0.016,-0.0183 0.071,-0.0781 0.1228,-0.13294 l 0.093,-0.0997 -0.1094,-0.11511 c -0.06,-0.0633 -0.1203,-0.12547 -0.1337,-0.13813 l -0.024,-0.023 -0.036,0.0348 c -0.02,0.0191 -0.082,0.085 -0.1378,0.14655 -0.088,0.0959 -0.1005,0.11336 -0.091,0.12273 0.023,0.0228 0.2768,0.23713 0.2815,0.23761 0,2.9e-4 0.018,-0.0144 0.034,-0.0327 z m -5.8545,-2.0301 c 0.031,-0.037 0.082,-0.0942 0.1113,-0.12727 0.032,-0.0357 0.051,-0.0629 0.047,-0.067 -0.045,-0.0442 -0.2741,-0.24999 -0.2783,-0.25008 -0.01,-1.9e-4 -0.2519,0.27977 -0.2537,0.29113 -8e-4,0.005 0.064,0.0633 0.1439,0.12905 0.1392,0.11445 0.146,0.11893 0.159,0.10547 0.01,-0.008 0.039,-0.0443 0.071,-0.0813 z m 0.4944,-0.52088 c 0.039,-0.0377 0.098,-0.0939 0.1319,-0.1248 0.055,-0.0507 0.06,-0.0577 0.051,-0.0707 -0.01,-0.008 -0.063,-0.073 -0.1268,-0.1445 l -0.1163,-0.13004 -0.036,0.0304 c -0.02,0.0167 -0.085,0.0778 -0.1453,0.13585 l -0.1094,0.10549 0.1327,0.13345 c 0.073,0.0734 0.1361,0.13344 0.1402,0.13344 0,0 0.039,-0.0308 0.078,-0.0685 z m 0.633,-0.54375 c 0.083,-0.0641 0.1286,-0.10439 0.1261,-0.1111 0,-0.0125 -0.1888,-0.26628 -0.2083,-0.2873 -0.013,-0.0141 -0.018,-0.0115 -0.1374,0.0793 -0.068,0.0517 -0.1378,0.10604 -0.1548,0.12083 l -0.031,0.0269 0.085,0.10472 c 0.047,0.0576 0.1009,0.12467 0.1205,0.14907 0.035,0.0433 0.036,0.044 0.053,0.0312 0.01,-0.007 0.076,-0.0584 0.1473,-0.11369 z m 0.5408,-0.37836 c 0.059,-0.0378 0.1301,-0.0822 0.1572,-0.0985 0.032,-0.0193 0.048,-0.0335 0.045,-0.0405 0,-0.009 -0.1818,-0.31348 -0.1885,-0.32194 0,-0.004 -0.3014,0.18248 -0.3309,0.20646 0,0.002 0.2019,0.32328 0.2065,0.32328 0,0 0.051,-0.0309 0.1105,-0.0688 z"
       style="fill:#1812f8;fill-opacity:0.882353;stroke:#40002b;stroke-width:0;stroke-linejoin:bevel;stroke-miterlimit:4;stroke-dasharray:none;stroke-dashoffset:0;stroke-opacity:0.996074" />
    <path
       transform="scale(0.26458333)"
       id="path1390"
       d="m 1902.019,525.71087 c 0,-0.008 -0.01,-0.0392 -0.01,-0.0703 l -0.01,-0.0566 h 0.067 0.067 v 0.0703 0.0703 h -0.058 c -0.049,0 -0.059,-0.002 -0.062,-0.0137 z"
       style="fill:#000000;fill-opacity:1;stroke:#40002b;stroke-width:0;stroke-linejoin:bevel;stroke-miterlimit:4;stroke-dasharray:none;stroke-dashoffset:0;stroke-opacity:0.996074" />
    <path
       transform="scale(0.26458333)"
       id="path1394"
       d="m 1903.6061,525.65388 c -0.011,-0.0398 -0.018,-0.074 -0.015,-0.0761 0,-0.002 0.074,-0.0171 0.1587,-0.0335 0.2143,-0.0412 0.5488,-0.12646 0.7816,-0.19908 0.6125,-0.19108 1.2116,-0.46721 1.7671,-0.81443 0.1754,-0.10968 0.1639,-0.10418 0.1639,-0.0778 0,0.0196 0.012,0.0219 0.1408,0.0285 0.078,0.004 0.164,0.007 0.1921,0.007 l 0.051,5e-5 0.01,-0.17402 0.01,-0.17401 0.095,-0.0741 c 0.3772,-0.29346 0.7837,-0.68835 1.1151,-1.08327 0.8616,-1.02666 1.4544,-2.31793 1.6645,-3.62548 0.072,-0.44952 0.1166,-1.06262 0.099,-1.36844 l -0.01,-0.12982 h 0.029 0.029 v 3.93329 3.93328 h -1.5852 -1.5853 l 0.01,-0.0482 0.01,-0.0482 -0.1587,-0.0242 c -0.2455,-0.0375 -0.2233,-0.0419 -0.2351,0.046 l -0.01,0.0746 h -1.3501 -1.35 z m 3.1796,-0.43074 c 0.011,-0.0681 0.034,-0.34751 0.028,-0.35266 0,-0.003 -0.072,-0.0102 -0.1537,-0.0166 -0.082,-0.006 -0.1663,-0.014 -0.1876,-0.0168 l -0.039,-0.005 -0.019,0.18998 c -0.01,0.10448 -0.018,0.19081 -0.017,0.19183 0,10e-4 0.084,0.0118 0.1845,0.0239 0.1003,0.0121 0.1854,0.0226 0.1891,0.0233 0,7.1e-4 0.01,-0.0163 0.013,-0.0377 z"
       style="fill:#1812f8;fill-opacity:0.882353;stroke:#40002b;stroke-width:0;stroke-linejoin:bevel;stroke-miterlimit:4;stroke-dasharray:none;stroke-dashoffset:0;stroke-opacity:0.996074" />
    <path
       transform="scale(0.26458333)"
       id="path1396"
       d="m 1902.166,525.70677 v -0.0189 l 0.1865,-0.003 c 0.2815,-0.004 0.5054,-0.017 0.7443,-0.0439 0.047,-0.005 0.089,-0.01 0.094,-0.01 0.01,0 0.01,0.005 0.021,0.0427 0.01,0.0235 0.013,0.0446 0.013,0.0469 0,0.003 -0.1538,0.004 -0.5293,0.004 h -0.5293 z"
       style="fill:#000000;fill-opacity:1;stroke:#40002b;stroke-width:0;stroke-linejoin:bevel;stroke-miterlimit:4;stroke-dasharray:none;stroke-dashoffset:0;stroke-opacity:0.996074" />
    <path
       transform="scale(0.26458333)"
       id="path1398"
       d="m 1909.8741,517.53241 c 0,-0.0292 -0.01,-0.12991 -0.021,-0.22374 -0.1286,-1.03667 -0.581,-1.9805 -1.3046,-2.72149 -0.3991,-0.4087 -0.8024,-0.70232 -1.2983,-0.94538 -0.238,-0.1166 -0.3634,-0.16817 -0.6038,-0.24815 -0.4196,-0.13968 -0.8496,-0.21697 -1.322,-0.23766 -0.1081,-0.005 0.8672,-0.009 2.1827,-0.0103 l 2.3782,-0.002 v 2.22076 c 0,1.22141 0,2.22075 -0.01,2.22075 0,0 -0.01,-0.0239 -0.01,-0.0531 z"
       style="fill:#1812f8;fill-opacity:0.882353;stroke:#40002b;stroke-width:0;stroke-linejoin:bevel;stroke-miterlimit:4;stroke-dasharray:none;stroke-dashoffset:0;stroke-opacity:0.996074" />
    <path
       transform="scale(0.26458333)"
       id="path1402"
       d="m 1902.1899,514.06832 v -0.9194 l 1.4611,0.002 c 0.8037,9.2e-4 1.3966,0.005 1.3176,0.01 -0.6125,0.0352 -1.2066,0.26418 -1.6849,0.64932 -0.1303,0.10485 -0.3346,0.30844 -0.4345,0.43291 -0.096,0.11976 -0.2323,0.32224 -0.2994,0.44533 l -0.052,0.0958 -0.043,-0.0349 c -0.024,-0.0192 -0.045,-0.0328 -0.047,-0.0302 -0.05,0.0644 -0.1916,0.24094 -0.2025,0.25281 -0.012,0.0136 -0.015,-0.13203 -0.015,-0.90322 z"
       style="fill:#000000;fill-opacity:1;stroke:#40002b;stroke-width:0;stroke-linejoin:bevel;stroke-miterlimit:4;stroke-dasharray:none;stroke-dashoffset:0;stroke-opacity:0.996074" />
    <path
       transform="scale(0.26458333)"
       id="path1404"
       d="m 1902.1876,515.52395 c -3e-4,-0.47175 0,-0.49544 0.01,-0.48992 0,0.003 0.039,0.0316 0.078,0.0631 0.039,0.0315 0.072,0.0589 0.073,0.0607 0,0.002 0,0.019 -0.01,0.038 -0.072,0.21293 -0.1288,0.51506 -0.139,0.74366 0,0.0333 0,0.0649 -0.01,0.0703 0,0.005 0,-0.21331 0,-0.48595 z"
       style="fill:#1812f8;fill-opacity:0.882353;stroke:#40002b;stroke-width:0;stroke-linejoin:bevel;stroke-miterlimit:4;stroke-dasharray:none;stroke-dashoffset:0;stroke-opacity:0.996074" />
    <rect
       y="92.117119"
       x="313.71609"
       height="162.16072"
       width="262.71109"
       id="rect1412"
       style="fill:#000000;fill-opacity:0;stroke:#33374a;stroke-width:0;stroke-linejoin:bevel;stroke-miterlimit:4;stroke-dasharray:none;stroke-dashoffset:0;stroke-opacity:0.567933" />
  </g>
</svg>
