<?xml version="1.0" standalone="no"?>
<!DOCTYPE svg PUBLIC "-//W3C//DTD SVG 20010904//EN"
 "http://www.w3.org/TR/2001/REC-SVG-20010904/DTD/svg10.dtd">
<svg version="1.0" xmlns="http://www.w3.org/2000/svg"
 width="400.000000pt" height="400.000000pt" viewBox="0 0 400.000000 400.000000"
 preserveAspectRatio="xMidYMid meet">
<metadata>
Created by potrace 1.16, written by Peter Selinger 2001-2019
</metadata>
<g transform="translate(0.000000,400.000000) scale(0.100000,-0.100000)"
fill="#000000" stroke="none">
<path d="M130 2000 l0 -1870 1870 0 1870 0 0 1870 0 1870 -1870 0 -1870 0 0
-1870z m1885 1050 c3 -5 0 -10 -8 -10 -21 0 -40 -49 -26 -66 11 -13 10 -29 -6
-66 -5 -14 -2 -18 13 -18 12 0 24 -4 27 -10 3 -5 23 -10 44 -10 46 0 56 -8 36
-30 -14 -16 -14 -19 2 -35 12 -13 17 -34 18 -73 0 -63 16 -78 36 -32 8 16 19
30 24 30 6 0 16 14 22 31 10 25 16 29 32 24 17 -5 21 -2 21 17 1 34 21 53 55
51 60 -3 58 -2 46 -17 -10 -11 -8 -16 9 -21 12 -4 27 -2 33 4 15 15 27 14 27
-4 0 -8 9 -15 19 -15 11 0 23 -4 26 -10 3 -5 11 -10 16 -10 6 0 3 10 -5 22
-18 25 -20 50 -7 76 5 9 12 25 15 35 3 9 16 21 28 26 19 7 25 4 36 -15 7 -13
19 -24 27 -24 10 0 15 -10 15 -27 l1 -28 20 28 c11 15 30 27 41 27 11 0 22 8
25 19 6 25 22 31 64 22 43 -9 51 -37 15 -51 -28 -10 -32 -20 -15 -37 8 -8 6
-18 -6 -37 -10 -15 -16 -28 -14 -30 14 -11 71 -24 88 -19 14 4 21 1 21 -9 0
-24 33 -48 50 -38 28 18 43 12 36 -14 -4 -16 -2 -24 7 -23 6 0 23 -1 37 -1
l24 -2 -20 -21 c-18 -17 -19 -25 -10 -45 6 -13 17 -24 24 -24 16 0 16 -92 0
-108 -19 -19 -27 -14 -36 21 -5 21 -15 33 -29 35 -11 2 -31 14 -43 27 l-23 25
-29 -32 c-15 -17 -28 -35 -28 -39 0 -17 -38 -15 -49 2 -6 11 -20 19 -31 19
-29 0 -70 21 -70 37 0 7 -4 13 -10 13 -5 0 -10 8 -11 18 0 11 -2 12 -6 4 -3
-7 1 -19 7 -27 16 -19 4 -126 -13 -119 -7 2 -17 -7 -23 -20 -10 -20 -9 -25 6
-29 18 -5 34 -67 18 -67 -14 0 -38 -27 -38 -43 0 -10 -8 -13 -25 -9 -14 2 -25
10 -25 18 0 36 -49 24 -74 -19 l-18 -32 -18 22 c-11 14 -21 18 -27 12 -11 -11
-109 7 -119 22 -9 15 -44 10 -44 -6 0 -8 7 -15 15 -15 8 0 15 -4 15 -8 0 -5
11 -14 25 -20 14 -6 25 -18 25 -26 0 -7 9 -16 20 -19 11 -3 20 -13 20 -24 1
-10 15 -27 33 -38 34 -22 43 -51 15 -49 -20 2 -24 -21 -7 -32 6 -3 8 -17 4
-31 -4 -19 -2 -24 7 -21 58 22 61 22 56 -10 -3 -20 0 -28 7 -26 7 3 18 -2 25
-11 7 -8 8 -15 2 -15 -18 0 -23 -33 -7 -56 17 -27 20 -74 4 -74 -6 0 -19 5
-29 10 -13 7 -21 7 -25 0 -9 -15 -25 -12 -25 4 0 7 -6 19 -14 25 -18 15 -46
-26 -46 -69 0 -21 -5 -30 -16 -30 -18 0 -44 -23 -44 -39 0 -6 -6 -8 -12 -6
-16 5 -94 -62 -84 -72 3 -4 12 -1 18 5 17 17 93 15 108 -3 7 -8 25 -14 44 -12
30 2 31 1 31 -38 0 -38 2 -40 33 -43 30 -3 33 -6 28 -27 -5 -19 -3 -23 8 -19
19 7 30 -14 16 -31 -9 -10 -10 -33 -5 -72 7 -57 7 -58 -12 -40 -11 9 -24 17
-30 17 -5 0 -18 9 -27 19 -15 16 -22 18 -42 9 -14 -7 -23 -17 -20 -24 5 -14
-13 -34 -31 -34 -7 0 -10 7 -6 16 5 14 3 15 -17 4 -16 -9 -29 -9 -44 -2 -11 6
-34 13 -50 17 l-28 6 36 -38 c20 -21 36 -48 36 -59 0 -12 7 -27 15 -34 8 -7
15 -23 15 -36 0 -17 -4 -22 -15 -18 -9 4 -15 0 -15 -9 0 -8 -7 -20 -15 -27 -8
-7 -15 -18 -15 -24 0 -6 5 -4 10 4 7 12 13 12 27 4 27 -17 29 -54 4 -61 -24
-6 -27 -27 -7 -65 18 -34 7 -42 -30 -23 -16 8 -32 15 -35 15 -3 0 -14 -20 -25
-45 -12 -31 -24 -45 -37 -45 -10 0 -27 -4 -37 -10 -12 -6 -27 -6 -42 -1 -13 6
-16 10 -8 10 24 2 39 45 24 66 -11 15 -11 24 1 51 8 19 11 35 7 38 -4 2 -29 7
-57 11 -77 10 -81 12 -61 34 16 18 16 20 -9 39 -15 12 -21 23 -15 27 17 11 9
115 -9 115 -4 0 -13 -16 -21 -35 -8 -19 -19 -35 -24 -35 -6 0 -19 -14 -28 -30
-11 -20 -22 -28 -32 -24 -12 5 -16 0 -16 -20 0 -14 -4 -26 -10 -26 -5 0 -10
-6 -10 -13 0 -9 -12 -11 -40 -9 -31 3 -40 8 -38 21 4 19 -37 28 -56 12 -10 -9
-15 -7 -18 7 -4 12 -17 21 -37 24 -28 4 -30 3 -16 -12 18 -20 19 -34 1 -85 -8
-23 -24 -45 -37 -52 -21 -11 -25 -10 -36 11 -7 13 -19 26 -28 30 -8 3 -15 15
-15 26 0 27 -13 26 -25 -2 -6 -14 -21 -24 -37 -26 -19 -2 -28 -9 -28 -22 0
-23 -19 -30 -61 -21 -40 8 -53 39 -19 48 17 5 21 11 17 32 -3 14 1 37 8 51 12
23 11 25 -17 37 -16 7 -40 10 -53 7 -17 -4 -25 -1 -29 14 -10 31 -34 48 -48
34 -21 -21 -41 -14 -35 11 5 18 2 22 -19 23 -34 2 -41 11 -22 30 12 12 13 20
4 40 -6 13 -16 24 -22 24 -15 0 -17 89 -3 106 15 18 39 1 39 -27 0 -11 7 -19
15 -19 8 0 29 -13 46 -28 l32 -29 29 30 c15 17 28 34 28 38 0 5 11 9 25 9 14
0 25 -4 25 -9 0 -4 20 -14 43 -21 36 -9 46 -18 57 -46 14 -35 30 -45 30 -19 0
8 -5 15 -10 15 -7 0 -10 24 -8 63 2 48 6 61 18 60 8 -2 20 8 26 21 10 21 9 25
-7 29 -10 3 -19 16 -21 33 -2 22 4 35 28 57 38 32 60 35 69 6 4 -13 12 -18 22
-15 8 3 19 6 24 6 5 0 9 6 9 14 0 7 7 19 15 26 13 10 19 10 33 -3 12 -11 22
-13 28 -7 12 12 110 -6 120 -21 6 -11 44 -12 44 -1 0 5 -18 21 -40 38 -22 16
-40 34 -40 40 0 7 -9 14 -20 17 -12 3 -20 14 -20 26 0 13 -9 25 -23 30 -13 5
-29 16 -36 25 -15 18 -5 40 15 32 16 -6 19 20 3 30 -6 3 -8 16 -5 29 8 30 -1
36 -32 19 -37 -19 -42 -18 -42 10 0 13 -7 29 -15 36 -14 12 -14 15 1 31 15 16
15 20 0 41 -31 45 -13 101 22 66 8 -8 15 -8 26 2 13 10 17 8 26 -14 5 -14 14
-26 19 -26 16 0 41 49 41 80 0 23 6 33 25 40 14 5 28 16 31 24 3 8 11 13 17
11 19 -7 91 61 76 71 -7 4 -15 2 -17 -4 -6 -18 -87 -15 -102 3 -7 8 -25 14
-44 12 -30 -2 -31 -1 -31 38 0 37 -2 40 -30 43 -39 5 -51 17 -35 37 11 13 10
14 -4 9 -21 -8 -32 21 -16 41 8 10 10 31 5 67 -7 52 -7 53 12 36 11 -10 24
-18 30 -18 5 0 18 -9 27 -19 15 -16 22 -18 41 -9 13 6 25 20 27 32 2 11 11 22
20 24 13 3 16 -1 12 -13 -6 -15 -4 -15 14 -4 16 10 26 10 44 2 13 -6 33 -14
45 -16 19 -4 21 -2 14 12 -5 9 -19 25 -30 35 -12 11 -21 28 -21 39 0 12 -10
31 -21 43 -22 24 -20 57 3 49 7 -3 20 10 29 29 17 32 17 33 -5 29 -13 -3 -28
2 -36 12 -13 15 -11 20 13 41 27 23 27 25 13 59 -15 36 -6 56 17 37 7 -5 21
-12 33 -16 18 -5 24 1 39 39 18 43 25 49 52 46 6 -1 14 3 18 9 8 13 52 13 60
0z"/>
</g>
</svg>
