<?xml version="1.0" encoding="UTF-8" standalone="no"?>
<svg
   xmlns:dc="http://purl.org/dc/elements/1.1/"
   xmlns:cc="http://creativecommons.org/ns#"
   xmlns:rdf="http://www.w3.org/1999/02/22-rdf-syntax-ns#"
   xmlns:svg="http://www.w3.org/2000/svg"
   xmlns="http://www.w3.org/2000/svg"
   xmlns:xlink="http://www.w3.org/1999/xlink"
   xmlns:sodipodi="http://sodipodi.sourceforge.net/DTD/sodipodi-0.dtd"
   xmlns:inkscape="http://www.inkscape.org/namespaces/inkscape"
   width="210mm"
   height="297mm"
   viewBox="0 0 210 297"
   version="1.1"
   id="svg21980"
   sodipodi:docname="golden-angle-diagram.svg"
   inkscape:version="1.0.1 (3bc2e813f5, 2020-09-07)">
  <defs
     id="defs21974">
    <g
       id="g6344">
      <symbol
         overflow="visible"
         id="symbol8084">
        <path
           style="stroke:none;"
           d=""
           id="path8052" />
      </symbol>
      <symbol
         overflow="visible"
         id="symbol5931">
        <path
           style="stroke:none;"
           d="M 1.265625 -0.765625 L 2.328125 -1.796875 C 3.875 -3.171875 4.46875 -3.703125 4.46875 -4.703125 C 4.46875 -5.84375 3.578125 -6.640625 2.359375 -6.640625 C 1.234375 -6.640625 0.5 -5.71875 0.5 -4.828125 C 0.5 -4.28125 1 -4.28125 1.03125 -4.28125 C 1.203125 -4.28125 1.546875 -4.390625 1.546875 -4.8125 C 1.546875 -5.0625 1.359375 -5.328125 1.015625 -5.328125 C 0.9375 -5.328125 0.921875 -5.328125 0.890625 -5.3125 C 1.109375 -5.96875 1.65625 -6.328125 2.234375 -6.328125 C 3.140625 -6.328125 3.5625 -5.515625 3.5625 -4.703125 C 3.5625 -3.90625 3.078125 -3.125 2.515625 -2.5 L 0.609375 -0.375 C 0.5 -0.265625 0.5 -0.234375 0.5 0 L 4.203125 0 L 4.46875 -1.734375 L 4.234375 -1.734375 C 4.171875 -1.4375 4.109375 -1 4 -0.84375 C 3.9375 -0.765625 3.28125 -0.765625 3.0625 -0.765625 Z M 1.265625 -0.765625 "
           id="path5648" />
      </symbol>
      <symbol
         overflow="visible"
         id="symbol7786">
        <path
           style="stroke:none;"
           d="M 3.296875 2.390625 C 3.296875 2.359375 3.296875 2.34375 3.125 2.171875 C 1.890625 0.921875 1.5625 -0.96875 1.5625 -2.5 C 1.5625 -4.234375 1.9375 -5.96875 3.171875 -7.203125 C 3.296875 -7.328125 3.296875 -7.34375 3.296875 -7.375 C 3.296875 -7.453125 3.265625 -7.484375 3.203125 -7.484375 C 3.09375 -7.484375 2.203125 -6.796875 1.609375 -5.53125 C 1.109375 -4.4375 0.984375 -3.328125 0.984375 -2.5 C 0.984375 -1.71875 1.09375 -0.515625 1.640625 0.625 C 2.25 1.84375 3.09375 2.5 3.203125 2.5 C 3.265625 2.5 3.296875 2.46875 3.296875 2.390625 Z M 3.296875 2.390625 "
           id="path2266" />
      </symbol>
      <symbol
         overflow="visible"
         id="symbol6897">
        <path
           style="stroke:none;"
           d="M 2.9375 -6.375 C 2.9375 -6.625 2.9375 -6.640625 2.703125 -6.640625 C 2.078125 -6 1.203125 -6 0.890625 -6 L 0.890625 -5.6875 C 1.09375 -5.6875 1.671875 -5.6875 2.1875 -5.953125 L 2.1875 -0.78125 C 2.1875 -0.421875 2.15625 -0.3125 1.265625 -0.3125 L 0.953125 -0.3125 L 0.953125 0 C 1.296875 -0.03125 2.15625 -0.03125 2.5625 -0.03125 C 2.953125 -0.03125 3.828125 -0.03125 4.171875 0 L 4.171875 -0.3125 L 3.859375 -0.3125 C 2.953125 -0.3125 2.9375 -0.421875 2.9375 -0.78125 Z M 2.9375 -6.375 "
           id="path7783" />
      </symbol>
      <symbol
         overflow="visible"
         id="symbol9841">
        <path
           style="stroke:none;"
           d="M 2.875 -2.5 C 2.875 -3.265625 2.765625 -4.46875 2.21875 -5.609375 C 1.625 -6.828125 0.765625 -7.484375 0.671875 -7.484375 C 0.609375 -7.484375 0.5625 -7.4375 0.5625 -7.375 C 0.5625 -7.34375 0.5625 -7.328125 0.75 -7.140625 C 1.734375 -6.15625 2.296875 -4.578125 2.296875 -2.5 C 2.296875 -0.78125 1.9375 0.96875 0.703125 2.21875 C 0.5625 2.34375 0.5625 2.359375 0.5625 2.390625 C 0.5625 2.453125 0.609375 2.5 0.671875 2.5 C 0.765625 2.5 1.671875 1.8125 2.25 0.546875 C 2.765625 -0.546875 2.875 -1.65625 2.875 -2.5 Z M 2.875 -2.5 "
           id="path5122" />
      </symbol>
      <symbol
         overflow="visible"
         id="symbol9189">
        <path
           style="stroke:none;"
           d=""
           id="path1552" />
      </symbol>
      <symbol
         overflow="visible"
         id="symbol1195">
        <path
           style="stroke:none;"
           d="M 2.640625 -3.71875 L 3.765625 -3.71875 C 3.4375 -2.25 3.34375 -1.8125 3.34375 -1.140625 C 3.34375 -1 3.34375 -0.734375 3.421875 -0.390625 C 3.53125 0.046875 3.640625 0.109375 3.78125 0.109375 C 3.984375 0.109375 4.203125 -0.0625 4.203125 -0.265625 C 4.203125 -0.328125 4.203125 -0.34375 4.140625 -0.484375 C 3.84375 -1.203125 3.84375 -1.859375 3.84375 -2.140625 C 3.84375 -2.65625 3.921875 -3.203125 4.03125 -3.71875 L 5.15625 -3.71875 C 5.296875 -3.71875 5.65625 -3.71875 5.65625 -4.0625 C 5.65625 -4.296875 5.4375 -4.296875 5.25 -4.296875 L 1.90625 -4.296875 C 1.6875 -4.296875 1.3125 -4.296875 0.875 -3.828125 C 0.53125 -3.4375 0.265625 -2.984375 0.265625 -2.9375 C 0.265625 -2.921875 0.265625 -2.828125 0.390625 -2.828125 C 0.46875 -2.828125 0.484375 -2.875 0.546875 -2.953125 C 1.03125 -3.71875 1.609375 -3.71875 1.8125 -3.71875 L 2.375 -3.71875 C 2.0625 -2.515625 1.53125 -1.3125 1.109375 -0.40625 C 1.03125 -0.25 1.03125 -0.234375 1.03125 -0.15625 C 1.03125 0.03125 1.1875 0.109375 1.3125 0.109375 C 1.609375 0.109375 1.6875 -0.171875 1.8125 -0.53125 C 1.953125 -1 1.953125 -1.015625 2.078125 -1.515625 Z M 2.640625 -3.71875 "
           id="path9177" />
      </symbol>
      <symbol
         overflow="visible"
         id="symbol7133">
        <path
           style="stroke:none;"
           d=""
           id="path3546" />
      </symbol>
      <symbol
         overflow="visible"
         id="symbol4118">
        <path
           style="stroke:none;"
           d="M 6.5625 -2.296875 C 6.734375 -2.296875 6.921875 -2.296875 6.921875 -2.5 C 6.921875 -2.6875 6.734375 -2.6875 6.5625 -2.6875 L 1.171875 -2.6875 C 1 -2.6875 0.828125 -2.6875 0.828125 -2.5 C 0.828125 -2.296875 1 -2.296875 1.171875 -2.296875 Z M 6.5625 -2.296875 "
           id="path4532" />
      </symbol>
      <symbol
         overflow="visible"
         id="symbol8452">
        <path
           style="stroke:none;"
           d=""
           id="path1932" />
      </symbol>
      <symbol
         overflow="visible"
         id="symbol8493">
        <path
           style="stroke:none;"
           d="M 2.328125 -4.4375 C 2.328125 -4.625 2.328125 -4.625 2.125 -4.625 C 1.671875 -4.1875 1.046875 -4.1875 0.765625 -4.1875 L 0.765625 -3.9375 C 0.921875 -3.9375 1.390625 -3.9375 1.765625 -4.125 L 1.765625 -0.578125 C 1.765625 -0.34375 1.765625 -0.25 1.078125 -0.25 L 0.8125 -0.25 L 0.8125 0 C 0.9375 0 1.796875 -0.03125 2.046875 -0.03125 C 2.265625 -0.03125 3.140625 0 3.296875 0 L 3.296875 -0.25 L 3.03125 -0.25 C 2.328125 -0.25 2.328125 -0.34375 2.328125 -0.578125 Z M 2.328125 -4.4375 "
           id="path7484" />
      </symbol>
      <symbol
         overflow="visible"
         id="symbol9560">
        <path
           style="stroke:none;"
           d=""
           id="path2652" />
      </symbol>
      <symbol
         overflow="visible"
         id="symbol9686">
        <path
           style="stroke:none;"
           d="M 2.203125 0.0625 C 2.28125 0.0625 2.359375 0.0625 2.4375 0.0625 C 3.6875 0.0625 4.84375 -0.953125 4.84375 -2.0625 C 4.84375 -2.671875 4.46875 -3.078125 3.9375 -3.078125 C 2.96875 -3.078125 2.453125 -1.84375 2.265625 -1.328125 C 2.171875 -1.0625 2.015625 -0.578125 1.984375 -0.453125 C 1.21875 -0.546875 0.71875 -0.90625 0.71875 -1.421875 C 0.71875 -1.421875 0.765625 -2.203125 1.328125 -2.828125 C 1.375 -2.875 1.390625 -2.890625 1.390625 -2.921875 C 1.390625 -3 1.296875 -3 1.28125 -3 C 1.21875 -3 1.1875 -3 1.046875 -2.84375 C 0.65625 -2.375 0.484375 -1.640625 0.484375 -1.34375 C 0.484375 -0.71875 0.9375 -0.1875 1.828125 0 C 1.484375 1.09375 1.4375 1.21875 1.4375 1.28125 C 1.4375 1.46875 1.609375 1.5 1.671875 1.5 C 1.75 1.5 1.890625 1.453125 1.953125 1.359375 C 2 1.25 2.0625 0.890625 2.203125 0.0625 Z M 2.296875 -0.40625 C 2.4375 -1.21875 2.484375 -1.53125 2.828125 -1.984375 C 3.140625 -2.40625 3.5 -2.59375 3.859375 -2.59375 C 4.328125 -2.59375 4.59375 -2.28125 4.59375 -1.921875 C 4.59375 -1.21875 3.71875 -0.40625 2.515625 -0.40625 C 2.453125 -0.40625 2.359375 -0.40625 2.296875 -0.40625 Z M 2.296875 -0.40625 "
           id="path525" />
      </symbol>
    </g>
  </defs>
  <sodipodi:namedview
     id="base"
     pagecolor="#ffffff"
     bordercolor="#666666"
     borderopacity="1.0"
     inkscape:pageopacity="0.0"
     inkscape:pageshadow="2"
     inkscape:zoom="0.7"
     inkscape:cx="383.53937"
     inkscape:cy="1097.4018"
     inkscape:document-units="mm"
     inkscape:current-layer="layer1"
     inkscape:document-rotation="0"
     showgrid="false"
     inkscape:window-width="1896"
     inkscape:window-height="1935"
     inkscape:window-x="3842"
     inkscape:window-y="152"
     inkscape:window-maximized="0" />
  <metadata
     id="metadata21977">
    <rdf:RDF>
      <cc:Work
         rdf:about="">
        <dc:format>image/svg+xml</dc:format>
        <dc:type
           rdf:resource="http://purl.org/dc/dcmitype/StillImage" />
        <dc:title></dc:title>
      </cc:Work>
    </rdf:RDF>
  </metadata>
  <g
     inkscape:label="Layer 1"
     inkscape:groupmode="layer"
     id="layer1">
    <g
       id="g22683">
      <g
         id="g22553">
        <path
           style="opacity:1;fill:#ff0000;fill-opacity:0.4027319;stroke:#0057ff;stroke-width:3.26275;stroke-linejoin:bevel;stroke-miterlimit:4;stroke-dasharray:none;stroke-dashoffset:0;stroke-opacity:0.9316749"
           id="path22543"
           sodipodi:type="arc"
           sodipodi:cx="-178.10155"
           sodipodi:cy="-99.123795"
           sodipodi:rx="51.17374"
           sodipodi:ry="51.17374"
           sodipodi:start="0"
           sodipodi:end="2.3999621"
           sodipodi:arc-type="slice"
           d="m -126.92781,-99.123795 a 51.17374,51.17374 0 0 1 -32.62963,47.695575 51.17374,51.17374 0 0 1 -56.27799,-13.128167 l 37.73388,-34.567408 z"
           transform="rotate(-137.08669)" />
        <path
           style="opacity:1;fill:#004fff;fill-opacity:0.398352;stroke:#ff0000;stroke-width:3.879;stroke-linejoin:bevel;stroke-miterlimit:4;stroke-dasharray:none;stroke-dashoffset:0;stroke-opacity:0.931675"
           id="path22549"
           sodipodi:type="arc"
           sodipodi:cx="64.239868"
           sodipodi:cy="197.06894"
           sodipodi:rx="51.573841"
           sodipodi:ry="51.573841"
           sodipodi:start="0"
           sodipodi:end="3.8746309"
           sodipodi:arc-type="slice"
           d="m 115.81371,197.06894 a 51.573841,51.573841 0 0 1 -37.358164,49.57596 51.573841,51.573841 0 0 1 -57.952775,-22.24599 51.573841,51.573841 0 0 1 5.410263,-61.8396 l 38.326834,34.50963 z"
           transform="rotate(0.85300874)" />
      </g>
      <path
         style="fill:none;stroke:#000000;stroke-width:1;stroke-linecap:butt;stroke-linejoin:miter;stroke-opacity:1;stroke-miterlimit:4;stroke-dasharray:none"
         d="m 41.768929,171.88117 c 20.992212,-3.63012 39.952591,-2.03592 50.756846,20.52956"
         id="path22559"
         sodipodi:nodetypes="cc" />
      <g
         inkscape:label=""
         transform="matrix(0.59998251,0,0,0.59998251,0.20201621,134.10901)"
         id="g22612">
        <g
           id="g1143">
          <g
             style="fill:#000000;fill-opacity:1"
             id="g9613">
            <use
               xlink:href="#symbol5931"
               x="91.925003"
               y="81.962997"
               id="use8579"
               width="100%"
               height="100%" />
          </g>
          <g
             style="fill:#000000;fill-opacity:1"
             id="g4035">
            <use
               xlink:href="#symbol1195"
               x="96.906998"
               y="81.962997"
               id="use5582"
               width="100%"
               height="100%" />
          </g>
          <g
             style="fill:#000000;fill-opacity:1"
             id="g4281">
            <use
               xlink:href="#symbol7786"
               x="102.943"
               y="81.962997"
               id="use8197"
               width="100%"
               height="100%" />
            <use
               xlink:href="#symbol6897"
               x="106.81745"
               y="81.962997"
               id="use9628"
               width="100%"
               height="100%" />
          </g>
          <g
             style="fill:#000000;fill-opacity:1"
             id="g2040">
            <use
               xlink:href="#symbol4118"
               x="114.013"
               y="81.962997"
               id="use2625"
               width="100%"
               height="100%" />
          </g>
          <g
             style="fill:#000000;fill-opacity:1"
             id="g9247">
            <use
               xlink:href="#symbol8493"
               x="125.805"
               y="78.040001"
               id="use9582"
               width="100%"
               height="100%" />
          </g>
          <path
             style="fill:none;stroke:#000000;stroke-width:0.398;stroke-linecap:butt;stroke-linejoin:miter;stroke-miterlimit:10;stroke-opacity:1"
             d="M 8.75e-4,-6.5625e-4 H 5.239156"
             transform="matrix(1,0,0,-1,125.171,79.472)"
             id="path7914" />
          <g
             style="fill:#000000;fill-opacity:1"
             id="g8263">
            <use
               xlink:href="#symbol9686"
               x="125.171"
               y="85.398003"
               id="use3458"
               width="100%"
               height="100%" />
          </g>
          <g
             style="fill:#000000;fill-opacity:1"
             id="g7129">
            <use
               xlink:href="#symbol9841"
               x="131.606"
               y="81.962997"
               id="use2897"
               width="100%"
               height="100%" />
          </g>
        </g>
      </g>
    </g>
  </g>
</svg>
