<?xml version="1.0" encoding="UTF-8" standalone="no"?>
<svg
   xmlns:dc="http://purl.org/dc/elements/1.1/"
   xmlns:cc="http://creativecommons.org/ns#"
   xmlns:rdf="http://www.w3.org/1999/02/22-rdf-syntax-ns#"
   xmlns:svg="http://www.w3.org/2000/svg"
   xmlns="http://www.w3.org/2000/svg"
   xmlns:xlink="http://www.w3.org/1999/xlink"
   xmlns:sodipodi="http://sodipodi.sourceforge.net/DTD/sodipodi-0.dtd"
   xmlns:inkscape="http://www.inkscape.org/namespaces/inkscape"
   width="107.96288mm"
   height="110.46067mm"
   viewBox="0 0 107.96288 110.46067"
   version="1.1"
   id="svg21980"
   sodipodi:docname="golden-angle-diagram.svg"
   inkscape:version="1.0.1 (3bc2e813f5, 2020-09-07)">
  <defs
     id="defs21974">
    <g
       id="g6344">
      <symbol
         overflow="visible"
         id="symbol8084">
        <path
           style="stroke:none"
           d=""
           id="path8052" />
      </symbol>
      <symbol
         overflow="visible"
         id="symbol5931">
        <path
           style="stroke:none"
           d="m 1.265625,-0.765625 1.0625,-1.03125 c 1.546875,-1.375 2.140625,-1.90625 2.140625,-2.90625 0,-1.140625 -0.890625,-1.9375 -2.109375,-1.9375 -1.125,0 -1.859375,0.921875 -1.859375,1.8125 0,0.546875 0.5,0.546875 0.53125,0.546875 0.171875,0 0.515625,-0.109375 0.515625,-0.53125 0,-0.25 -0.1875,-0.515625 -0.53125,-0.515625 -0.078125,0 -0.09375,0 -0.125,0.015625 0.21875,-0.65625 0.765625,-1.015625 1.34375,-1.015625 0.90625,0 1.328125,0.8125 1.328125,1.625 C 3.5625,-3.90625 3.078125,-3.125 2.515625,-2.5 l -1.90625,2.125 C 0.5,-0.265625 0.5,-0.234375 0.5,0 H 4.203125 L 4.46875,-1.734375 H 4.234375 C 4.171875,-1.4375 4.109375,-1 4,-0.84375 3.9375,-0.765625 3.28125,-0.765625 3.0625,-0.765625 Z m 0,0"
           id="path5648" />
      </symbol>
      <symbol
         overflow="visible"
         id="symbol7786">
        <path
           style="stroke:none"
           d="m 3.296875,2.390625 c 0,-0.03125 0,-0.046875 -0.171875,-0.21875 C 1.890625,0.921875 1.5625,-0.96875 1.5625,-2.5 c 0,-1.734375 0.375,-3.46875 1.609375,-4.703125 0.125,-0.125 0.125,-0.140625 0.125,-0.171875 0,-0.078125 -0.03125,-0.109375 -0.09375,-0.109375 -0.109375,0 -1,0.6875 -1.59375,1.953125 -0.5,1.09375 -0.625,2.203125 -0.625,3.03125 0,0.78125 0.109375,1.984375 0.65625,3.125 C 2.25,1.84375 3.09375,2.5 3.203125,2.5 c 0.0625,0 0.09375,-0.03125 0.09375,-0.109375 z m 0,0"
           id="path2266" />
      </symbol>
      <symbol
         overflow="visible"
         id="symbol6897">
        <path
           style="stroke:none"
           d="m 2.9375,-6.375 c 0,-0.25 0,-0.265625 -0.234375,-0.265625 C 2.078125,-6 1.203125,-6 0.890625,-6 v 0.3125 c 0.203125,0 0.78125,0 1.296875,-0.265625 v 5.171875 c 0,0.359375 -0.03125,0.46875 -0.921875,0.46875 h -0.3125 V 0 c 0.34375,-0.03125 1.203125,-0.03125 1.609375,-0.03125 0.390625,0 1.265625,0 1.609375,0.03125 v -0.3125 h -0.3125 c -0.90625,0 -0.921875,-0.109375 -0.921875,-0.46875 z m 0,0"
           id="path7783" />
      </symbol>
      <symbol
         overflow="visible"
         id="symbol9841">
        <path
           style="stroke:none"
           d="m 2.875,-2.5 c 0,-0.765625 -0.109375,-1.96875 -0.65625,-3.109375 -0.59375,-1.21875 -1.453125,-1.875 -1.546875,-1.875 -0.0625,0 -0.109375,0.046875 -0.109375,0.109375 0,0.03125 0,0.046875 0.1875,0.234375 0.984375,0.984375 1.546875,2.5625 1.546875,4.640625 0,1.71875 -0.359375,3.46875 -1.59375,4.71875 C 0.5625,2.34375 0.5625,2.359375 0.5625,2.390625 0.5625,2.453125 0.609375,2.5 0.671875,2.5 0.765625,2.5 1.671875,1.8125 2.25,0.546875 2.765625,-0.546875 2.875,-1.65625 2.875,-2.5 Z m 0,0"
           id="path5122" />
      </symbol>
      <symbol
         overflow="visible"
         id="symbol9189">
        <path
           style="stroke:none"
           d=""
           id="path1552" />
      </symbol>
      <symbol
         overflow="visible"
         id="symbol1195">
        <path
           style="stroke:none"
           d="m 2.640625,-3.71875 h 1.125 C 3.4375,-2.25 3.34375,-1.8125 3.34375,-1.140625 c 0,0.140625 0,0.40625 0.078125,0.75 0.109375,0.4375 0.21875,0.5 0.359375,0.5 0.203125,0 0.421875,-0.171875 0.421875,-0.375 0,-0.0625 0,-0.078125 -0.0625,-0.21875 -0.296875,-0.71875 -0.296875,-1.375 -0.296875,-1.65625 0,-0.515625 0.078125,-1.0625 0.1875,-1.578125 h 1.125 c 0.140625,0 0.5,0 0.5,-0.34375 0,-0.234375 -0.21875,-0.234375 -0.40625,-0.234375 H 1.90625 c -0.21875,0 -0.59375,0 -1.03125,0.46875 -0.34375,0.390625 -0.609375,0.84375 -0.609375,0.890625 0,0.015625 0,0.109375 0.125,0.109375 0.078125,0 0.09375,-0.046875 0.15625,-0.125 C 1.03125,-3.71875 1.609375,-3.71875 1.8125,-3.71875 H 2.375 C 2.0625,-2.515625 1.53125,-1.3125 1.109375,-0.40625 1.03125,-0.25 1.03125,-0.234375 1.03125,-0.15625 c 0,0.1875 0.15625,0.265625 0.28125,0.265625 0.296875,0 0.375,-0.28125 0.5,-0.640625 C 1.953125,-1 1.953125,-1.015625 2.078125,-1.515625 Z m 0,0"
           id="path9177" />
      </symbol>
      <symbol
         overflow="visible"
         id="symbol7133">
        <path
           style="stroke:none"
           d=""
           id="path3546" />
      </symbol>
      <symbol
         overflow="visible"
         id="symbol4118">
        <path
           style="stroke:none"
           d="m 6.5625,-2.296875 c 0.171875,0 0.359375,0 0.359375,-0.203125 0,-0.1875 -0.1875,-0.1875 -0.359375,-0.1875 H 1.171875 c -0.171875,0 -0.34375,0 -0.34375,0.1875 0,0.203125 0.171875,0.203125 0.34375,0.203125 z m 0,0"
           id="path4532" />
      </symbol>
      <symbol
         overflow="visible"
         id="symbol8452">
        <path
           style="stroke:none"
           d=""
           id="path1932" />
      </symbol>
      <symbol
         overflow="visible"
         id="symbol8493">
        <path
           style="stroke:none"
           d="m 2.328125,-4.4375 c 0,-0.1875 0,-0.1875 -0.203125,-0.1875 -0.453125,0.4375 -1.078125,0.4375 -1.359375,0.4375 v 0.25 c 0.15625,0 0.625,0 1,-0.1875 v 3.546875 c 0,0.234375 0,0.328125 -0.6875,0.328125 H 0.8125 V 0 c 0.125,0 0.984375,-0.03125 1.234375,-0.03125 0.21875,0 1.09375,0.03125 1.25,0.03125 V -0.25 H 3.03125 c -0.703125,0 -0.703125,-0.09375 -0.703125,-0.328125 z m 0,0"
           id="path7484" />
      </symbol>
      <symbol
         overflow="visible"
         id="symbol9560">
        <path
           style="stroke:none"
           d=""
           id="path2652" />
      </symbol>
      <symbol
         overflow="visible"
         id="symbol9686">
        <path
           style="stroke:none"
           d="m 2.203125,0.0625 c 0.078125,0 0.15625,0 0.234375,0 1.25,0 2.40625,-1.015625 2.40625,-2.125 0,-0.609375 -0.375,-1.015625 -0.90625,-1.015625 -0.96875,0 -1.484375,1.234375 -1.671875,1.75 -0.09375,0.265625 -0.25,0.75 -0.28125,0.875 C 1.21875,-0.546875 0.71875,-0.90625 0.71875,-1.421875 c 0,0 0.046875,-0.78125 0.609375,-1.40625 0.046875,-0.046875 0.0625,-0.0625 0.0625,-0.09375 C 1.390625,-3 1.296875,-3 1.28125,-3 c -0.0625,0 -0.09375,0 -0.234375,0.15625 -0.390625,0.46875 -0.5625,1.203125 -0.5625,1.5 0,0.625 0.453125,1.15625 1.34375,1.34375 C 1.484375,1.09375 1.4375,1.21875 1.4375,1.28125 1.4375,1.46875 1.609375,1.5 1.671875,1.5 1.75,1.5 1.890625,1.453125 1.953125,1.359375 2,1.25 2.0625,0.890625 2.203125,0.0625 Z m 0.09375,-0.46875 c 0.140625,-0.8125 0.1875,-1.125 0.53125,-1.578125 C 3.140625,-2.40625 3.5,-2.59375 3.859375,-2.59375 c 0.46875,0 0.734375,0.3125 0.734375,0.671875 0,0.703125 -0.875,1.515625 -2.078125,1.515625 -0.0625,0 -0.15625,0 -0.21875,0 z m 0,0"
           id="path525" />
      </symbol>
    </g>
    <g
       id="g9022">
      <symbol
         overflow="visible"
         id="symbol6567">
        <path
           style="stroke:none"
           d=""
           id="path3092" />
      </symbol>
      <symbol
         overflow="visible"
         id="symbol1646">
        <path
           style="stroke:none"
           d="m 1.265625,-0.765625 1.0625,-1.03125 c 1.546875,-1.375 2.140625,-1.90625 2.140625,-2.90625 0,-1.140625 -0.890625,-1.9375 -2.109375,-1.9375 -1.125,0 -1.859375,0.921875 -1.859375,1.8125 0,0.546875 0.5,0.546875 0.53125,0.546875 0.171875,0 0.515625,-0.109375 0.515625,-0.53125 0,-0.25 -0.1875,-0.515625 -0.53125,-0.515625 -0.078125,0 -0.09375,0 -0.125,0.015625 0.21875,-0.65625 0.765625,-1.015625 1.34375,-1.015625 0.90625,0 1.328125,0.8125 1.328125,1.625 C 3.5625,-3.90625 3.078125,-3.125 2.515625,-2.5 l -1.90625,2.125 C 0.5,-0.265625 0.5,-0.234375 0.5,0 H 4.203125 L 4.46875,-1.734375 H 4.234375 C 4.171875,-1.4375 4.109375,-1 4,-0.84375 3.9375,-0.765625 3.28125,-0.765625 3.0625,-0.765625 Z m 0,0"
           id="path256" />
      </symbol>
      <symbol
         overflow="visible"
         id="symbol7852">
        <path
           style="stroke:none"
           d=""
           id="path2472" />
      </symbol>
      <symbol
         overflow="visible"
         id="symbol3760">
        <path
           style="stroke:none"
           d="m 2.640625,-3.71875 h 1.125 C 3.4375,-2.25 3.34375,-1.8125 3.34375,-1.140625 c 0,0.140625 0,0.40625 0.078125,0.75 0.109375,0.4375 0.21875,0.5 0.359375,0.5 0.203125,0 0.421875,-0.171875 0.421875,-0.375 0,-0.0625 0,-0.078125 -0.0625,-0.21875 -0.296875,-0.71875 -0.296875,-1.375 -0.296875,-1.65625 0,-0.515625 0.078125,-1.0625 0.1875,-1.578125 h 1.125 c 0.140625,0 0.5,0 0.5,-0.34375 0,-0.234375 -0.21875,-0.234375 -0.40625,-0.234375 H 1.90625 c -0.21875,0 -0.59375,0 -1.03125,0.46875 -0.34375,0.390625 -0.609375,0.84375 -0.609375,0.890625 0,0.015625 0,0.109375 0.125,0.109375 0.078125,0 0.09375,-0.046875 0.15625,-0.125 C 1.03125,-3.71875 1.609375,-3.71875 1.8125,-3.71875 H 2.375 C 2.0625,-2.515625 1.53125,-1.3125 1.109375,-0.40625 1.03125,-0.25 1.03125,-0.234375 1.03125,-0.15625 c 0,0.1875 0.15625,0.265625 0.28125,0.265625 0.296875,0 0.375,-0.28125 0.5,-0.640625 C 1.953125,-1 1.953125,-1.015625 2.078125,-1.515625 Z m 0,0"
           id="path9936" />
      </symbol>
      <symbol
         overflow="visible"
         id="symbol4064">
        <path
           style="stroke:none"
           d="m 4.8125,-6.65625 c 0,-0.046875 0.015625,-0.109375 0.015625,-0.15625 0,-0.09375 -0.0625,-0.109375 -0.109375,-0.109375 -0.109375,0 -0.109375,0.03125 -0.15625,0.203125 L 2.90625,-0.125 c -0.75,-0.09375 -1.125,-0.46875 -1.125,-1.125 0,-0.203125 0,-0.453125 0.53125,-1.84375 0.046875,-0.125 0.109375,-0.296875 0.109375,-0.5 0,-0.4375 -0.3125,-0.8125 -0.8125,-0.8125 -0.953125,0 -1.3125,1.453125 -1.3125,1.53125 0,0.109375 0.09375,0.109375 0.109375,0.109375 0.109375,0 0.109375,-0.03125 0.15625,-0.1875 0.28125,-0.9375 0.671875,-1.234375 1.015625,-1.234375 0.078125,0 0.25,0 0.25,0.3125 0,0.265625 -0.109375,0.515625 -0.234375,0.859375 C 1.109375,-1.75 1.109375,-1.5 1.109375,-1.328125 1.109375,-0.375 1.890625,0.03125 2.84375,0.09375 2.765625,0.453125 2.765625,0.46875 2.625,1 2.609375,1.109375 2.40625,1.90625 2.40625,1.9375 c 0,0.015625 0,0.109375 0.109375,0.109375 0.03125,0 0.078125,0 0.09375,-0.046875 0.03125,-0.015625 0.09375,-0.265625 0.125,-0.40625 l 0.375,-1.484375 c 0.375,0 1.25,0 2.1875,-1.0625 0.40625,-0.46875 0.609375,-0.90625 0.71875,-1.203125 0.09375,-0.25 0.3125,-1.109375 0.3125,-1.546875 0,-0.5625 -0.265625,-0.703125 -0.4375,-0.703125 -0.25,0 -0.5,0.265625 -0.5,0.484375 0,0.125 0.0625,0.1875 0.15625,0.265625 0.109375,0.109375 0.359375,0.359375 0.359375,0.84375 0,0.640625 -0.515625,1.453125 -0.875,1.8125 -0.875,0.890625 -1.515625,0.890625 -1.875,0.890625 z m 0,0"
           id="path3192" />
      </symbol>
    </g>
  </defs>
  <sodipodi:namedview
     id="base"
     pagecolor="#ffffff"
     bordercolor="#666666"
     borderopacity="1.0"
     inkscape:pageopacity="0.0"
     inkscape:pageshadow="2"
     inkscape:zoom="1.4"
     inkscape:cx="44.123085"
     inkscape:cy="249.00791"
     inkscape:document-units="mm"
     inkscape:current-layer="layer1"
     inkscape:document-rotation="0"
     showgrid="false"
     inkscape:window-width="2456"
     inkscape:window-height="1753"
     inkscape:window-x="3042"
     inkscape:window-y="364"
     inkscape:window-maximized="0" />
  <metadata
     id="metadata21977">
    <rdf:RDF>
      <cc:Work
         rdf:about="">
        <dc:format>image/svg+xml</dc:format>
        <dc:type
           rdf:resource="http://purl.org/dc/dcmitype/StillImage" />
        <dc:title></dc:title>
      </cc:Work>
    </rdf:RDF>
  </metadata>
  <g
     inkscape:label="Layer 1"
     inkscape:groupmode="layer"
     id="layer1"
     transform="translate(-7.7886075,-141.05899)">
    <g
       id="g22683">
      <g
         id="g22553">
        <path
           style="opacity:1;fill:#ff0000;fill-opacity:0.402732;stroke:#0057ff;stroke-width:3.26275;stroke-linejoin:bevel;stroke-miterlimit:4;stroke-dasharray:none;stroke-dashoffset:0;stroke-opacity:0.931675"
           id="path22543"
           sodipodi:type="arc"
           sodipodi:cx="-178.10155"
           sodipodi:cy="-99.123795"
           sodipodi:rx="51.17374"
           sodipodi:ry="51.17374"
           sodipodi:start="0"
           sodipodi:end="2.3999621"
           sodipodi:arc-type="slice"
           d="m -126.92781,-99.123795 a 51.17374,51.17374 0 0 1 -32.62963,47.695575 51.17374,51.17374 0 0 1 -56.27799,-13.128167 l 37.73388,-34.567408 z"
           transform="rotate(-137.08669)" />
        <path
           style="opacity:1;fill:#004fff;fill-opacity:0.398352;stroke:#ff0000;stroke-width:3.879;stroke-linejoin:bevel;stroke-miterlimit:4;stroke-dasharray:none;stroke-dashoffset:0;stroke-opacity:0.931675"
           id="path22549"
           sodipodi:type="arc"
           sodipodi:cx="64.239868"
           sodipodi:cy="197.06894"
           sodipodi:rx="51.573841"
           sodipodi:ry="51.573841"
           sodipodi:start="0"
           sodipodi:end="3.8746309"
           sodipodi:arc-type="slice"
           d="m 115.81371,197.06894 a 51.573841,51.573841 0 0 1 -37.358164,49.57596 51.573841,51.573841 0 0 1 -57.952775,-22.24599 51.573841,51.573841 0 0 1 5.410263,-61.8396 l 38.326834,34.50963 z"
           transform="rotate(0.85300874)" />
      </g>
      <path
         style="fill:none;stroke:#000000;stroke-width:1;stroke-linecap:butt;stroke-linejoin:miter;stroke-miterlimit:4;stroke-dasharray:none;stroke-opacity:1"
         d="m 41.768929,171.88117 c 20.992212,-3.63012 39.952591,-2.03592 50.756846,20.52956"
         id="path22559"
         sodipodi:nodetypes="cc" />
      <g
         inkscape:label=""
         transform="matrix(0.59998251,0,0,0.59998251,0.20201621,134.10901)"
         id="g22612">
        <g
           id="g1143">
          <g
             style="fill:#000000;fill-opacity:1"
             id="g9613">
            <use
               xlink:href="#symbol5931"
               x="91.925003"
               y="81.962997"
               id="use8579"
               width="100%"
               height="100%" />
          </g>
          <g
             style="fill:#000000;fill-opacity:1"
             id="g4035">
            <use
               xlink:href="#symbol1195"
               x="96.906998"
               y="81.962997"
               id="use5582"
               width="100%"
               height="100%" />
          </g>
          <g
             style="fill:#000000;fill-opacity:1"
             id="g4281">
            <use
               xlink:href="#symbol7786"
               x="102.943"
               y="81.962997"
               id="use8197"
               width="100%"
               height="100%" />
            <use
               xlink:href="#symbol6897"
               x="106.81745"
               y="81.962997"
               id="use9628"
               width="100%"
               height="100%" />
          </g>
          <g
             style="fill:#000000;fill-opacity:1"
             id="g2040">
            <use
               xlink:href="#symbol4118"
               x="114.013"
               y="81.962997"
               id="use2625"
               width="100%"
               height="100%" />
          </g>
          <g
             style="fill:#000000;fill-opacity:1"
             id="g9247">
            <use
               xlink:href="#symbol8493"
               x="125.805"
               y="78.040001"
               id="use9582"
               width="100%"
               height="100%" />
          </g>
          <path
             style="fill:none;stroke:#000000;stroke-width:0.398;stroke-linecap:butt;stroke-linejoin:miter;stroke-miterlimit:10;stroke-opacity:1"
             d="M 8.75e-4,-6.5625e-4 H 5.239156"
             transform="matrix(1,0,0,-1,125.171,79.472)"
             id="path7914" />
          <g
             style="fill:#000000;fill-opacity:1"
             id="g8263">
            <use
               xlink:href="#symbol9686"
               x="125.171"
               y="85.398003"
               id="use3458"
               width="100%"
               height="100%" />
          </g>
          <g
             style="fill:#000000;fill-opacity:1"
             id="g7129">
            <use
               xlink:href="#symbol9841"
               x="131.606"
               y="81.962997"
               id="use2897"
               width="100%"
               height="100%" />
          </g>
        </g>
      </g>
    </g>
    <g
       inkscape:label=""
       transform="translate(-42.370244,131.92836)"
       id="g1211">
      <g
         id="g7710">
        <g
           style="fill:#000000;fill-opacity:1"
           id="g4454">
          <use
             xlink:href="#symbol1646"
             x="91.925003"
             y="81.962997"
             id="use1703"
             width="100%"
             height="100%" />
        </g>
        <g
           style="fill:#000000;fill-opacity:1"
           id="g3606">
          <use
             xlink:href="#symbol3760"
             x="96.906998"
             y="81.962997"
             id="use8426"
             width="100%"
             height="100%" />
        </g>
        <g
           style="fill:#000000;fill-opacity:1"
           id="g2803">
          <use
             xlink:href="#symbol4064"
             x="102.94434"
             y="81.962997"
             id="use8384"
             width="100%"
             height="100%" />
        </g>
      </g>
    </g>
  </g>
</svg>
